<svg xmlns="http://www.w3.org/2000/svg" xmlns:xlink="http://www.w3.org/1999/xlink" preserveAspectRatio="xMidYMid" width="263.19" height="92.625" viewBox="0 0 263.19 92.625">
  <defs>
    <style>
      .cls-1 {
        fill: #371313;
        fill-rule: evenodd;
      }
    </style>
  </defs>
  <g>
    <path d="M261.882,82.389 C262.089,84.533 262.521,86.413 263.178,88.029 C262.489,88.157 262.089,88.221 261.978,88.221 C259.626,88.221 258.337,88.077 258.114,87.789 C258.690,87.373 259.113,86.253 259.386,84.429 C259.561,83.197 259.650,81.869 259.650,80.445 C259.650,79.965 259.537,79.725 259.314,79.725 L259.194,79.725 C258.474,79.725 258.114,80.917 258.114,83.301 C258.114,83.557 258.114,83.853 258.114,84.189 C258.129,84.525 258.138,84.717 258.138,84.765 C258.138,85.725 257.913,86.533 257.466,87.189 C256.953,87.941 256.225,88.317 255.282,88.317 C254.706,88.317 254.166,88.121 253.662,87.729 C253.158,87.337 252.810,86.861 252.618,86.301 C252.345,85.565 252.282,84.677 252.426,83.637 C252.474,83.237 252.661,82.857 252.990,82.497 C253.317,82.137 253.665,81.957 254.034,81.957 C254.545,81.957 254.953,82.237 255.258,82.797 C255.513,83.261 255.633,83.757 255.618,84.285 C255.601,84.685 255.522,85.069 255.378,85.437 C255.186,85.885 254.946,86.117 254.658,86.133 C253.921,86.165 253.521,85.757 253.458,84.909 C253.393,84.189 253.521,83.677 253.842,83.373 C253.921,83.293 254.010,83.213 254.106,83.133 C254.202,83.053 254.370,83.037 254.610,83.085 C254.562,82.781 254.409,82.629 254.154,82.629 C253.770,82.629 253.473,82.901 253.266,83.445 C253.105,83.861 253.026,84.293 253.026,84.741 C253.026,85.205 253.122,85.621 253.314,85.989 C253.569,86.453 253.914,86.685 254.346,86.685 C255.097,86.685 255.570,86.213 255.762,85.269 C255.825,84.981 255.858,84.237 255.858,83.037 C255.858,82.429 256.002,81.805 256.290,81.165 C256.530,80.605 256.825,80.149 257.178,79.797 C256.857,79.685 256.537,79.573 256.218,79.461 C255.738,79.285 255.369,79.005 255.114,78.621 C254.778,78.093 254.610,77.317 254.610,76.293 C254.610,74.885 254.929,73.757 255.570,72.909 C256.273,71.949 257.298,71.469 258.642,71.469 C258.993,71.469 259.525,71.497 260.238,71.553 C260.949,71.609 261.474,71.637 261.810,71.637 C262.273,71.637 262.689,71.605 263.058,71.541 C262.146,72.805 261.690,74.485 261.690,76.581 C261.690,79.173 261.753,81.109 261.882,82.389 ZM258.786,73.509 C258.321,73.509 257.929,73.741 257.610,74.205 C257.337,74.621 257.202,75.077 257.202,75.573 C257.202,75.973 257.313,76.341 257.538,76.677 C257.793,77.077 258.114,77.277 258.498,77.277 C258.786,77.277 259.026,77.173 259.218,76.965 C259.489,76.085 259.626,75.149 259.626,74.157 C259.626,73.725 259.345,73.509 258.786,73.509 ZM247.410,87.837 C247.074,87.773 247.041,87.605 247.314,87.333 C247.761,86.885 247.986,86.269 247.986,85.485 C247.986,84.525 247.410,81.853 246.258,77.469 C246.258,77.517 246.170,78.821 245.994,81.381 C245.850,83.445 245.577,85.013 245.178,86.085 C244.602,87.605 243.705,88.365 242.490,88.365 C241.514,88.365 240.698,88.045 240.042,87.405 C239.385,86.765 239.058,85.957 239.058,84.981 C239.058,84.181 239.241,83.493 239.610,82.917 C240.042,82.261 240.650,81.933 241.434,81.933 C242.058,81.933 242.558,82.117 242.934,82.485 C243.309,82.853 243.498,83.341 243.498,83.949 C243.498,85.133 243.057,85.725 242.178,85.725 C241.905,85.725 241.646,85.605 241.398,85.365 C241.149,85.125 241.026,84.869 241.026,84.597 C241.026,84.069 241.305,83.685 241.866,83.445 C241.497,83.397 241.202,83.469 240.978,83.661 C240.674,83.901 240.522,84.237 240.522,84.669 C240.522,85.917 241.041,86.549 242.082,86.565 C242.913,86.581 243.506,85.845 243.858,84.357 C244.002,83.701 244.113,82.661 244.194,81.237 C244.257,80.533 244.314,79.821 244.362,79.101 C244.473,77.725 244.530,76.933 244.530,76.725 C244.530,75.749 244.346,74.829 243.978,73.965 C243.690,73.293 243.194,72.453 242.490,71.445 C243.674,71.445 245.730,71.637 248.658,72.021 C248.450,72.261 248.250,72.501 248.058,72.741 C247.722,73.301 247.554,74.029 247.554,74.925 C247.554,75.437 247.610,76.005 247.722,76.629 C248.202,79.349 248.697,81.485 249.210,83.037 C249.818,84.909 250.650,86.573 251.706,88.029 C251.481,88.061 251.210,88.077 250.890,88.077 C250.826,88.077 249.666,87.997 247.410,87.837 ZM234.498,87.837 C234.162,87.773 234.130,87.605 234.402,87.333 C234.850,86.885 235.074,86.269 235.074,85.485 C235.074,84.525 234.498,81.853 233.346,77.469 C233.346,77.517 233.258,78.821 233.082,81.381 C232.938,83.445 232.666,85.013 232.266,86.085 C231.690,87.605 230.794,88.365 229.578,88.365 C228.602,88.365 227.786,88.045 227.130,87.405 C226.474,86.765 226.146,85.957 226.146,84.981 C226.146,84.181 226.330,83.493 226.698,82.917 C227.130,82.261 227.738,81.933 228.522,81.933 C229.146,81.933 229.646,82.117 230.022,82.485 C230.398,82.853 230.586,83.341 230.586,83.949 C230.586,85.133 230.146,85.725 229.266,85.725 C228.994,85.725 228.734,85.605 228.486,85.365 C228.238,85.125 228.114,84.869 228.114,84.597 C228.114,84.069 228.394,83.685 228.954,83.445 C228.586,83.397 228.290,83.469 228.066,83.661 C227.762,83.901 227.610,84.237 227.610,84.669 C227.610,85.917 228.130,86.549 229.170,86.565 C230.002,86.581 230.594,85.845 230.946,84.357 C231.090,83.701 231.202,82.661 231.282,81.237 C231.346,80.533 231.402,79.821 231.450,79.101 C231.562,77.725 231.618,76.933 231.618,76.725 C231.618,75.749 231.434,74.829 231.066,73.965 C230.778,73.293 230.282,72.453 229.578,71.445 C230.762,71.445 232.818,71.637 235.746,72.021 C235.538,72.261 235.338,72.501 235.146,72.741 C234.810,73.301 234.642,74.029 234.642,74.925 C234.642,75.437 234.698,76.005 234.810,76.629 C235.290,79.349 235.786,81.485 236.298,83.037 C236.906,84.909 237.738,86.573 238.794,88.029 C238.570,88.061 238.298,88.077 237.978,88.077 C237.914,88.077 236.754,87.997 234.498,87.837 ZM218.730,87.453 C220.698,87.309 220.890,87.165 220.890,85.125 L220.890,75.524 C220.890,73.484 220.698,73.340 218.730,73.196 L218.730,72.524 L225.091,72.524 L225.091,73.196 C223.123,73.340 222.931,73.484 222.931,75.524 L222.931,85.125 C222.931,87.189 223.123,87.309 225.091,87.453 L225.091,88.125 L218.730,88.125 L218.730,87.453 ZM216.426,80.997 C217.066,81.669 217.386,82.637 217.386,83.901 C217.386,85.357 216.882,86.525 215.874,87.405 C215.074,88.093 213.762,88.437 211.938,88.437 C211.394,88.437 210.690,88.333 209.826,88.125 C209.426,88.013 208.826,87.853 208.026,87.645 C208.538,86.749 208.818,85.661 208.866,84.381 C209.074,79.357 209.178,76.469 209.178,75.717 C209.178,74.661 209.130,73.949 209.034,73.581 C208.906,73.085 208.698,72.749 208.410,72.573 C208.282,72.493 208.058,72.437 207.738,72.405 C207.530,72.389 207.426,72.301 207.426,72.141 L207.426,71.949 C208.802,71.629 209.866,71.469 210.618,71.469 C211.898,71.469 213.090,71.741 214.194,72.285 C215.538,72.957 216.266,73.877 216.378,75.045 C216.442,75.653 216.450,76.173 216.402,76.605 C216.338,77.261 216.162,77.837 215.874,78.333 C215.506,78.973 215.002,79.477 214.362,79.845 C215.162,80.005 215.850,80.389 216.426,80.997 ZM212.694,74.685 C212.366,74.365 212.058,74.205 211.770,74.205 L211.602,74.205 C211.602,74.525 211.594,74.977 211.578,75.561 C211.562,76.145 211.554,76.581 211.554,76.869 C211.554,77.365 211.562,77.717 211.578,77.925 C211.626,78.565 211.778,78.885 212.034,78.885 C212.306,78.885 212.554,78.613 212.778,78.069 C213.050,77.445 213.186,76.669 213.186,75.741 C213.186,75.357 213.022,75.005 212.694,74.685 ZM213.354,82.149 C213.002,81.573 212.546,81.285 211.986,81.285 C211.874,81.285 211.682,81.325 211.410,81.405 L211.434,82.869 C211.450,83.685 211.522,84.829 211.650,86.301 C211.954,86.397 212.338,86.261 212.802,85.893 C213.426,85.413 213.754,84.685 213.786,83.709 C213.802,83.149 213.658,82.629 213.354,82.149 ZM205.734,87.057 C205.374,87.497 204.950,87.837 204.462,88.077 C203.974,88.317 203.458,88.437 202.914,88.437 C202.786,88.437 202.598,88.413 202.350,88.365 C202.102,88.317 201.842,88.265 201.570,88.209 C201.298,88.153 201.038,88.101 200.790,88.053 C200.542,88.005 200.354,87.981 200.226,87.981 C199.826,87.981 199.450,88.101 199.098,88.341 C199.146,87.221 199.170,85.949 199.170,84.525 C199.170,84.125 199.170,83.721 199.170,83.313 C199.170,82.905 199.162,82.477 199.146,82.029 C199.466,83.645 199.854,84.837 200.310,85.605 C200.766,86.373 201.330,86.757 202.002,86.757 C202.242,86.757 202.474,86.709 202.698,86.613 C202.922,86.517 203.126,86.385 203.310,86.217 C203.494,86.049 203.638,85.849 203.742,85.617 C203.846,85.385 203.898,85.125 203.898,84.837 C203.898,84.453 203.870,83.981 203.814,83.421 C203.758,82.861 203.618,82.333 203.394,81.837 C203.170,81.341 202.842,80.937 202.410,80.625 C201.978,80.313 201.386,80.205 200.634,80.301 C200.554,80.301 200.498,80.261 200.466,80.181 C200.434,80.101 200.418,80.017 200.418,79.929 C200.418,79.841 200.434,79.757 200.466,79.677 C200.498,79.597 200.554,79.557 200.634,79.557 C201.242,79.605 201.774,79.517 202.230,79.293 C202.686,79.069 203.070,78.765 203.382,78.381 C203.694,77.997 203.930,77.557 204.090,77.061 C204.250,76.565 204.330,76.061 204.330,75.549 C204.330,75.261 204.254,74.957 204.102,74.637 C203.950,74.317 203.754,74.025 203.514,73.761 C203.274,73.497 202.998,73.281 202.686,73.113 C202.374,72.945 202.058,72.861 201.738,72.861 C201.466,72.861 201.218,72.921 200.994,73.041 C200.770,73.161 200.582,73.321 200.430,73.521 C200.278,73.721 200.158,73.949 200.070,74.205 C199.982,74.461 199.938,74.733 199.938,75.021 C199.938,75.533 200.038,75.989 200.238,76.389 C200.438,76.789 200.746,76.989 201.162,76.989 C201.338,76.989 201.526,76.921 201.726,76.785 C201.926,76.649 202.026,76.477 202.026,76.269 L201.978,76.149 C201.802,76.213 201.610,76.245 201.402,76.245 C201.050,76.245 200.802,76.161 200.658,75.993 C200.514,75.825 200.442,75.573 200.442,75.237 C200.442,74.309 200.810,73.845 201.546,73.845 C201.866,73.845 202.134,73.989 202.350,74.277 C202.566,74.565 202.674,74.941 202.674,75.405 C202.674,75.709 202.634,75.997 202.554,76.269 C202.474,76.541 202.362,76.777 202.218,76.977 C202.074,77.177 201.902,77.337 201.702,77.457 C201.502,77.577 201.282,77.637 201.042,77.637 C200.370,77.637 199.826,77.365 199.410,76.821 C198.994,76.277 198.786,75.589 198.786,74.757 C198.786,74.357 198.886,73.961 199.086,73.569 C199.286,73.177 199.546,72.821 199.866,72.501 C200.186,72.181 200.546,71.921 200.946,71.721 C201.346,71.521 201.746,71.421 202.146,71.421 C202.738,71.421 203.306,71.541 203.850,71.781 C204.394,72.021 204.874,72.349 205.290,72.765 C205.706,73.181 206.038,73.665 206.286,74.217 C206.534,74.769 206.658,75.357 206.658,75.981 C206.658,76.413 206.618,76.821 206.538,77.205 C206.458,77.589 206.322,77.945 206.130,78.273 C205.938,78.601 205.678,78.885 205.350,79.125 C205.022,79.365 204.618,79.557 204.138,79.701 C204.538,79.797 204.910,79.989 205.254,80.277 C205.598,80.565 205.890,80.893 206.130,81.261 C206.370,81.629 206.558,82.009 206.694,82.401 C206.830,82.793 206.898,83.149 206.898,83.469 C206.898,84.205 206.794,84.877 206.586,85.485 C206.378,86.093 206.094,86.617 205.734,87.057 ZM188.108,55.149 C183.883,55.149 180.908,52.676 179.180,47.733 C178.028,44.518 177.452,40.461 177.452,35.565 C177.452,31.149 176.300,28.102 173.996,26.421 C173.611,27.238 173.204,28.606 172.772,30.525 C172.340,32.445 172.124,33.885 172.124,34.845 C172.124,39.789 172.963,43.845 174.644,47.013 C175.555,48.501 176.467,49.990 177.380,51.477 L175.436,51.477 C173.852,51.477 171.499,51.682 168.380,52.089 C165.259,52.496 162.931,52.701 161.396,52.701 L159.884,52.701 L159.668,51.981 C162.643,49.245 164.132,43.965 164.132,36.141 C164.132,27.693 163.963,21.910 163.628,18.789 C162.764,10.246 160.771,5.469 157.652,4.461 L157.652,4.317 C160.579,3.982 163.507,3.622 166.436,3.237 C169.843,2.853 172.795,2.661 175.292,2.661 C175.851,2.834 176.122,3.006 176.180,3.178 C176.023,3.242 175.442,4.357 174.428,6.549 C173.227,9.141 172.628,11.565 172.628,13.821 C172.628,14.829 172.795,16.125 173.132,17.709 C173.611,19.917 173.875,21.237 173.924,21.669 C174.259,20.709 175.580,18.117 177.884,13.893 C179.803,10.390 180.764,8.014 180.764,6.765 C180.764,5.613 180.283,4.558 179.324,3.597 C180.091,3.262 182.371,2.974 186.164,2.733 C188.612,2.589 191.083,2.445 193.580,2.301 C192.907,3.597 191.528,5.458 189.440,7.881 C187.352,10.305 185.899,12.357 185.084,14.037 C184.267,15.718 183.428,17.421 182.564,19.149 C181.651,21.165 180.955,22.990 180.476,24.621 C183.212,27.405 184.580,32.013 184.580,38.445 C184.580,40.461 184.868,42.358 185.444,44.133 C186.211,46.581 187.363,47.758 188.900,47.661 C192.883,47.470 194.876,44.950 194.876,40.101 C194.876,36.166 193.603,34.197 191.060,34.197 C189.908,34.197 189.332,35.133 189.332,37.005 C190.579,36.814 191.515,37.041 192.140,37.689 C192.763,38.337 193.076,39.165 193.076,40.173 C193.076,41.085 192.667,41.998 191.852,42.909 C191.035,43.821 190.147,44.277 189.188,44.277 C188.227,44.277 187.435,43.677 186.812,42.477 C186.283,41.422 186.020,40.389 186.020,39.381 C186.020,37.125 186.427,35.277 187.244,33.837 C188.252,32.013 189.787,31.101 191.852,31.101 C194.059,31.101 195.740,32.085 196.892,34.053 C197.851,35.685 198.332,37.701 198.332,40.101 C198.332,43.749 197.563,47.013 196.028,49.893 C194.156,53.396 191.515,55.149 188.108,55.149 ZM176.228,3.237 C176.228,3.217 176.186,3.198 176.180,3.178 C176.208,3.167 176.228,3.178 176.228,3.237 ZM152.504,12.021 C152.240,14.085 152.083,16.533 152.036,19.365 C151.988,22.198 151.964,25.438 151.964,29.085 C151.964,30.957 152.011,32.901 152.108,34.917 C152.204,36.933 152.360,38.913 152.576,40.857 C152.792,42.801 153.068,44.649 153.404,46.401 C153.739,48.154 154.124,49.702 154.556,51.045 C153.932,51.909 152.396,52.341 149.948,52.341 C149.756,52.341 149.576,52.329 149.408,52.305 C149.239,52.280 149.036,52.269 148.796,52.269 L143.828,52.053 C144.068,50.566 144.296,49.090 144.512,47.625 C144.728,46.161 144.955,44.685 145.196,43.197 C145.243,41.710 145.304,40.306 145.376,38.985 C145.448,37.665 145.520,36.369 145.592,35.097 C145.664,33.826 145.736,32.541 145.808,31.245 C145.880,29.949 145.916,28.606 145.916,27.213 C145.916,26.829 145.916,26.302 145.916,25.629 C145.916,24.957 145.904,24.250 145.880,23.505 C145.855,22.761 145.832,22.054 145.808,21.381 C145.783,20.709 145.772,20.182 145.772,19.797 C144.284,21.813 142.640,24.466 140.840,27.753 C139.040,31.041 137.179,34.485 135.260,38.085 C134.731,39.093 134.335,40.198 134.072,41.397 C133.808,42.597 133.676,43.798 133.676,44.997 C133.676,46.197 133.856,47.362 134.216,48.489 C134.576,49.617 135.163,50.613 135.980,51.477 C133.435,52.532 130.076,53.061 125.900,53.061 C123.740,53.061 121.627,52.917 119.564,52.629 C120.619,51.286 121.519,49.918 122.264,48.525 C123.008,47.133 123.607,45.573 124.064,43.845 C124.520,42.117 124.844,40.149 125.036,37.941 C125.227,35.734 125.324,33.165 125.324,30.237 C125.324,28.221 125.227,25.809 125.036,23.001 C124.844,20.193 124.556,16.942 124.172,13.245 C124.075,12.478 123.895,11.697 123.632,10.905 C123.368,10.113 122.995,9.238 122.516,8.277 C122.084,7.461 121.616,6.790 121.112,6.261 C120.608,5.733 120.128,5.278 119.672,4.893 C119.215,4.509 118.832,4.185 118.520,3.921 C118.207,3.658 118.052,3.381 118.052,3.093 C119.156,2.902 120.056,2.733 120.752,2.589 C121.447,2.445 122.084,2.326 122.660,2.229 C123.236,2.133 123.800,2.061 124.352,2.013 C124.903,1.966 125.587,1.941 126.404,1.941 C127.988,1.941 129.619,2.038 131.300,2.229 C132.980,2.421 134.924,2.709 137.132,3.093 C137.132,3.381 136.976,3.645 136.664,3.885 C136.351,4.126 135.980,4.425 135.548,4.785 C135.116,5.145 134.636,5.602 134.108,6.153 C133.579,6.705 133.100,7.413 132.668,8.277 C132.620,8.901 132.571,9.825 132.524,11.049 C132.476,12.273 132.427,13.666 132.380,15.225 C132.332,16.785 132.283,18.418 132.236,20.121 C132.188,21.825 132.152,23.458 132.128,25.017 C132.103,26.577 132.092,27.994 132.092,29.265 C132.092,30.537 132.092,31.486 132.092,32.109 C133.820,29.565 135.476,27.058 137.060,24.585 C138.644,22.113 140.059,19.534 141.308,16.845 C141.643,15.741 141.944,14.566 142.208,13.317 C142.471,12.069 142.615,10.833 142.640,9.609 C142.664,8.385 142.520,7.222 142.208,6.117 C141.895,5.013 141.332,4.054 140.516,3.237 C141.571,3.093 142.496,2.985 143.288,2.913 C144.080,2.841 145.004,2.805 146.060,2.805 C148.123,2.805 149.972,2.902 151.604,3.093 C153.235,3.285 154.700,3.645 155.996,4.173 C154.988,4.749 154.220,5.685 153.692,6.981 C153.163,8.277 152.767,9.958 152.504,12.021 ZM119.613,72.141 C119.277,72.333 119.020,72.645 118.845,73.077 C118.668,73.509 118.536,74.069 118.449,74.757 C118.360,75.445 118.308,76.261 118.293,77.205 C118.276,78.149 118.269,79.229 118.269,80.445 C118.269,81.069 118.284,81.717 118.317,82.389 C118.348,83.061 118.401,83.721 118.473,84.369 C118.545,85.017 118.636,85.633 118.749,86.217 C118.860,86.801 118.989,87.317 119.133,87.765 C118.924,88.053 118.413,88.197 117.597,88.197 C117.532,88.197 117.472,88.193 117.417,88.185 C117.360,88.177 117.292,88.173 117.213,88.173 L115.557,88.101 C115.636,87.605 115.713,87.113 115.785,86.625 C115.857,86.137 115.932,85.645 116.013,85.149 C116.028,84.653 116.049,84.185 116.073,83.745 C116.097,83.305 116.121,82.873 116.145,82.449 C116.169,82.025 116.193,81.597 116.217,81.165 C116.241,80.733 116.253,80.285 116.253,79.821 C116.253,79.693 116.253,79.517 116.253,79.293 C116.253,79.069 116.248,78.833 116.241,78.585 C116.232,78.337 116.224,78.101 116.217,77.877 C116.208,77.653 116.205,77.477 116.205,77.349 C115.708,78.021 115.161,78.905 114.561,80.001 C113.961,81.097 113.340,82.245 112.701,83.445 C112.524,83.781 112.392,84.149 112.305,84.549 C112.216,84.949 112.173,85.349 112.173,85.749 C112.173,86.149 112.233,86.537 112.353,86.913 C112.473,87.289 112.668,87.621 112.941,87.909 C112.092,88.261 110.973,88.437 109.581,88.437 C108.861,88.437 108.156,88.389 107.469,88.293 C107.820,87.845 108.120,87.389 108.369,86.925 C108.616,86.461 108.816,85.941 108.969,85.365 C109.120,84.789 109.228,84.133 109.293,83.397 C109.356,82.661 109.389,81.805 109.389,80.829 C109.389,80.157 109.356,79.353 109.293,78.417 C109.228,77.481 109.132,76.397 109.005,75.165 C108.972,74.909 108.912,74.649 108.825,74.385 C108.736,74.121 108.612,73.829 108.453,73.509 C108.309,73.237 108.153,73.013 107.985,72.837 C107.817,72.661 107.656,72.509 107.505,72.381 C107.352,72.253 107.224,72.145 107.121,72.057 C107.016,71.969 106.965,71.877 106.965,71.781 C107.332,71.717 107.632,71.661 107.865,71.613 C108.096,71.565 108.309,71.525 108.501,71.493 C108.693,71.461 108.880,71.437 109.065,71.421 C109.248,71.405 109.476,71.397 109.749,71.397 C110.277,71.397 110.820,71.429 111.381,71.493 C111.940,71.557 112.588,71.653 113.325,71.781 C113.325,71.877 113.272,71.965 113.169,72.045 C113.064,72.125 112.941,72.225 112.797,72.345 C112.653,72.465 112.492,72.617 112.317,72.801 C112.140,72.985 111.981,73.221 111.837,73.509 C111.820,73.717 111.804,74.025 111.789,74.433 C111.772,74.841 111.756,75.305 111.741,75.825 C111.724,76.345 111.708,76.889 111.693,77.457 C111.676,78.025 111.664,78.569 111.657,79.089 C111.648,79.609 111.645,80.081 111.645,80.505 C111.645,80.929 111.645,81.245 111.645,81.453 C112.221,80.605 112.773,79.769 113.301,78.945 C113.829,78.121 114.300,77.261 114.717,76.365 C114.828,75.997 114.928,75.605 115.017,75.189 C115.104,74.773 115.152,74.361 115.161,73.953 C115.168,73.545 115.120,73.157 115.017,72.789 C114.912,72.421 114.724,72.101 114.453,71.829 C114.804,71.781 115.113,71.745 115.377,71.721 C115.641,71.697 115.948,71.685 116.301,71.685 C116.988,71.685 117.604,71.717 118.149,71.781 C118.692,71.845 119.181,71.965 119.613,72.141 ZM103.221,51.261 C102.213,51.070 102.116,50.566 102.933,49.749 C104.276,48.406 104.949,46.557 104.949,44.205 C104.949,41.325 103.221,33.309 99.765,20.157 C99.765,20.301 99.500,24.214 98.973,31.893 C98.541,38.085 97.724,42.790 96.525,46.005 C94.797,50.566 92.108,52.845 88.461,52.845 C85.532,52.845 83.084,51.885 81.117,49.965 C79.148,48.046 78.165,45.621 78.165,42.693 C78.165,40.293 78.716,38.229 79.821,36.501 C81.117,34.533 82.940,33.549 85.293,33.549 C87.165,33.549 88.664,34.101 89.793,35.205 C90.920,36.310 91.485,37.773 91.485,39.597 C91.485,43.150 90.164,44.925 87.525,44.925 C86.708,44.925 85.928,44.565 85.185,43.845 C84.440,43.125 84.069,42.358 84.069,41.541 C84.069,39.957 84.908,38.805 86.589,38.085 C85.484,37.941 84.596,38.157 83.925,38.733 C83.012,39.453 82.557,40.461 82.557,41.757 C82.557,45.501 84.116,47.398 87.237,47.445 C89.732,47.493 91.508,45.285 92.565,40.821 C92.997,38.853 93.332,35.734 93.573,31.461 C93.764,29.349 93.933,27.213 94.077,25.053 C94.412,20.925 94.581,18.549 94.581,17.925 C94.581,14.998 94.028,12.237 92.925,9.645 C92.061,7.629 90.572,5.109 88.461,2.085 C92.012,2.085 98.181,2.661 106.965,3.813 C106.340,4.533 105.741,5.253 105.165,5.973 C104.157,7.654 103.653,9.837 103.653,12.525 C103.653,14.062 103.820,15.765 104.157,17.637 C105.597,25.798 107.084,32.206 108.621,36.861 C110.444,42.477 112.941,47.470 116.109,51.837 C115.436,51.934 114.620,51.981 113.661,51.981 C113.468,51.981 109.989,51.741 103.221,51.261 ZM73.810,12.957 C73.113,15.790 72.561,18.801 72.154,21.993 C71.745,25.186 71.290,28.365 70.786,31.533 C70.282,34.701 69.634,37.737 68.842,40.641 C68.050,43.546 66.934,46.138 65.494,48.417 C64.054,50.697 62.182,52.557 59.878,53.997 C57.574,55.437 54.645,56.253 51.094,56.445 C49.173,56.541 47.350,56.384 45.622,55.977 C43.894,55.569 42.382,54.872 41.086,53.889 C39.790,52.905 38.757,51.633 37.990,50.073 C37.221,48.514 36.885,46.629 36.982,44.421 C37.029,43.222 37.329,41.901 37.882,40.461 C38.433,39.021 39.178,37.689 40.114,36.465 C41.050,35.241 42.166,34.197 43.462,33.333 C44.758,32.469 46.173,31.990 47.710,31.893 C49.101,31.846 50.374,32.037 51.526,32.469 C52.678,32.901 53.673,33.513 54.514,34.305 C55.353,35.097 56.001,36.033 56.458,37.113 C56.913,38.193 57.117,39.334 57.070,40.533 C57.070,41.685 56.865,42.777 56.458,43.809 C56.049,44.842 55.497,45.753 54.802,46.545 C54.105,47.337 53.313,47.961 52.426,48.417 C51.537,48.874 50.590,49.126 49.582,49.173 C47.757,49.270 46.234,48.753 45.010,47.625 C43.786,46.498 43.197,45.045 43.246,43.269 C43.341,41.733 43.930,40.533 45.010,39.669 C46.090,38.805 47.206,38.349 48.358,38.301 C48.885,38.254 49.413,38.337 49.942,38.553 C50.469,38.769 50.997,38.997 51.526,39.237 C51.285,38.277 50.853,37.521 50.230,36.969 C49.605,36.418 48.765,36.189 47.710,36.285 C46.029,36.382 44.709,37.066 43.750,38.337 C42.789,39.609 42.261,41.661 42.166,44.493 C42.069,46.509 42.717,48.226 44.110,49.641 C45.501,51.057 47.397,51.718 49.798,51.621 C51.141,51.525 52.462,51.117 53.758,50.397 C55.054,49.677 56.217,48.694 57.250,47.445 C58.281,46.197 59.158,44.673 59.878,42.873 C60.598,41.073 61.102,39.046 61.390,36.789 C61.822,35.158 62.182,33.574 62.470,32.037 C60.357,32.373 58.521,32.361 56.962,32.001 C55.401,31.641 54.069,31.065 52.966,30.273 C51.861,29.481 50.961,28.557 50.266,27.501 C49.569,26.446 49.029,25.389 48.646,24.333 C48.261,23.278 48.009,22.293 47.890,21.381 C47.769,20.470 47.710,19.773 47.710,19.293 C47.757,18.670 47.793,18.117 47.818,17.637 C47.841,17.158 47.854,16.701 47.854,16.269 C47.854,15.837 47.865,15.369 47.890,14.865 C47.913,14.361 47.949,13.725 47.998,12.957 C48.093,11.085 47.865,9.742 47.314,8.925 C46.761,8.109 45.933,7.654 44.830,7.557 C43.629,7.510 42.501,7.665 41.446,8.025 C40.389,8.385 39.466,8.925 38.674,9.645 C37.882,10.365 37.245,11.277 36.766,12.381 C36.285,13.486 36.021,14.782 35.974,16.269 C35.830,18.429 36.933,19.557 39.286,19.653 C40.438,19.701 41.277,18.909 41.806,17.277 C41.565,17.277 41.374,17.253 41.230,17.205 C39.214,17.158 38.206,16.389 38.206,14.901 C38.253,14.422 38.433,13.929 38.746,13.425 C39.057,12.921 39.466,12.453 39.970,12.021 C40.474,11.589 41.050,11.229 41.698,10.941 C42.346,10.653 43.030,10.534 43.750,10.581 C44.470,10.629 45.082,11.013 45.586,11.733 C46.090,12.453 46.317,13.317 46.270,14.325 C46.221,15.621 45.921,16.785 45.370,17.817 C44.817,18.850 44.121,19.725 43.282,20.445 C42.441,21.165 41.505,21.694 40.474,22.029 C39.441,22.365 38.422,22.509 37.414,22.461 C35.637,22.317 34.293,21.705 33.382,20.625 C32.469,19.545 32.061,18.094 32.158,16.269 C32.205,14.253 32.685,12.298 33.598,10.401 C34.509,8.505 35.661,6.826 37.054,5.361 C38.445,3.897 40.017,2.745 41.770,1.905 C43.521,1.066 45.285,0.670 47.062,0.717 C53.301,0.909 56.278,4.653 55.990,11.949 C55.941,13.486 55.749,14.949 55.414,16.341 C55.077,17.734 54.861,19.341 54.766,21.165 C54.717,21.741 54.813,22.558 55.054,23.613 C55.293,24.669 55.738,25.605 56.386,26.421 C57.034,27.238 57.934,27.789 59.086,28.077 C60.238,28.365 61.678,28.030 63.406,27.069 C63.741,25.101 63.969,23.325 64.090,21.741 C64.209,20.157 64.293,18.717 64.342,17.421 C64.389,15.549 64.353,13.954 64.234,12.633 C64.113,11.313 63.897,10.197 63.586,9.285 C63.273,8.374 62.841,7.618 62.290,7.017 C61.737,6.417 61.077,5.901 60.310,5.469 C60.069,5.373 59.865,5.278 59.698,5.181 C59.529,5.085 59.446,4.965 59.446,4.821 C59.493,4.725 59.577,4.594 59.698,4.425 C59.817,4.257 60.022,4.101 60.310,3.957 C62.038,3.525 63.969,3.093 66.106,2.661 C68.241,2.229 70.246,1.845 72.118,1.509 C73.990,1.174 75.561,0.897 76.834,0.681 C78.105,0.465 78.765,0.333 78.814,0.285 C79.773,0.189 80.409,0.117 80.722,0.069 C81.033,0.022 81.237,-0.003 81.334,-0.003 L81.478,-0.003 C79.413,1.293 77.793,3.069 76.618,5.325 C75.441,7.582 74.505,10.125 73.810,12.957 ZM36.574,71.397 C37.726,71.397 38.686,72.437 39.454,74.517 C40.126,76.325 40.462,78.229 40.462,80.229 C40.462,81.493 40.374,82.525 40.198,83.325 C40.086,83.757 39.830,84.517 39.430,85.605 C39.110,86.453 38.798,87.069 38.494,87.453 C37.934,88.173 37.206,88.533 36.310,88.533 C34.934,88.533 33.830,87.413 32.998,85.173 C32.358,83.461 32.038,81.789 32.038,80.157 C32.038,78.285 32.358,76.493 32.998,74.781 C33.846,72.525 35.038,71.397 36.574,71.397 ZM36.958,85.269 C37.534,85.269 38.014,84.805 38.398,83.877 C38.702,83.173 38.878,82.461 38.926,81.741 C38.974,81.021 38.870,80.325 38.614,79.653 C38.310,78.901 37.926,78.525 37.462,78.525 C36.454,78.541 35.950,79.301 35.950,80.805 C35.950,81.317 36.070,81.777 36.310,82.185 C36.550,82.593 36.798,82.805 37.054,82.821 C37.438,82.837 37.686,82.557 37.798,81.981 C37.734,82.013 37.598,82.029 37.390,82.029 C37.022,82.029 36.738,81.893 36.538,81.621 C36.338,81.349 36.238,81.021 36.238,80.637 C36.238,80.237 36.346,79.857 36.562,79.497 C36.778,79.137 37.062,78.965 37.414,78.981 C38.166,78.997 38.550,79.725 38.566,81.165 C38.566,81.853 38.462,82.421 38.254,82.869 C37.998,83.445 37.606,83.741 37.078,83.757 C36.390,83.789 35.878,83.437 35.542,82.701 C35.286,82.157 35.166,81.493 35.182,80.709 C35.198,79.797 35.410,79.013 35.818,78.357 C36.226,77.701 36.750,77.373 37.390,77.373 C37.934,77.373 38.374,77.613 38.710,78.093 L39.070,78.597 L39.070,78.045 C39.070,77.293 38.894,76.493 38.542,75.645 C38.094,74.605 37.558,74.085 36.934,74.085 C36.294,74.085 35.742,74.725 35.278,76.005 C34.862,77.173 34.654,78.405 34.654,79.701 C34.670,83.413 35.438,85.269 36.958,85.269 ZM28.222,89.133 C26.814,89.133 25.822,88.309 25.246,86.661 C24.862,85.589 24.670,84.237 24.670,82.605 C24.670,81.133 24.286,80.117 23.518,79.557 C23.390,79.829 23.254,80.285 23.110,80.925 C22.966,81.565 22.894,82.045 22.894,82.365 C22.894,84.013 23.174,85.365 23.734,86.421 C24.038,86.917 24.342,87.413 24.646,87.909 L23.998,87.909 C23.470,87.909 22.686,87.977 21.646,88.113 C20.606,88.249 19.830,88.317 19.318,88.317 L18.814,88.317 L18.742,88.077 C19.734,87.165 20.230,85.405 20.230,82.797 C20.230,79.981 20.174,78.053 20.062,77.013 C19.774,74.165 19.110,72.573 18.070,72.237 L18.070,72.189 C19.046,72.077 20.022,71.957 20.998,71.829 C22.134,71.701 23.118,71.637 23.950,71.637 C24.136,71.695 24.227,71.752 24.246,71.809 C24.194,71.831 24.000,72.202 23.662,72.933 C23.262,73.797 23.062,74.605 23.062,75.357 C23.062,75.693 23.118,76.125 23.230,76.653 C23.390,77.389 23.478,77.829 23.494,77.973 C23.606,77.653 24.046,76.789 24.814,75.381 C25.454,74.213 25.774,73.421 25.774,73.005 C25.774,72.621 25.614,72.269 25.294,71.949 C25.550,71.837 26.310,71.741 27.574,71.661 C28.390,71.613 29.214,71.565 30.046,71.517 C29.822,71.949 29.362,72.569 28.666,73.377 C27.970,74.185 27.486,74.869 27.214,75.429 C26.942,75.989 26.662,76.557 26.374,77.133 C26.070,77.805 25.838,78.413 25.678,78.957 C26.590,79.885 27.046,81.421 27.046,83.565 C27.046,84.237 27.142,84.869 27.334,85.461 C27.590,86.277 27.974,86.669 28.486,86.637 C29.814,86.573 30.478,85.733 30.478,84.117 C30.478,82.805 30.054,82.149 29.206,82.149 C28.822,82.149 28.630,82.461 28.630,83.085 C29.046,83.021 29.358,83.097 29.566,83.313 C29.774,83.529 29.878,83.805 29.878,84.141 C29.878,84.445 29.742,84.749 29.470,85.053 C29.198,85.357 28.902,85.509 28.582,85.509 C28.262,85.509 27.998,85.309 27.790,84.909 C27.614,84.557 27.526,84.213 27.526,83.877 C27.526,83.125 27.662,82.509 27.934,82.029 C28.270,81.421 28.782,81.117 29.470,81.117 C30.206,81.117 30.766,81.445 31.150,82.101 C31.470,82.645 31.630,83.317 31.630,84.117 C31.630,85.333 31.374,86.421 30.862,87.381 C30.238,88.549 29.358,89.133 28.222,89.133 ZM27.622,30.741 C29.541,32.757 30.502,35.662 30.502,39.453 C30.502,43.821 28.990,47.326 25.966,49.965 C23.565,52.029 19.630,53.061 14.158,53.061 C12.526,53.061 10.414,52.748 7.822,52.125 C6.622,51.790 4.822,51.309 2.422,50.685 C3.958,47.997 4.798,44.734 4.942,40.893 C5.565,25.821 5.878,17.158 5.878,14.901 C5.878,11.733 5.734,9.598 5.446,8.493 C5.061,7.006 4.438,5.998 3.574,5.469 C3.189,5.229 2.518,5.062 1.558,4.965 C0.934,4.918 0.622,4.653 0.622,4.173 L0.622,3.597 C4.750,2.637 7.941,2.157 10.198,2.157 C14.038,2.157 17.614,2.974 20.926,4.605 C24.958,6.621 27.142,9.382 27.478,12.885 C27.669,14.710 27.694,16.269 27.550,17.565 C27.358,19.534 26.830,21.262 25.966,22.749 C24.861,24.669 23.349,26.181 21.430,27.285 C23.830,27.765 25.894,28.917 27.622,30.741 ZM16.426,11.805 C15.442,10.845 14.518,10.365 13.654,10.365 L13.150,10.365 C13.150,11.326 13.125,12.681 13.078,14.433 C13.030,16.186 13.006,17.493 13.006,18.357 C13.006,19.845 13.030,20.902 13.078,21.525 C13.222,23.445 13.678,24.405 14.446,24.405 C15.262,24.405 16.005,23.589 16.678,21.957 C17.494,20.085 17.902,17.757 17.902,14.973 C17.902,13.821 17.409,12.766 16.426,11.805 ZM18.406,34.197 C17.350,32.469 15.982,31.605 14.302,31.605 C13.966,31.605 13.390,31.725 12.574,31.965 L12.646,36.357 C12.693,38.805 12.909,42.237 13.294,46.653 C14.205,46.941 15.357,46.534 16.750,45.429 C18.622,43.989 19.605,41.805 19.702,38.877 C19.749,37.197 19.317,35.637 18.406,34.197 ZM1.534,74.757 C1.374,74.085 1.182,73.457 0.958,72.873 C0.734,72.289 0.414,71.765 -0.002,71.301 C0.686,71.189 1.390,71.117 2.110,71.085 C3.438,71.021 4.566,71.149 5.494,71.469 C5.046,72.173 4.774,72.909 4.678,73.677 C4.566,74.557 4.490,75.345 4.450,76.041 C4.410,76.737 4.398,77.357 4.414,77.901 C4.430,78.189 4.458,78.673 4.498,79.353 C4.538,80.033 4.582,80.749 4.630,81.501 C4.678,82.253 4.726,82.969 4.774,83.649 C4.822,84.329 4.870,84.821 4.918,85.125 C4.950,85.221 5.074,85.305 5.290,85.377 C5.506,85.449 5.750,85.501 6.022,85.533 C6.294,85.565 6.566,85.577 6.838,85.569 C7.110,85.561 7.318,85.525 7.462,85.461 C7.622,84.725 7.714,83.805 7.738,82.701 C7.762,81.597 7.798,80.277 7.846,78.741 C7.862,78.117 7.866,77.469 7.858,76.797 C7.850,76.125 7.822,75.465 7.774,74.817 C7.726,74.169 7.658,73.549 7.570,72.957 C7.482,72.365 7.374,71.845 7.246,71.397 C7.486,71.109 8.134,70.997 9.190,71.061 L10.846,71.205 C10.750,71.685 10.658,72.169 10.570,72.657 C10.482,73.145 10.382,73.637 10.270,74.133 C10.222,74.421 10.174,74.829 10.126,75.357 C10.078,75.885 10.038,76.429 10.006,76.989 C9.974,77.549 9.942,78.069 9.910,78.549 C9.878,79.029 9.862,79.373 9.862,79.581 C9.830,80.685 9.842,81.685 9.898,82.581 C9.954,83.477 10.118,84.301 10.390,85.053 C10.294,85.149 10.374,85.229 10.630,85.293 C10.886,85.357 11.182,85.381 11.518,85.365 C11.742,85.349 11.954,85.321 12.154,85.281 C12.354,85.241 12.502,85.173 12.598,85.077 C12.646,84.773 12.694,84.281 12.742,83.601 C12.790,82.921 12.838,82.205 12.886,81.453 C12.934,80.701 12.978,79.985 13.018,79.305 C13.058,78.625 13.086,78.141 13.102,77.853 C13.118,77.309 13.106,76.689 13.066,75.993 C13.026,75.297 12.950,74.509 12.838,73.629 C12.742,72.861 12.470,72.125 12.022,71.421 C12.470,71.261 12.942,71.149 13.438,71.085 C13.934,71.021 14.542,71.005 15.262,71.037 C15.982,71.069 16.686,71.141 17.374,71.253 C16.958,71.717 16.638,72.241 16.414,72.825 C16.190,73.409 15.998,74.037 15.838,74.709 C15.582,75.637 15.430,76.949 15.382,78.645 C15.366,78.981 15.366,79.385 15.382,79.857 C15.398,80.329 15.418,80.849 15.442,81.417 C15.466,81.985 15.494,82.577 15.526,83.193 C15.558,83.809 15.598,84.421 15.646,85.029 C15.662,85.413 15.714,85.761 15.802,86.073 C15.890,86.385 15.982,86.669 16.078,86.925 C16.174,87.181 16.262,87.397 16.342,87.573 C16.422,87.749 16.470,87.893 16.486,88.005 C16.454,88.005 16.222,88.005 15.790,88.005 C15.358,88.005 14.798,88.005 14.110,88.005 C13.422,88.005 12.642,88.005 11.770,88.005 C10.898,88.005 10.002,88.009 9.082,88.017 C8.162,88.025 7.246,88.029 6.334,88.029 C5.422,88.029 4.594,88.029 3.850,88.029 C3.106,88.029 2.466,88.033 1.930,88.041 C1.394,88.049 1.046,88.053 0.886,88.053 C0.902,87.941 0.950,87.797 1.030,87.621 C1.110,87.445 1.198,87.229 1.294,86.973 C1.390,86.717 1.482,86.433 1.570,86.121 C1.658,85.809 1.710,85.461 1.726,85.077 C1.774,84.469 1.814,83.857 1.846,83.241 C1.878,82.625 1.906,82.033 1.930,81.465 C1.954,80.897 1.974,80.377 1.990,79.905 C2.006,79.433 2.006,79.029 1.990,78.693 C1.942,76.997 1.790,75.685 1.534,74.757 ZM43.462,81.933 C44.086,81.933 44.585,82.117 44.962,82.485 C45.337,82.853 45.526,83.341 45.526,83.949 C45.526,85.133 45.085,85.725 44.206,85.725 C43.933,85.725 43.673,85.605 43.426,85.365 C43.177,85.125 43.054,84.869 43.054,84.597 C43.054,84.069 43.333,83.685 43.894,83.445 C43.525,83.397 43.229,83.469 43.006,83.661 C42.701,83.901 42.550,84.237 42.550,84.669 C42.550,85.917 43.069,86.549 44.110,86.565 C44.941,86.581 45.533,85.845 45.886,84.357 C46.030,83.701 46.141,82.661 46.222,81.237 C46.285,80.533 46.342,79.821 46.390,79.101 C46.501,77.725 46.558,76.933 46.558,76.725 C46.558,75.749 46.373,74.829 46.006,73.965 C45.718,73.293 45.221,72.453 44.518,71.445 C45.701,71.445 47.758,71.637 50.686,72.021 C50.477,72.261 50.278,72.501 50.086,72.741 C49.750,73.301 49.582,74.029 49.582,74.925 C49.582,75.437 49.637,76.005 49.750,76.629 C50.230,79.349 50.725,81.485 51.238,83.037 C51.845,84.909 52.678,86.573 53.734,88.029 C53.509,88.061 53.237,88.077 52.918,88.077 C52.853,88.077 51.694,87.997 49.438,87.837 C49.102,87.773 49.069,87.605 49.342,87.333 C49.789,86.885 50.014,86.269 50.014,85.485 C50.014,84.525 49.438,81.853 48.286,77.469 C48.286,77.517 48.197,78.821 48.022,81.381 C47.878,83.445 47.605,85.013 47.206,86.085 C46.630,87.605 45.733,88.365 44.518,88.365 C43.541,88.365 42.725,88.045 42.070,87.405 C41.413,86.765 41.086,85.957 41.086,84.981 C41.086,84.181 41.269,83.493 41.638,82.917 C42.070,82.261 42.677,81.933 43.462,81.933 ZM57.117,80.109 C57.693,80.109 58.165,80.437 58.533,81.093 C58.853,81.653 59.013,82.229 59.013,82.821 C59.013,83.333 58.845,83.909 58.509,84.549 C58.109,85.317 57.669,85.701 57.189,85.701 C56.693,85.701 56.309,85.477 56.037,85.029 C55.781,84.645 55.653,84.197 55.653,83.685 C55.653,83.301 55.765,82.885 55.989,82.437 C56.245,81.909 56.549,81.645 56.901,81.645 C57.221,81.645 57.485,81.853 57.693,82.269 C57.853,82.621 57.933,82.981 57.933,83.349 C57.933,84.245 57.485,84.629 56.589,84.501 C56.829,84.741 57.061,84.861 57.285,84.861 C57.621,84.861 57.877,84.613 58.053,84.117 C58.181,83.765 58.245,83.381 58.245,82.965 C58.245,81.797 57.837,81.213 57.021,81.213 C56.461,81.213 56.013,81.541 55.677,82.197 C55.405,82.725 55.269,83.285 55.269,83.877 C55.269,84.501 55.397,85.013 55.653,85.413 C55.957,85.909 56.405,86.157 56.997,86.157 C58.181,86.157 59.061,84.805 59.637,82.101 C60.005,80.325 60.189,78.445 60.189,76.461 C60.189,74.061 59.389,72.589 57.789,72.045 C58.141,71.869 58.909,71.741 60.093,71.661 C61.101,71.597 61.917,71.581 62.541,71.613 L63.861,71.685 C63.749,73.109 63.693,74.045 63.693,74.493 C63.693,76.061 64.005,78.317 64.629,81.261 C65.317,84.541 66.029,86.637 66.765,87.549 C66.813,87.869 66.197,88.061 64.917,88.125 C64.677,88.141 63.861,88.149 62.469,88.149 C61.829,88.149 61.413,88.061 61.221,87.885 C61.653,87.629 62.009,87.213 62.289,86.637 C62.569,86.061 62.709,85.509 62.709,84.981 C62.709,84.117 62.341,83.685 61.605,83.685 C61.669,83.685 61.445,83.717 60.933,83.781 C60.805,84.037 60.573,84.741 60.237,85.893 C59.965,86.869 59.653,87.581 59.301,88.029 C58.805,88.685 58.117,89.013 57.237,89.013 C56.245,89.013 55.469,88.373 54.909,87.093 C54.445,86.085 54.213,85.013 54.213,83.877 C54.213,83.045 54.477,82.237 55.005,81.453 C55.597,80.557 56.301,80.109 57.117,80.109 ZM61.149,81.645 C61.213,81.709 61.493,81.741 61.989,81.741 C62.133,81.741 62.205,81.589 62.205,81.285 C62.205,80.933 62.117,80.389 61.941,79.653 C61.749,78.805 61.549,78.317 61.341,78.189 C61.341,78.525 61.293,79.029 61.197,79.701 C61.101,80.373 61.053,80.885 61.053,81.237 C61.053,81.445 61.085,81.581 61.149,81.645 ZM79.269,71.637 C79.456,71.695 79.546,71.752 79.565,71.809 C79.513,71.831 79.319,72.202 78.981,72.933 C78.581,73.797 78.381,74.605 78.381,75.357 C78.381,75.693 78.437,76.125 78.549,76.653 C78.709,77.389 78.797,77.829 78.813,77.973 C78.925,77.653 79.365,76.789 80.133,75.381 C80.773,74.213 81.093,73.421 81.093,73.005 C81.093,72.621 80.933,72.269 80.613,71.949 C80.869,71.837 81.629,71.741 82.893,71.661 C83.709,71.613 84.533,71.565 85.365,71.517 C85.141,71.949 84.681,72.569 83.985,73.377 C83.289,74.185 82.805,74.869 82.533,75.429 C82.261,75.989 81.981,76.557 81.693,77.133 C81.389,77.805 81.157,78.413 80.997,78.957 C81.909,79.885 82.365,81.421 82.365,83.565 C82.365,84.237 82.461,84.869 82.653,85.461 C82.909,86.277 83.293,86.669 83.805,86.637 C85.133,86.573 85.797,85.733 85.797,84.117 C85.797,82.805 85.373,82.149 84.525,82.149 C84.141,82.149 83.949,82.461 83.949,83.085 C84.365,83.021 84.677,83.097 84.885,83.313 C85.093,83.529 85.197,83.805 85.197,84.141 C85.197,84.445 85.061,84.749 84.789,85.053 C84.517,85.357 84.221,85.509 83.901,85.509 C83.581,85.509 83.317,85.309 83.109,84.909 C82.933,84.557 82.845,84.213 82.845,83.877 C82.845,83.125 82.981,82.509 83.253,82.029 C83.589,81.421 84.101,81.117 84.789,81.117 C85.525,81.117 86.085,81.445 86.469,82.101 C86.789,82.645 86.949,83.317 86.949,84.117 C86.949,85.333 86.693,86.421 86.181,87.381 C85.557,88.549 84.677,89.133 83.541,89.133 C82.133,89.133 81.141,88.309 80.565,86.661 C80.181,85.589 79.989,84.237 79.989,82.605 C79.989,81.133 79.605,80.117 78.837,79.557 C78.709,79.829 78.573,80.285 78.429,80.925 C78.285,81.565 78.213,82.045 78.213,82.365 C78.213,84.013 78.493,85.365 79.053,86.421 C79.357,86.917 79.661,87.413 79.965,87.909 L79.317,87.909 C78.789,87.909 78.005,87.977 76.965,88.113 C75.925,88.249 75.149,88.317 74.637,88.317 L74.133,88.317 L74.061,88.077 C75.053,87.165 75.549,85.405 75.549,82.797 C75.549,79.981 75.493,78.053 75.381,77.013 C75.093,74.165 74.429,72.573 73.389,72.237 L73.389,72.189 C74.365,72.077 75.341,71.957 76.317,71.829 C77.453,71.701 78.437,71.637 79.269,71.637 ZM91.893,71.397 C93.045,71.397 94.005,72.437 94.773,74.517 C95.445,76.325 95.781,78.229 95.781,80.229 C95.781,81.493 95.693,82.525 95.517,83.325 C95.405,83.757 95.149,84.517 94.749,85.605 C94.429,86.453 94.117,87.069 93.813,87.453 C93.253,88.173 92.525,88.533 91.629,88.533 C90.253,88.533 89.149,87.413 88.317,85.173 C87.677,83.461 87.357,81.789 87.357,80.157 C87.357,78.285 87.677,76.493 88.317,74.781 C89.165,72.525 90.357,71.397 91.893,71.397 ZM92.277,85.269 C92.853,85.269 93.333,84.805 93.717,83.877 C94.021,83.173 94.197,82.461 94.245,81.741 C94.293,81.021 94.189,80.325 93.933,79.653 C93.629,78.901 93.245,78.525 92.781,78.525 C91.773,78.541 91.269,79.301 91.269,80.805 C91.269,81.317 91.389,81.777 91.629,82.185 C91.869,82.593 92.117,82.805 92.373,82.821 C92.757,82.837 93.005,82.557 93.117,81.981 C93.053,82.013 92.917,82.029 92.709,82.029 C92.341,82.029 92.057,81.893 91.857,81.621 C91.657,81.349 91.557,81.021 91.557,80.637 C91.557,80.237 91.665,79.857 91.881,79.497 C92.097,79.137 92.381,78.965 92.733,78.981 C93.485,78.997 93.869,79.725 93.885,81.165 C93.885,81.853 93.781,82.421 93.573,82.869 C93.317,83.445 92.925,83.741 92.397,83.757 C91.709,83.789 91.197,83.437 90.861,82.701 C90.605,82.157 90.485,81.493 90.501,80.709 C90.517,79.797 90.729,79.013 91.137,78.357 C91.545,77.701 92.069,77.373 92.709,77.373 C93.253,77.373 93.693,77.613 94.029,78.093 L94.389,78.597 L94.389,78.045 C94.389,77.293 94.213,76.493 93.861,75.645 C93.413,74.605 92.877,74.085 92.253,74.085 C91.613,74.085 91.061,74.725 90.597,76.005 C90.181,77.173 89.973,78.405 89.973,79.701 C89.989,83.413 90.757,85.269 92.277,85.269 ZM98.157,84.621 C98.381,83.149 98.493,81.765 98.493,80.469 L98.493,77.877 C98.493,76.053 98.109,74.253 97.341,72.477 C97.277,72.349 97.188,72.181 97.077,71.973 C97.044,71.909 96.981,71.821 96.885,71.709 C97.445,71.725 98.253,71.693 99.309,71.613 C100.428,71.549 101.237,71.517 101.733,71.517 C103.572,71.517 104.796,71.933 105.405,72.765 C105.869,73.405 106.116,74.645 106.149,76.485 C106.164,77.301 105.909,78.141 105.381,79.005 C104.789,79.965 104.061,80.565 103.197,80.805 C102.717,80.949 102.237,80.997 101.757,80.949 C101.517,80.981 101.349,81.085 101.253,81.261 C101.141,81.805 101.085,82.373 101.085,82.965 C101.085,84.965 101.508,86.717 102.357,88.221 C102.213,88.285 101.484,88.333 100.173,88.365 C98.477,88.413 97.349,88.501 96.789,88.629 C96.773,88.613 96.765,88.589 96.765,88.557 C96.813,88.445 96.893,88.301 97.005,88.125 C97.469,87.613 97.853,86.445 98.157,84.621 ZM101.397,78.909 C102.036,78.845 102.533,78.525 102.885,77.949 C103.173,77.469 103.317,76.917 103.317,76.293 C103.317,75.717 103.188,75.221 102.933,74.805 C102.612,74.309 102.165,74.061 101.589,74.061 C101.381,74.061 101.148,74.093 100.893,74.157 C100.860,74.605 100.845,74.893 100.845,75.021 C100.845,76.557 101.028,77.853 101.397,78.909 ZM125.876,71.493 C126.900,71.493 127.700,71.941 128.276,72.837 C128.756,73.605 128.996,74.541 128.996,75.645 C128.996,76.397 128.804,77.165 128.420,77.949 C127.956,78.909 127.372,79.389 126.668,79.389 C126.124,79.389 125.676,79.157 125.324,78.693 C124.972,78.229 124.796,77.717 124.796,77.157 C124.796,76.677 124.940,76.181 125.228,75.669 C125.548,75.077 125.924,74.781 126.356,74.781 C126.692,74.781 126.964,74.973 127.172,75.357 C127.380,75.741 127.452,76.141 127.388,76.557 C127.340,76.893 127.224,77.193 127.040,77.457 C126.856,77.721 126.652,77.853 126.428,77.853 C125.932,77.853 125.668,77.557 125.636,76.965 C125.508,77.093 125.444,77.245 125.444,77.421 C125.444,77.693 125.548,77.957 125.756,78.213 C125.964,78.469 126.204,78.597 126.476,78.597 C126.956,78.597 127.364,78.293 127.700,77.685 C127.972,77.157 128.108,76.629 128.108,76.101 C128.108,75.509 127.948,74.997 127.628,74.565 C127.276,74.069 126.812,73.821 126.236,73.821 C125.756,73.821 125.316,74.029 124.916,74.445 C124.644,74.717 124.444,75.013 124.316,75.333 C123.804,76.613 123.548,78.029 123.548,79.581 C123.548,80.749 123.708,81.733 124.028,82.533 C124.460,83.669 125.164,84.237 126.140,84.237 C126.748,84.237 127.212,83.957 127.532,83.397 C127.820,82.917 127.964,82.341 127.964,81.669 C127.964,81.317 127.924,80.997 127.844,80.709 C128.708,81.157 129.140,81.989 129.140,83.205 C129.140,84.437 128.860,85.541 128.300,86.517 C127.628,87.685 126.708,88.269 125.540,88.269 C123.956,88.269 122.732,87.333 121.868,85.461 C121.196,84.021 120.860,82.397 120.860,80.589 C120.860,78.541 121.212,76.653 121.916,74.925 C122.828,72.637 124.148,71.493 125.876,71.493 ZM135.764,71.517 L135.812,71.805 C135.812,72.093 135.740,72.501 135.596,73.029 C135.436,73.637 135.340,74.061 135.308,74.301 C135.180,75.517 135.116,76.717 135.116,77.901 C135.116,78.381 135.396,78.621 135.956,78.621 C136.420,78.621 136.804,78.509 137.108,78.285 L137.108,77.925 C137.108,75.749 136.820,73.917 136.244,72.429 C136.516,72.093 137.580,71.941 139.436,71.973 L140.564,71.997 C139.796,72.781 139.412,75.597 139.412,80.445 C139.412,82.941 139.700,85.077 140.276,86.853 C140.068,87.173 139.428,87.309 138.356,87.261 L136.700,87.189 C136.844,86.197 136.996,85.213 137.156,84.237 C137.316,83.069 137.396,82.077 137.396,81.261 C137.396,80.781 137.332,80.485 137.204,80.373 C136.980,80.165 136.596,80.061 136.052,80.061 C135.396,80.061 135.068,80.549 135.068,81.525 C135.068,82.597 135.204,84.005 135.476,85.749 C135.604,86.533 135.900,87.253 136.364,87.909 C135.500,88.261 134.380,88.437 133.004,88.437 C132.300,88.437 131.596,88.389 130.892,88.293 C131.692,87.301 132.228,86.125 132.500,84.765 C132.708,83.805 132.812,82.493 132.812,80.829 C132.812,79.501 132.684,77.613 132.428,75.165 C132.380,74.669 132.196,74.113 131.876,73.497 C131.556,72.881 131.196,72.469 130.796,72.261 C130.492,72.101 130.356,71.941 130.388,71.781 C131.860,71.525 133.124,71.397 134.180,71.397 C134.788,71.397 135.316,71.437 135.764,71.517 ZM145.940,71.397 C147.092,71.397 148.052,72.437 148.820,74.517 C149.492,76.325 149.828,78.229 149.828,80.229 C149.828,81.493 149.740,82.525 149.564,83.325 C149.452,83.757 149.196,84.517 148.796,85.605 C148.476,86.453 148.164,87.069 147.860,87.453 C147.300,88.173 146.572,88.533 145.676,88.533 C144.300,88.533 143.196,87.413 142.364,85.173 C141.724,83.461 141.404,81.789 141.404,80.157 C141.404,78.285 141.724,76.493 142.364,74.781 C143.212,72.525 144.404,71.397 145.940,71.397 ZM146.324,85.269 C146.900,85.269 147.380,84.805 147.764,83.877 C148.068,83.173 148.244,82.461 148.292,81.741 C148.340,81.021 148.236,80.325 147.980,79.653 C147.676,78.901 147.292,78.525 146.828,78.525 C145.820,78.541 145.316,79.301 145.316,80.805 C145.316,81.317 145.436,81.777 145.676,82.185 C145.916,82.593 146.164,82.805 146.420,82.821 C146.804,82.837 147.052,82.557 147.164,81.981 C147.100,82.013 146.964,82.029 146.756,82.029 C146.388,82.029 146.104,81.893 145.904,81.621 C145.704,81.349 145.604,81.021 145.604,80.637 C145.604,80.237 145.712,79.857 145.928,79.497 C146.144,79.137 146.428,78.965 146.780,78.981 C147.532,78.997 147.916,79.725 147.932,81.165 C147.932,81.853 147.828,82.421 147.620,82.869 C147.364,83.445 146.972,83.741 146.444,83.757 C145.756,83.789 145.244,83.437 144.908,82.701 C144.652,82.157 144.532,81.493 144.548,80.709 C144.564,79.797 144.776,79.013 145.184,78.357 C145.592,77.701 146.116,77.373 146.756,77.373 C147.300,77.373 147.740,77.613 148.076,78.093 L148.436,78.597 L148.436,78.045 C148.436,77.293 148.260,76.493 147.908,75.645 C147.460,74.605 146.924,74.085 146.300,74.085 C145.660,74.085 145.108,74.725 144.644,76.005 C144.228,77.173 144.020,78.405 144.020,79.701 C144.036,83.413 144.804,85.269 146.324,85.269 ZM153.284,81.189 C153.284,77.845 152.595,74.709 151.220,71.781 C151.652,71.701 152.043,71.661 152.396,71.661 C152.972,71.661 154.124,71.677 155.852,71.709 C157.292,71.741 158.451,71.749 159.332,71.733 C159.347,71.925 159.387,72.605 159.452,73.773 C159.500,74.765 159.555,75.397 159.620,75.669 C159.812,76.517 159.827,77.221 159.668,77.781 C159.267,77.061 158.979,76.509 158.804,76.125 C158.132,74.877 157.412,74.253 156.644,74.253 C156.164,74.253 155.835,74.533 155.660,75.093 C155.547,75.845 155.459,76.493 155.396,77.037 C155.315,77.453 155.276,79.589 155.276,83.445 C155.276,84.261 155.355,85.245 155.516,86.397 C155.691,87.629 155.843,88.245 155.972,88.245 C153.507,88.037 151.892,87.933 151.124,87.933 C151.987,87.069 152.579,86.029 152.900,84.813 C153.155,83.869 153.284,82.661 153.284,81.189 ZM165.331,71.397 C166.483,71.397 167.443,72.437 168.211,74.517 C168.883,76.325 169.219,78.229 169.219,80.229 C169.219,81.493 169.131,82.525 168.955,83.325 C168.843,83.757 168.587,84.517 168.187,85.605 C167.867,86.453 167.555,87.069 167.251,87.453 C166.691,88.173 165.963,88.533 165.067,88.533 C163.691,88.533 162.587,87.413 161.755,85.173 C161.115,83.461 160.795,81.789 160.795,80.157 C160.795,78.285 161.115,76.493 161.755,74.781 C162.603,72.525 163.795,71.397 165.331,71.397 ZM165.715,85.269 C166.291,85.269 166.771,84.805 167.155,83.877 C167.459,83.173 167.635,82.461 167.683,81.741 C167.731,81.021 167.627,80.325 167.371,79.653 C167.067,78.901 166.683,78.525 166.219,78.525 C165.211,78.541 164.707,79.301 164.707,80.805 C164.707,81.317 164.827,81.777 165.067,82.185 C165.307,82.593 165.555,82.805 165.811,82.821 C166.195,82.837 166.443,82.557 166.555,81.981 C166.491,82.013 166.355,82.029 166.147,82.029 C165.779,82.029 165.495,81.893 165.295,81.621 C165.095,81.349 164.995,81.021 164.995,80.637 C164.995,80.237 165.103,79.857 165.319,79.497 C165.535,79.137 165.819,78.965 166.171,78.981 C166.923,78.997 167.307,79.725 167.323,81.165 C167.323,81.853 167.219,82.421 167.011,82.869 C166.755,83.445 166.363,83.741 165.835,83.757 C165.147,83.789 164.635,83.437 164.299,82.701 C164.043,82.157 163.923,81.493 163.939,80.709 C163.955,79.797 164.167,79.013 164.575,78.357 C164.983,77.701 165.507,77.373 166.147,77.373 C166.691,77.373 167.131,77.613 167.467,78.093 L167.827,78.597 L167.827,78.045 C167.827,77.293 167.651,76.493 167.299,75.645 C166.851,74.605 166.315,74.085 165.691,74.085 C165.051,74.085 164.499,74.725 164.035,76.005 C163.619,77.173 163.411,78.405 163.411,79.701 C163.427,83.413 164.195,85.269 165.715,85.269 ZM177.247,92.025 C177.511,91.889 177.695,91.685 177.799,91.413 C177.903,91.141 177.931,90.821 177.883,90.453 C177.835,90.085 177.735,89.733 177.583,89.397 C177.431,89.061 177.227,88.773 176.971,88.533 C176.715,88.293 176.427,88.157 176.107,88.125 C176.043,87.789 176.027,87.457 176.059,87.129 C176.091,86.801 176.143,86.505 176.215,86.241 C176.287,85.977 176.371,85.765 176.467,85.605 C176.563,85.445 176.651,85.357 176.731,85.341 L177.619,85.461 C177.939,84.997 178.215,84.417 178.447,83.721 C178.679,83.025 178.851,82.265 178.963,81.441 C179.075,80.617 179.123,79.749 179.107,78.837 C179.091,77.925 178.991,77.009 178.807,76.089 C178.623,75.169 178.359,74.273 178.015,73.401 C177.671,72.529 177.227,71.717 176.683,70.965 C176.875,70.965 177.195,70.969 177.643,70.977 C178.091,70.985 178.583,71.001 179.119,71.025 C179.655,71.049 180.195,71.073 180.739,71.097 C181.283,71.121 181.739,71.157 182.107,71.205 C182.523,71.253 182.963,71.301 183.427,71.349 C183.891,71.397 184.379,71.461 184.891,71.541 C184.779,71.669 184.675,71.789 184.579,71.901 C184.483,72.013 184.387,72.133 184.291,72.261 C183.955,72.821 183.787,73.549 183.787,74.445 C183.787,74.701 183.799,74.969 183.823,75.249 C183.847,75.529 183.891,75.829 183.955,76.149 C184.067,76.821 184.255,77.601 184.519,78.489 C184.783,79.377 185.059,80.253 185.347,81.117 C185.635,81.981 185.907,82.781 186.163,83.517 C186.419,84.253 186.611,84.813 186.739,85.197 L188.203,85.077 C188.267,85.093 188.351,85.181 188.455,85.341 C188.559,85.501 188.647,85.713 188.719,85.977 C188.791,86.241 188.843,86.537 188.875,86.865 C188.907,87.193 188.891,87.525 188.827,87.861 C188.507,87.893 188.219,88.033 187.963,88.281 C187.707,88.529 187.503,88.829 187.351,89.181 C187.199,89.533 187.099,89.901 187.051,90.285 C187.003,90.669 187.031,91.005 187.135,91.293 C187.239,91.581 187.423,91.797 187.687,91.941 C187.951,92.085 188.315,92.085 188.779,91.941 C188.939,91.973 189.027,92.029 189.043,92.109 C189.059,92.189 189.031,92.265 188.959,92.337 C188.887,92.409 188.783,92.469 188.647,92.517 C188.511,92.565 188.363,92.573 188.203,92.541 C187.915,92.525 187.595,92.397 187.243,92.157 C186.891,91.917 186.583,91.593 186.319,91.185 C186.055,90.777 185.859,90.293 185.731,89.733 C185.603,89.173 185.619,88.549 185.779,87.861 C185.651,87.957 185.435,88.033 185.131,88.089 C184.827,88.145 184.475,88.189 184.075,88.221 C183.675,88.253 183.267,88.273 182.851,88.281 C182.435,88.289 182.059,88.285 181.723,88.269 C181.435,88.253 181.143,88.233 180.847,88.209 C180.551,88.185 180.279,88.157 180.031,88.125 C179.783,88.093 179.571,88.057 179.395,88.017 C179.219,87.977 179.099,87.941 179.035,87.909 C179.195,88.597 179.219,89.225 179.107,89.793 C178.995,90.361 178.811,90.849 178.555,91.257 C178.299,91.665 178.003,91.989 177.667,92.229 C177.331,92.469 177.019,92.597 176.731,92.613 C176.571,92.645 176.423,92.637 176.287,92.589 C176.151,92.541 176.047,92.481 175.975,92.409 C175.903,92.337 175.875,92.261 175.891,92.181 C175.907,92.101 175.995,92.045 176.155,92.013 C176.619,92.157 176.983,92.161 177.247,92.025 ZM179.803,85.629 C180.027,85.661 180.283,85.689 180.571,85.713 C180.859,85.737 181.143,85.757 181.423,85.773 C181.703,85.789 181.915,85.797 182.059,85.797 C182.267,85.813 182.483,85.817 182.707,85.809 C182.931,85.801 183.131,85.785 183.307,85.761 C183.483,85.737 183.623,85.701 183.727,85.653 C183.831,85.605 183.883,85.541 183.883,85.461 C183.883,85.221 183.819,84.785 183.691,84.153 C183.563,83.521 183.391,82.761 183.175,81.873 C182.959,80.985 182.715,80.013 182.443,78.957 C182.171,77.901 181.891,76.821 181.603,75.717 C181.507,75.589 181.403,75.505 181.291,75.465 C181.179,75.425 181.063,75.417 180.943,75.441 C180.823,75.465 180.719,75.509 180.631,75.573 C180.543,75.637 180.475,75.709 180.427,75.789 C180.443,75.869 180.463,76.137 180.487,76.593 C180.511,77.049 180.523,77.609 180.523,78.273 C180.523,78.937 180.507,79.657 180.475,80.433 C180.443,81.209 180.383,81.945 180.295,82.641 C180.207,83.337 180.091,83.945 179.947,84.465 C179.803,84.985 179.619,85.333 179.395,85.509 C179.443,85.557 179.579,85.597 179.803,85.629 ZM194.179,71.397 C195.331,71.397 196.291,72.437 197.059,74.517 C197.731,76.325 198.067,78.229 198.067,80.229 C198.067,81.493 197.978,82.525 197.803,83.325 C197.690,83.757 197.434,84.517 197.035,85.605 C196.714,86.453 196.402,87.069 196.099,87.453 C195.538,88.173 194.810,88.533 193.915,88.533 C192.538,88.533 191.434,87.413 190.603,85.173 C189.962,83.461 189.643,81.789 189.643,80.157 C189.643,78.285 189.962,76.493 190.603,74.781 C191.450,72.525 192.643,71.397 194.179,71.397 ZM194.563,85.269 C195.139,85.269 195.619,84.805 196.003,83.877 C196.306,83.173 196.483,82.461 196.531,81.741 C196.579,81.021 196.474,80.325 196.219,79.653 C195.914,78.901 195.530,78.525 195.067,78.525 C194.059,78.541 193.555,79.301 193.555,80.805 C193.555,81.317 193.675,81.777 193.915,82.185 C194.155,82.593 194.402,82.805 194.659,82.821 C195.043,82.837 195.290,82.557 195.403,81.981 C195.338,82.013 195.202,82.029 194.995,82.029 C194.626,82.029 194.342,81.893 194.143,81.621 C193.942,81.349 193.843,81.021 193.843,80.637 C193.843,80.237 193.951,79.857 194.167,79.497 C194.383,79.137 194.666,78.965 195.019,78.981 C195.770,78.997 196.154,79.725 196.171,81.165 C196.171,81.853 196.066,82.421 195.859,82.869 C195.602,83.445 195.211,83.741 194.683,83.757 C193.994,83.789 193.483,83.437 193.147,82.701 C192.890,82.157 192.770,81.493 192.787,80.709 C192.802,79.797 193.015,79.013 193.423,78.357 C193.831,77.701 194.354,77.373 194.995,77.373 C195.538,77.373 195.979,77.613 196.315,78.093 L196.675,78.597 L196.675,78.045 C196.675,77.293 196.498,76.493 196.147,75.645 C195.698,74.605 195.163,74.085 194.539,74.085 C193.898,74.085 193.346,74.725 192.883,76.005 C192.466,77.173 192.259,78.405 192.259,79.701 C192.274,83.413 193.042,85.269 194.563,85.269 Z" class="cls-1"/>
    <path d="M215.812,27.188 C215.874,28.626 216.218,30.094 216.843,31.594 C218.156,34.532 220.186,36.688 222.937,38.063 C224.250,38.751 225.750,39.250 227.437,39.562 C229.624,39.750 231.656,39.532 233.531,38.906 L233.625,38.813 L233.625,39.469 C233.749,41.407 234.312,43.125 235.312,44.625 C236.749,46.938 238.936,48.438 241.875,49.125 C242.062,49.188 242.311,49.219 242.625,49.219 C242.937,49.219 243.155,49.251 243.281,49.313 L243.375,49.313 L244.218,49.313 L244.406,49.219 C244.530,49.219 244.624,49.219 244.687,49.219 C245.937,49.094 247.092,48.782 248.156,48.281 C249.218,47.782 250.155,47.125 250.968,46.312 C251.217,46.000 251.592,45.782 252.093,45.656 C252.468,45.532 252.874,45.595 253.312,45.844 C253.437,45.844 253.608,45.876 253.828,45.938 C254.046,46.000 254.187,46.063 254.250,46.125 L254.156,46.031 C253.530,44.906 253.218,43.813 253.218,42.750 C253.218,42.688 253.249,42.625 253.312,42.563 L253.312,42.469 C253.749,41.282 253.936,40.031 253.875,38.719 C253.875,38.156 253.749,37.375 253.500,36.375 L253.593,36.469 C254.093,36.595 254.906,36.782 256.031,37.031 C257.468,37.157 258.530,37.125 259.218,36.937 C260.655,36.563 261.687,35.719 262.312,34.406 C262.936,33.032 262.936,31.781 262.312,30.656 C261.874,29.719 261.093,29.095 259.968,28.781 C259.467,28.657 258.717,28.594 257.718,28.594 C256.092,28.657 254.499,29.188 252.937,30.187 L252.843,30.187 L252.937,30.094 C254.124,29.156 255.436,27.907 256.875,26.344 C257.937,25.157 258.780,23.906 259.406,22.594 C259.842,21.782 260.156,20.845 260.343,19.781 C260.531,18.656 260.437,17.594 260.062,16.594 C259.312,14.219 257.843,12.469 255.656,11.344 C254.718,10.844 253.687,10.563 252.562,10.500 C250.186,10.312 247.968,11.001 245.906,12.563 C244.343,13.750 243.093,15.250 242.156,17.062 C241.718,17.875 241.343,18.813 241.031,19.875 L240.937,19.969 L240.843,19.875 C238.905,16.375 235.968,14.156 232.031,13.219 C231.780,13.157 231.342,13.063 230.718,12.937 C230.655,12.937 230.625,12.907 230.625,12.844 C230.499,12.407 230.437,11.751 230.437,10.875 C230.437,10.438 230.531,9.970 230.718,9.469 L230.718,9.375 C230.967,9.438 231.281,9.532 231.656,9.656 C232.343,9.782 233.156,9.750 234.093,9.562 C234.468,9.501 235.092,9.281 235.968,8.906 C236.405,8.657 236.531,8.282 236.343,7.781 C236.156,7.282 235.781,7.125 235.218,7.313 L233.812,7.875 C233.499,8.001 232.999,8.063 232.312,8.063 C232.249,8.001 232.139,7.954 231.984,7.922 C231.827,7.891 231.717,7.875 231.656,7.875 L231.937,7.594 C232.500,7.094 233.250,6.750 234.187,6.562 C234.187,6.501 234.249,6.469 234.375,6.469 C234.937,6.344 235.155,6.000 235.031,5.438 C234.905,4.875 234.562,4.657 234.000,4.781 C232.749,5.032 231.593,5.594 230.531,6.469 L230.531,6.562 C230.343,6.313 230.311,6.032 230.437,5.719 C230.437,5.531 230.686,5.125 231.187,4.500 C231.312,4.438 231.436,4.345 231.562,4.219 C231.937,4.031 232.062,3.750 231.937,3.375 C231.937,3.000 231.717,2.751 231.281,2.625 L231.000,2.625 C230.499,2.812 229.999,3.204 229.500,3.797 C228.999,4.392 228.717,5.001 228.656,5.625 C228.593,6.438 228.811,7.219 229.312,7.969 C229.437,8.095 229.437,8.188 229.312,8.250 C228.937,9.000 228.750,9.782 228.750,10.594 C228.687,11.095 228.717,11.782 228.843,12.656 L228.843,12.750 L228.843,12.844 C225.717,12.907 222.905,14.001 220.406,16.125 C220.155,15.876 219.811,15.313 219.375,14.437 L219.093,13.031 L219.093,12.937 L219.843,12.187 C220.968,10.938 221.812,9.844 222.375,8.906 C222.874,8.156 223.218,7.313 223.406,6.375 C223.530,5.812 223.530,5.407 223.406,5.156 C223.218,4.219 222.656,3.907 221.718,4.219 C221.280,4.406 220.842,4.657 220.406,4.969 C218.906,6.157 217.968,7.720 217.593,9.656 C217.406,10.282 217.312,11.219 217.312,12.469 C217.312,12.595 217.343,12.813 217.406,13.125 C217.467,13.438 217.500,13.687 217.500,13.875 C217.812,15.250 218.343,16.375 219.093,17.250 L219.187,17.344 L218.812,17.719 C217.374,19.469 216.405,21.532 215.906,23.906 C215.780,24.782 215.718,25.438 215.718,25.875 L215.718,25.969 L215.718,26.437 C215.718,26.751 215.749,27.000 215.812,27.188 L215.812,27.188 ZM237.421,17.953 C239.765,20.235 240.905,23.062 240.843,26.437 C240.780,29.625 239.625,32.360 237.375,34.641 C235.125,36.923 232.312,38.032 228.937,37.969 C225.750,37.907 223.015,36.735 220.734,34.453 C218.452,32.172 217.343,29.344 217.406,25.969 C217.467,22.844 218.625,20.156 220.875,17.906 C223.125,15.656 225.874,14.531 229.125,14.531 C232.312,14.531 235.078,15.672 237.421,17.953 ZM236.156,41.531 C236.843,41.594 237.593,41.531 238.406,41.344 C239.468,40.969 240.499,40.345 241.500,39.469 C242.374,38.719 243.061,37.594 243.562,36.094 C243.811,35.344 243.999,34.594 244.125,33.844 C244.249,33.344 244.249,32.875 244.125,32.438 C243.937,31.626 243.499,31.094 242.812,30.844 L243.000,30.844 C243.999,30.719 244.875,30.782 245.625,31.031 C245.686,31.031 245.749,31.031 245.812,31.031 L246.000,31.125 C246.312,31.500 246.562,32.001 246.750,32.625 C246.874,33.063 246.937,33.782 246.937,34.781 C246.874,36.094 246.530,37.438 245.906,38.813 C245.093,40.438 243.874,41.751 242.250,42.750 C241.249,43.313 240.155,43.687 238.968,43.875 C238.280,44.001 237.656,43.969 237.093,43.781 C236.655,43.594 236.374,43.345 236.250,43.031 L235.687,41.625 L235.687,41.438 C235.812,41.500 235.968,41.531 236.156,41.531 L236.156,41.531 ZM238.781,45.281 C239.780,45.407 240.593,45.438 241.218,45.375 C242.405,45.250 243.405,45.032 244.218,44.719 C245.967,43.969 247.249,42.813 248.062,41.250 C248.749,40.125 249.187,39.063 249.375,38.063 C249.750,35.751 249.218,33.656 247.781,31.781 L247.875,31.875 C248.812,32.376 249.593,33.000 250.218,33.750 C250.905,34.500 251.374,35.344 251.625,36.281 C251.625,36.344 251.655,36.454 251.718,36.609 C251.780,36.766 251.812,36.876 251.812,36.937 C251.937,38.688 251.686,40.251 251.062,41.625 C250.500,42.937 249.874,43.938 249.187,44.625 C247.812,45.938 246.312,46.750 244.687,47.063 C243.624,47.313 242.437,47.344 241.125,47.156 L240.281,46.875 C239.280,46.375 238.437,45.782 237.750,45.094 L237.750,45.000 C237.937,45.063 238.280,45.157 238.781,45.281 L238.781,45.281 ZM241.500,33.000 C240.999,35.125 240.061,36.907 238.687,38.344 C237.999,39.032 237.342,39.532 236.718,39.844 C236.217,39.970 235.875,40.031 235.687,40.031 C235.500,39.970 235.406,39.844 235.406,39.656 L235.406,38.531 C235.406,38.470 235.437,38.438 235.500,38.438 C236.686,37.750 237.750,36.937 238.687,36.000 C239.874,34.688 240.811,33.313 241.500,31.875 L241.500,31.781 L241.593,31.781 C241.593,32.344 241.561,32.751 241.500,33.000 L241.500,33.000 ZM221.437,7.031 C221.062,7.781 220.749,8.313 220.500,8.625 C220.374,8.875 220.155,9.173 219.843,9.516 C219.530,9.860 219.342,10.063 219.281,10.125 L219.281,10.219 C219.155,9.844 219.405,9.094 220.031,7.969 C220.655,7.094 221.187,6.501 221.625,6.187 L221.718,6.187 L221.437,7.031 ZM220.968,31.406 C221.718,32.657 222.624,33.625 223.687,34.312 C224.686,35.062 225.843,35.438 227.156,35.438 C228.218,35.438 229.249,35.188 230.250,34.688 C231.061,34.375 231.843,33.844 232.593,33.094 C233.531,32.032 234.061,30.719 234.187,29.156 C234.249,28.532 234.249,27.844 234.187,27.094 L234.187,26.344 L234.093,26.344 C231.905,27.595 230.625,28.312 230.250,28.500 C228.375,29.438 226.406,30.187 224.343,30.750 C223.280,31.000 222.375,31.157 221.625,31.219 C221.562,31.219 221.452,31.235 221.296,31.266 C221.140,31.298 221.030,31.313 220.968,31.313 L220.968,31.406 ZM229.781,33.938 C228.656,34.375 227.531,34.563 226.406,34.500 C226.530,34.125 226.655,33.876 226.781,33.750 C227.280,32.938 228.124,32.376 229.312,32.063 C230.062,31.875 230.874,31.875 231.750,32.063 L232.125,32.063 C231.499,32.812 230.718,33.438 229.781,33.938 L229.781,33.938 ZM227.343,22.500 C227.718,23.001 228.030,23.313 228.281,23.438 C228.843,23.751 229.312,23.657 229.687,23.156 C229.875,22.969 230.030,22.688 230.156,22.312 C230.343,21.375 230.187,20.407 229.687,19.406 C229.500,18.970 229.186,18.625 228.750,18.375 C228.187,18.000 227.686,18.094 227.250,18.656 L227.156,18.844 C227.093,18.844 227.062,18.876 227.062,18.937 C226.875,19.375 226.781,19.844 226.781,20.344 C226.781,21.094 226.968,21.813 227.343,22.500 L227.343,22.500 ZM219.093,25.406 C219.281,25.907 219.593,26.282 220.031,26.531 C220.593,26.719 221.062,26.625 221.437,26.250 C221.625,26.001 221.749,25.750 221.812,25.500 C222.000,24.563 221.906,23.657 221.531,22.781 C221.156,22.157 220.842,21.750 220.593,21.562 C220.280,21.375 219.937,21.313 219.562,21.375 C219.312,21.438 219.061,21.656 218.812,22.031 C218.625,22.532 218.531,23.001 218.531,23.438 C218.531,24.187 218.718,24.844 219.093,25.406 L219.093,25.406 Z" class="cls-1"/>
  </g>
</svg>
