<?xml version="1.0" encoding="utf-8"?>
<!-- Svg Vector Icons : http://www.onlinewebfonts.com/icon -->
<!DOCTYPE svg PUBLIC "-//W3C//DTD SVG 1.1//EN" "http://www.w3.org/Graphics/SVG/1.1/DTD/svg11.dtd">
<svg version="1.1" xmlns="http://www.w3.org/2000/svg" xmlns:xlink="http://www.w3.org/1999/xlink" x="0px" y="0px" viewBox="0 0 1000 1000" enable-background="new 0 0 1000 1000" xml:space="preserve">
<metadata> Svg Vector Icons : http://www.onlinewebfonts.com/icon </metadata>
<g><g transform="translate(0.000000,511.000000) scale(0.100000,-0.100000)"><path d="M8516.8,5001.7c0-6.1-391.2-1311.3-871.5-2900.3C7167,512.5,6773.8-798.9,6773.8-813.1c0-24.3,458-174.3,533-174.3c18.2,0,38.5,34.5,52.7,95.3c14.2,54.7,366.8,1353.9,784.3,2890.2C8561.4,3534.4,8908,4815.3,8914,4847.7c12.2,54.7,10.1,56.8-178.3,109.4C8535,5013.9,8516.8,5017.9,8516.8,5001.7z" fill="#371313"/><path d="M4422.8,3114.8c-28.4-4-141.9-22.3-253.3-40.5c-958.7-152-1876.8-747.9-2432.1-1578.8C1413,1011,1256.9,611.8,1137.3-30.7c-54.7-300-60.8-362.8-52.7-658.7c12.2-565.5,170.3-1222.1,411.4-1700.4c210.8-421.6,597.9-837.1,936.4-1009.3c358.7-182.4,672.9-148,1124.9,121.6c401.3,239.2,709.4,553.3,893.8,912c50.7,95.3,154,336.4,233.1,535.1c164.2,415.5,212.8,506.7,320.2,599.9c111.5,99.3,233.1,143.9,413.4,156.1c178.3,14.2,302-6.1,668.8-107.4c139.9-38.5,265.5-68.9,275.7-68.9c18.2,0,95.3,222.9,81.1,235.1S5651-825.2,5565.8-813.1c-150,18.2-372.9-26.3-533-105.4c-265.5-131.7-393.2-320.2-595.8-869.5c-48.7-133.8-113.5-293.9-145.9-354.7c-198.6-397.2-527-739.8-922.2-962.7c-261.5-147.9-484.4-186.5-705.3-121.6c-233.1,68.9-575.6,364.8-780.3,672.9c-204.7,308.1-415.5,837.1-488.5,1220.1C1259-616.5,1348.1,155.7,1646.1,836.7c350.6,804.6,1084.3,1493.7,1943.7,1826.1c397.3,154,776.3,220.9,1248.5,222.9c828.9,0,1564.7-265.5,2259.8-816.8l222.9-178.3l30.4,73c54.7,131.7,42.6,178.3-75,281.7c-291.8,255.4-867.5,575.6-1274.8,707.3c-389.1,127.7-604,160.1-1092.4,166.2C4670,3120.9,4451.1,3118.9,4422.8,3114.8z" fill="#371313"/><path d="M5314.5,2446c-123.6-32.4-247.3-111.5-310.1-194.6c-87.2-117.6-58.8-379,52.7-476.3c60.8-52.7,243.2-160.1,506.7-297.9l216.9-113.5l148,12.2c172.3,14.2,251.3,40.5,279.7,93.2c12.2,20.3,52.7,152,89.2,291.9c64.9,235.1,68.9,259.4,40.5,312.1c-22.3,44.6-48.6,60.8-115.5,70.9c-135.8,22.3-324.3,101.3-543.2,222.9c-109.5,60.8-210.8,111.5-225,109.4C5438.1,2476.4,5375.3,2462.2,5314.5,2446z" fill="#371313"/><path d="M3356.7,2133.9c-24.3-10.1-83.1-87.1-131.7-174.3c-48.6-87.1-105.4-186.5-123.6-218.9c-20.3-34.5-36.5-79-36.5-101.3c0-48.6,348.6-405.4,460.1-472.2c99.3-56.7,409.4-147.9,508.7-147.9c81.1,0,158.1,38.5,233.1,115.5c73,79,95.3,160.1,73,281.7c-20.3,105.4-56.7,170.2-143.9,259.4c-32.4,32.4-81.1,101.3-107.4,154c-28.4,54.7-75,115.5-107.4,137.8c-44.6,34.5-531,190.5-571.6,184.4C3403.3,2152.1,3379,2144,3356.7,2133.9z" fill="#371313"/><path d="M8133.7,1027.2c-58.8-152-54.7-210.8,28.4-476.3c131.7-417.5,139.8-772.2,26.3-1011.3c-66.9-139.9-229-287.8-405.4-372.9c-85.1-40.5-162.1-85.1-174.3-99.3c-28.4-32.4-85.1-255.4-68.9-265.5S7927-1038,8054.7-963c218.9,131.7,368.9,352.7,433.7,638.4c42.6,194.6,30.4,535.1-28.4,758c-46.6,172.3-249.3,707.3-269.6,707.3C8184.4,1140.7,8158.1,1090.1,8133.7,1027.2z" fill="#371313"/><path d="M2055.5,875.2c-93.2-46.6-174.3-137.8-208.8-237.1c-18.2-52.7-12.2-79,44.6-196.6c58.8-121.6,62.8-148,54.7-273.6c-14.2-184.4,8.1-214.8,162.1-235.1c158.1-18.3,251.3-54.7,360.8-139.9c52.7-38.5,117.5-70.9,143.9-70.9c28.4,0,87.1,34.5,143.9,87.1c52.7,48.6,123.6,99.3,158.1,113.5c123.6,48.6,332.4,326.3,332.4,443.9c0,62.8-8.1,68.9-145.9,133.8c-99.3,46.6-180.4,103.4-249.3,174.3c-123.6,127.7-168.2,152-370.9,202.7C2278.4,930,2162.9,927.9,2055.5,875.2z"/><path d="M5344.9,605.7c-322.3-73-476.3-222.9-476.3-460.1c0-148,60.8-265.5,220.9-425.6c208.8-206.7,462.1-302,743.8-275.6c304,28.4,498.6,198.6,529,460.1c24.3,204.7-89.2,411.4-308.1,557.4C5837.4,607.7,5580,658.4,5344.9,605.7z M5689.5,360.4c295.9-77,492.5-320.2,407.4-500.6c-68.9-143.9-277.7-206.7-498.6-150c-204.7,52.7-370.9,172.3-447.9,320.2c-81.1,156.1-24.3,253.3,176.3,310.1c66.9,18.2,129.7,36.5,139.8,40.5C5509.1,394.9,5573.9,388.8,5689.5,360.4z" fill="#371313"/><path d="M2102.1-845.5c-99.3-56.7-188.5-113.5-196.6-127.7c-28.4-44.6-16.2-139.9,44.6-336.5c32.4-107.4,81.1-279.7,109.4-385.1c54.7-202.7,91.2-257.4,243.2-368.9c42.6-32.4,95.3-58.8,115.5-58.8c107.4,0,547.2,490.5,577.6,644.5c18.2,85.1-95.3,289.8-210.8,385.1c-48.7,42.6-127.7,107.4-172.3,147.9c-113.5,97.3-269.6,200.7-302,200.7C2296.7-744.1,2203.4-790.8,2102.1-845.5z" fill="#371313"/><path d="M6686.6-1082.6c-18.2-34.5-405.4-1343.7-397.3-1349.8c12.2-10.1,593.9-174.3,599.9-168.2c14.2,14.2,370.9,1355.9,362.8,1364c-6.1,6.1-117.5,40.5-247.3,79c-131.7,38.5-255.4,73-273.6,79.1C6711-1072.5,6692.7-1074.5,6686.6-1082.6z" fill="#371313"/><path d="M5971.2-2710.1c-97.3-68.9-176.3-178.3-216.9-293.9c-16.2-44.6-40.5-237.1-52.7-425.6c-36.5-518.8-75-824.9-143.9-1102.6c-34.5-137.8-58.8-253.3-56.7-257.4c14.2-12.2,466.2,227,624.2,332.4c196.6,129.7,486.4,401.3,622.2,581.7c188.5,247.3,257.4,486.4,212.8,741.8c-28.4,162.1-66.9,251.3-125.7,281.7c-64.9,34.5-670.8,202.7-729.6,202.7C6076.6-2649.3,6015.8-2675.6,5971.2-2710.1z" fill="#371313"/></g></g>
</svg>