<?xml version="1.0" encoding="utf-8"?>
<!-- Svg Vector Icons : http://www.onlinewebfonts.com/icon -->
<!DOCTYPE svg PUBLIC "-//W3C//DTD SVG 1.1//EN" "http://www.w3.org/Graphics/SVG/1.1/DTD/svg11.dtd">
<svg version="1.1" xmlns="http://www.w3.org/2000/svg" xmlns:xlink="http://www.w3.org/1999/xlink" x="0px" y="0px" viewBox="0 0 1000 1000" enable-background="new 0 0 1000 1000" xml:space="preserve">
<metadata> Svg Vector Icons : http://www.onlinewebfonts.com/icon </metadata>
<g><g><path d="M433.2,398.9c0-38.9,31.5-70.4,70.4-70.4c38.9,0,70.4,31.5,70.4,70.4c0,38.9-31.5,70.4-70.4,70.4S433.2,437.7,433.2,398.9L433.2,398.9z M710.6,296.2c-12.8-4.9-27.1,1.5-31.9,14.3l-48.1,125.7l-92.9,65.7c-0.3,0-0.5-0.1-0.8-0.1h-31.7h-31.7c-0.3,0-0.5,0.1-0.8,0.1l-92.9-65.7l-48.1-125.7c-4.9-12.8-19.2-19.1-31.9-14.3c-12.8,4.9-19.2,19.2-14.3,31.9l50.8,132.7c1.7,4.6,4.8,8.5,8.8,11.4l109.1,77.2v211.7c0.1,7.1,3.2,23.9-4.9,40.5l-79.1,152.3c-6.3,12.1-1.6,27,10.6,33.4c3.6,1.9,7.5,2.8,11.4,2.8c8.9,0,17.6-4.9,22-13.4l86.6-166.7c1.5,0.1,2.9,0.2,4.4,0.2s3-0.1,4.4-0.2l86.6,166.7c4.4,8.5,13,13.4,22,13.4c3.8,0,7.7-0.9,11.4-2.8c12.1-6.3,16.9-21.2,10.6-33.4l-79.1-152.3c-8.1-16.6-5-33.4-4.9-40.5V549.4l109.1-77.2c4-2.8,7.1-6.8,8.8-11.4l50.8-132.7C729.7,315.4,723.3,301.1,710.6,296.2z M720.6,158.5V22.6c0-6.9-5.6-12.6-12.5-12.6c-6.9,0-12.6,5.6-12.6,12.6v135.9c-28,5.8-49.1,30.7-49.1,60.4c0,34,27.7,61.7,61.7,61.7c34,0,61.7-27.7,61.7-61.7C769.8,189.2,748.7,164.3,720.6,158.5z M708.1,255.5c-20.2,0-36.6-16.4-36.6-36.6c0-20.2,16.4-36.6,36.6-36.6c20.2,0,36.6,16.4,36.6,36.6C744.7,239.1,728.3,255.5,708.1,255.5z M304.5,158.5V22.6c0-6.9-5.6-12.6-12.6-12.6s-12.6,5.6-12.6,12.6v135.9c-28,5.8-49.1,30.7-49.1,60.4c0,34,27.7,61.7,61.7,61.7c34,0,61.7-27.7,61.7-61.7C353.6,189.2,332.5,164.3,304.5,158.5z M291.9,255.5c-20.2,0-36.6-16.4-36.6-36.6c0-20.2,16.4-36.6,36.6-36.6c20.2,0,36.6,16.4,36.6,36.6C328.5,239.1,312.1,255.5,291.9,255.5z"/></g><g></g><g></g><g></g><g></g><g></g><g></g><g></g><g></g><g></g><g></g><g></g><g></g><g></g><g></g><g></g></g>
</svg>