<?xml version="1.0" encoding="utf-8"?>
<!-- Svg Vector Icons : http://www.onlinewebfonts.com/icon -->
<!DOCTYPE svg PUBLIC "-//W3C//DTD SVG 1.1//EN" "http://www.w3.org/Graphics/SVG/1.1/DTD/svg11.dtd">
<svg version="1.1" xmlns="http://www.w3.org/2000/svg" xmlns:xlink="http://www.w3.org/1999/xlink" x="0px" y="0px" viewBox="0 0 1000 1000" enable-background="new 0 0 1000 1000" xml:space="preserve">
<metadata> Svg Vector Icons : http://www.onlinewebfonts.com/icon </metadata>
<g><g transform="translate(0.000000,511.000000) scale(0.100000,-0.100000)"><path d="M1538,4044.2c-63.9-30.7-360.1-309-758.5-710c-554.2-556.8-656.4-671.7-671.7-750.9c-35.8-191.6,53.6-355,229.9-413.7l102.2-35.8l12.8-2870.7c15.3-3243.6-2.6-2990.8,217.1-3087.8c104.7-46,183.9-48.5,1946.2-43.4l1833.8,7.7l12.8,911.8l12.8,909.2l76.6,109.8c114.9,163.5,265.6,232.4,475,222.2c217.1-12.8,349.9-97.1,444.4-283.5l63.8-130.3v-876v-876H7374c2012.6,0,1984.5-2.5,2086.6,148.1c43.4,66.4,46,224.7,58.7,2967.8l12.8,2896.2l81.7,17.9c120,23,199.2,84.3,247.7,183.9c53.6,117.5,51.1,201.8-7.7,319.2c-28.1,51.1-339.7,383.1-697.2,735.6c-702.4,699.8-756,738.1-945,676.8c-58.7-20.4-291.1-235-779-725.3c-763.6-766.2-768.8-771.3-684.5-983.3c46-112.4,168.6-209.4,265.6-209.4c53.6,0,53.6-5.1,53.6-613v-613h-280.9c-321.8,0-390.8-23-503.1-171.1c-61.3-79.2-74.1-120-81.7-293.7l-7.7-199.2h-186.4h-183.9l-12.8,189c-15.3,217.1-69,329.5-199.2,416.3c-81.7,56.2-107.3,58.7-613,58.7c-505.7,0-531.2-2.6-615.5-58.7c-127.7-84.3-201.8-247.7-201.8-444.4V264.2h-191.6h-191.5v153.2c0,204.3-58.7,344.8-186.4,436.7c-99.6,71.5-112.4,74.1-393.3,74.1H2930v613c0,605.3,0,613,53.6,613c160.9,0,321.8,222.2,288.6,401c-12.8,84.3-104.7,186.4-697.2,784.1c-372.9,375.4-715.1,699.8-761.1,720.2C1704,4108,1658.1,4105.5,1538,4044.2z M2776.7,2557.7c0-12.8-56.2-20.4-127.7-20.4h-127.7v-996.1V545.2l429.1-5.1l426.5-7.7l7.7-337.1l7.7-339.7h597.6h597.6l7.7,339.7l7.7,337.1h395.9h395.9l7.7-337.1l7.7-339.7h597.7h597.6l7.7,339.7l7.7,337.1l429.1,7.7l426.5,5.1v996.1v996.1h-127.7c-69,0-127.7,7.7-127.7,20.4c0,10.2,245.2,263.1,544,561.9l541.5,541.5l561.9-561.9l561.9-561.9h-153.2h-153.2V920.6V-693.5l-4129.9-7.7l-4132.4-5.1V915.5v1621.8H715.6H567.5l561.9,561.9l561.9,561.9l541.5-541.5C2531.5,2820.8,2776.7,2567.9,2776.7,2557.7z M9123.5-2289.8v-1162.1l-1588.6-7.7l-1588.6-5.1l-7.7,733c-7.7,733-7.7,735.6-74.1,876c-99.6,209.4-252.8,367.8-452,464.8c-155.8,76.6-189,84.3-413.8,84.3c-209.4,0-263.1-10.2-388.2-69c-201.8-94.5-362.7-250.3-462.3-452.1l-81.7-168.6l-7.7-733l-7.7-735.6H2457.5H861.2v1174.9v1174.8l4132.4-5.1l4129.9-7.7V-2289.8z"/><path d="M1492.1,2041.8c-153.2-56.2-273.3-166-339.7-306.5c-56.2-120-61.3-163.5-61.3-533.8c0-590,15.3-605.3,610.4-605.3c372.9,0,383.1,2.6,459.7,66.4c114.9,97,137.9,206.9,125.1,613c-10.2,380.5-33.2,457.2-171.1,605.3C1967.1,2041.8,1686.2,2115.9,1492.1,2041.8z M1808.8,1620.4c56.2-46,61.3-71.5,69-332l10.2-283.5h-194.1h-194.1v278.4c0,270.7,2.6,280.9,66.4,332C1650.4,1681.7,1732.1,1684.3,1808.8,1620.4z"/><path d="M8165.7,2054.6c-196.7-61.3-378-229.9-429.1-408.6c-17.9-53.6-30.7-255.4-30.7-449.5c0-567,33.2-600.2,600.2-600.2c579.8,0,600.2,20.4,600.2,618.1c0,324.4-10.2,408.6-48.5,495.5C8737.8,1972.9,8421.1,2131.2,8165.7,2054.6z M8431.4,1615.3c63.9-51.1,66.4-61.3,66.4-332v-278.4h-191.6h-191.6v268.2c0,252.8,5.1,273.3,63.9,332C8255.1,1681.7,8342,1686.8,8431.4,1615.3z"/></g></g>
</svg>