<?xml version="1.0" encoding="utf-8"?>
<!-- Svg Vector Icons : http://www.onlinewebfonts.com/icon -->
<!DOCTYPE svg PUBLIC "-//W3C//DTD SVG 1.1//EN" "http://www.w3.org/Graphics/SVG/1.1/DTD/svg11.dtd">
<svg version="1.1" xmlns="http://www.w3.org/2000/svg" xmlns:xlink="http://www.w3.org/1999/xlink" x="0px" y="0px" viewBox="0 0 1000 1000" enable-background="new 0 0 1000 1000" xml:space="preserve">
<metadata> Svg Vector Icons : http://www.onlinewebfonts.com/icon </metadata>
<g><path d="M554,91c-15.7-1.8-31.6-2.7-47.6-2.7c-230.6,0-419.6,190-428.5,429.5l18.9-27.9C44.8,511.4,10,563.9,10,623.2c0,79.2,61.6,143.4,137.6,143.4c3.8,0,7.6-0.2,11.4-0.5l-2.4-31.2L130.2,750C205,892,348.1,982.1,506.3,982.1c156.2,0,297.8-87.9,373.4-227L853.9,771c75.4-0.9,136.1-64.8,136.1-143.4c0-52.4-27.2-99.8-70.2-125l15.3,26.9c-1.1-93.5-30-182.6-81.7-256.7c-9.7-14-28.5-17.1-41.9-6.9c-13.4,10.2-16.4,29.7-6.6,43.7c44.5,63.8,69.2,140.2,70.2,220.7l0.2,18l15.1,8.8c24.3,14.2,39.6,41,39.6,70.5c0,44.3-34.2,80.4-76.7,80.9l-17.3,0.2l-8.5,15.7c-65,119.7-186.7,195.3-321.1,195.3c-136.1,0-259.1-77.5-323.5-199.7l-9.4-17.8l-19.4,1.6c-2.1,0.2-4.3,0.3-6.5,0.3c-42.9,0-77.6-36.2-77.6-80.9c0-33.4,19.6-63,48.9-75.2l18.1-7.5l0.8-20.3c7.6-205.9,170.2-369.3,368.5-369.3c13.9,0,27.6,0.8,41,2.3c16.5,1.9,31.3-10.5,33.1-27.6C582.3,108.3,570.4,92.9,554,91L554,91z M705.3,655.4c-1.8,3.8-3.8,7.6-5.9,11.6C658.8,741,583.3,787.6,500,787.6c-87.8,0-166.7-51.9-205.4-132.3c-7.4-15.4-25.5-21.7-40.3-14c-14.8,7.7-20.8,26.5-13.4,42c48.7,101.4,148.3,166.8,259,166.8c105,0,200.3-58.8,251.5-152.1c2.7-5,5.3-9.9,7.6-14.8c7.4-15.5,1.3-34.2-13.5-41.9C730.7,633.6,712.7,639.9,705.3,655.4L705.3,655.4z M642.7,80.4c20.9,0.4,40.8,9,56.1,24.6c32.1,33.1,32.4,87.1,0.7,120.6c-31.8,33.5-83.6,33.8-115.7,0.7c-11.8-12.1-30.8-12-42.4,0.3c-11.6,12.3-11.5,32.1,0.2,44.2c55.7,57.4,145.5,56.9,200.6-1.2c55.1-58.1,54.6-151.7-1.2-209.1c-26.3-27.1-61-42-97.2-42.7c-16.6-0.3-30.2,13.5-30.5,30.7C613,65.9,626.2,80.1,642.7,80.4L642.7,80.4z M723.4,473.7c11.1,11.4,18,27.2,18,44.7c0,34.5-26.9,62.6-60,62.6s-60-28-60-62.6c0-34.5,26.9-62.6,60-62.6C697.7,455.8,712.5,462.6,723.4,473.7z M365.7,473.7c11.1,11.4,18,27.2,18,44.7c0,34.5-26.9,62.6-60,62.6c-33.1,0-60-28-60-62.6c0-34.5,26.9-62.6,60-62.6C340.1,455.8,354.9,462.6,365.7,473.7z"/></g>
</svg>