<?xml version="1.0" encoding="utf-8"?>
<!-- Svg Vector Icons : http://www.onlinewebfonts.com/icon -->
<!DOCTYPE svg PUBLIC "-//W3C//DTD SVG 1.1//EN" "http://www.w3.org/Graphics/SVG/1.1/DTD/svg11.dtd">
<svg version="1.1" xmlns="http://www.w3.org/2000/svg" xmlns:xlink="http://www.w3.org/1999/xlink" x="0px" y="0px" viewBox="0 0 1000 1000" enable-background="new 0 0 1000 1000" xml:space="preserve">
<metadata> Svg Vector Icons : http://www.onlinewebfonts.com/icon </metadata>
<g><g transform="translate(0.000000,512.000000) scale(0.100000,-0.100000)"><path d="M1537.1,4992.1c-109.5-59.6-123-105.7-119.2-432.4c13.5-1324.2,715-2423.6,1918.1-3007.9c249.9-121.1,651.5-278.7,715-278.7c19.2,0-34.6-38.4-119.2-82.6c-84.6-46.1-184.5-101.9-221-124.9c-63.4-38.4-90.3-42.3-407.5-42.3h-338.3l-142.2,75c-384.4,205.7-1057.1,347.9-1654.8,347.9c-205.6,0-207.6,0-226.8-50c-90.3-242.2-46.1-951.4,92.3-1429.9c176.8-618.9,482.4-1020.6,934.1-1232c65.4-28.8,201.8-76.9,303.7-105.7l184.5-51.9l21.1-242.2c42.3-461.3,153.8-845.7,369-1285.8c359.4-734.2,930.2-1351.1,1528-1647.1c497.8-247.9,897.6-242.1,1364.6,19.2c542,303.7,1072.5,907.2,1410.7,1604.8c219.1,455.5,326.7,834.1,370.9,1308.9l21.1,242.2l184.5,51.9c334.4,94.2,563.1,224.9,763,440.1c349.8,372.9,545.8,924.5,605.4,1695.2c23.1,299.8,13.4,430.5-44.2,584.3l-40.4,103.8l-319.1-11.5c-616.9-25-1172.4-151.8-1533.7-349.8l-123-67.3h-340.2c-317.1,0-344,3.8-407.5,42.3c-36.5,23.1-136.4,78.8-221,124.9c-84.6,44.2-138.4,82.6-119.2,82.6c65.4,0,557.4,194.1,764.9,299.8c903.3,461.3,1501.1,1182,1747.1,2112.2c86.5,322.9,119.2,565.1,123,884.1c1.9,249.9-1.9,296-32.7,340.2c-75,107.6-272.9,146.1-392.1,73c-109.6-67.3-117.2-94.2-128.8-451.7c-9.6-321-38.4-518.9-115.3-786.1c-30.7-101.9-34.6-107.6-74.9-86.5c-84.6,46.1-249.9,222.9-351.7,374.8c-124.9,186.4-234.5,420.9-324.8,688.1c-73,211.4-117.2,271-230.6,292.1c-103.8,19.2-198-7.7-274.8-78.8c-67.3-59.6-71.1-71.1-69.2-176.8c0-78.8,21.2-167.2,73.1-303.7c238.3-630.4,568.9-1087.8,943.7-1306.9c32.7-19.2,30.7-25-15.4-100c-65.4-103.8-209.5-280.6-317.1-394c-80.7-84.6-88.4-88.4-146.1-67.3c-165.3,55.7-401.7,265.2-536.2,476.6c-107.6,169.1-217.2,399.8-290.2,615c-88.4,251.8-98,272.9-165.3,311.3c-69.2,40.4-232.5,42.3-309.4,3.9c-73-38.4-132.6-134.5-132.6-215.3c0-153.8,244.1-726.5,434.3-1018.6c103.8-159.5,374.8-453.6,497.8-540.1l57.7-40.4l-259.5-124.9c-301.8-146.1-559.3-236.4-887.9-317.1c-392.1-94.2-511.2-109.6-684.2-80.7c-223,36.5-595.8,130.7-816.8,205.7c-223,76.9-749.6,326.7-740,353.6c3.8,9.6,65.3,67.3,138.4,128.8c226.8,188.3,470.9,540.1,626.6,905.2c92.3,215.3,192.2,515.1,192.2,578.5c0,119.2-153.8,249.9-294.1,251.8c-76.9,0-178.7-48-211.4-99.9c-17.3-23.1-55.7-126.8-90.3-226.8c-126.9-384.4-324.8-734.2-526.6-932.1c-124.9-121.1-301.8-230.6-347.9-215.3c-38.4,15.4-269.1,290.2-369,442.1l-88.4,132.6l84.6,75c46.1,40.4,90.3,73,98,75c36.5,1.9,326.7,382.5,432.4,568.9c121.1,213.3,288.3,607.3,334.4,791.8c23.1,92.3,21.1,107.6-9.6,167.2c-46.1,84.6-173,148-297.9,148c-149.9,0-180.7-32.7-261.4-274.8c-80.7-240.2-224.9-543.9-334.4-705.4c-99.9-148-253.7-317.1-271-297.9c-23.1,25-92.3,344-115.3,532.4c-11.5,92.3-19.2,265.2-17.3,384.4c3.8,244.1-13.5,292.1-126.9,345.9C1758.1,5028.6,1604.4,5028.6,1537.1,4992.1z M5417.5,840.6c451.7-107.6,793.8-346,1141.7-791.8c84.6-109.6,155.7-198,159.5-198c3.8,0,78.8,103.8,163.4,230.6c88.4,128.8,203.7,272.9,265.2,326.7c173,153.8,455.5,282.5,820.7,372.9c144.2,34.6,484.3,88.4,565.1,88.4h59.6V742.6c0-284.4-132.6-726.5-305.6-1022.5c-240.2-411.3-561.2-584.3-1170.5-628.5l-178.7-13.4l15.4-196c36.5-449.7,5.8-722.7-130.7-1135.9c-309.4-953.3-1043.6-1829.7-1649.1-1970c-148-34.6-336.3-13.5-497.8,53.8c-670.8,282.5-1405,1328.1-1601,2279.4c-44.2,215.3-53.8,478.6-30.8,772.6l15.4,196l-178.7,13.4c-467,34.6-768.8,146.1-968.7,361.3c-271,288.3-474.7,786.1-501.6,1230l-11.5,186.4h75c180.7,0,688.1-107.6,911-194.1C2722.9,546.6,2894,408.2,3115,81.5c84.6-126.9,159.5-230.6,161.4-230.6c3.8,0,80.7,92.3,171,207.6c88.4,113.4,223,263.3,297.9,332.5c255.6,242.2,599.7,413.2,945.6,469C4885.2,892.5,5238.8,882.9,5417.5,840.6z"/><path d="M4047.2-887.2c-96.1-44.2-148-115.3-159.5-219.1c-15.4-169.1,94.2-292.1,261.4-292.1c159.5,0,272.9,107.6,272.9,259.5C4422-946.8,4216.3-808.4,4047.2-887.2z"/><path d="M5728.9-894.9c-257.5-128.8-173-503.6,115.3-503.6c173,0,280.6,121.1,265.2,292.1c-11.5,105.7-63.4,176.8-163.4,219.1C5863.4-852.6,5809.6-852.6,5728.9-894.9z"/><path d="M4741-1859.7c-138.4-50-246-121.1-351.7-236.4c-282.5-305.6-276.8-778.4,13.5-1095.5c321-351.7,880.3-347.9,1197.4,5.8c374.8,417.1,240.2,1053.2-269.1,1293.5C5156.2-1811.7,4915.9-1798.2,4741-1859.7z M4994.7-2263.3c240.2-148,140.3-518.9-142.2-518.9c-284.4,0-376.7,394-121.1,522.8C4817.9-2213.4,4915.9-2215.3,4994.7-2263.3z"/></g></g>
</svg>