<?xml version="1.0" encoding="utf-8"?>
<!-- Svg Vector Icons : http://www.onlinewebfonts.com/icon -->
<!DOCTYPE svg PUBLIC "-//W3C//DTD SVG 1.1//EN" "http://www.w3.org/Graphics/SVG/1.1/DTD/svg11.dtd">
<svg version="1.1" xmlns="http://www.w3.org/2000/svg" xmlns:xlink="http://www.w3.org/1999/xlink" x="0px" y="0px" viewBox="0 0 1000 1000" enable-background="new 0 0 1000 1000" xml:space="preserve">
<metadata> Svg Vector Icons : http://www.onlinewebfonts.com/icon </metadata>
<g><g transform="translate(0.000000,511.000000) scale(0.100000,-0.100000)"><path d="M4838.7,4987.8c-197.9-75.2-310.7-174.1-407.6-358.2c-75.2-144.5-75.2-354.2,0-498.7l53.4-100.9l-162.3-23.7c-688.6-102.9-1367.3-391.8-1972.9-841c-241.4-178.1-704.4-641.1-882.5-882.5c-463-627.3-734.1-1272.4-852.9-2038.2c-47.5-304.7-47.5-953.8,0-1236.7c116.8-702.5,326.5-1244.7,704.5-1816.5c500.6-759.9,1284.2-1383.2,2152.9-1713.7c223.6-83.1,645.1-191.9,916.2-233.5c310.7-45.5,916.2-45.5,1226.9,0C6586-4607.5,7423-4184,8119.6-3487.4c583.8,583.7,961.7,1238.7,1163.6,2014.4c106.8,407.6,138.5,660.9,138.5,1104.2S9390,327.7,9283.1,735.3c-120.7,469-308.7,892.4-577.8,1300.1c-692.6,1056.7-1814.6,1788.8-3025.6,1970.9l-162.2,23.7l53.4,100.9c73.2,144.5,73.2,354.2-2,500.6c-77.2,148.4-154.4,227.6-292.9,302.7C5133.6,5009.5,4957.4,5031.3,4838.7,4987.8z M5194.9,4645.4c87.1-65.3,126.7-160.3,116.8-290.9c-11.9-197.9-130.6-298.8-336.4-285c-197.9,11.9-298.8,130.6-285,336.4c7.9,130.6,51.5,203.8,154.4,257.2C4933.7,4710.7,5117.7,4700.8,5194.9,4645.4z M5426.4,3727.3c807.4-89,1565.2-399.7,2168.8-886.5c1486.1-1199.2,1947.2-3312.5,1098.2-5040C7789.1-4039.5,5665.9-4922.1,3695-4275C2013-3724.9,885.1-2155.7,885.1-368.8c0,943.9,326.5,1873.9,906.3,2596.2c672.8,831.1,1668.1,1373.3,2754.5,1497.9C4757.6,3749,5216.7,3751,5426.4,3727.3z"/><path d="M4634.9,3250.4c-740.1-77.2-1478.2-407.6-2048.1-914.2c-841-746-1306-1889.8-1211-2978.1c43.5-490.7,166.2-928.1,378-1345.6c292.9-571.9,706.4-1042.8,1226.9-1393.1c1106.1-742.1,2467.6-829.1,3643-231.5C7336-3248,7880.1-2703.8,8244.3-1991.5c522.4,1029,524.4,2220.2,3.9,3241.3c-215.7,421.5-496.7,787.6-833.1,1086.4C6647.3,3018.9,5626.3,3355.3,4634.9,3250.4z M5640.1,2898.2c694.6-140.5,1246.6-437.3,1735.4-930c720.3-728.2,1056.7-1743.3,920.1-2778.2c-98.9-751.9-407.6-1379.2-939.9-1913.5c-534.3-532.3-1161.6-841-1913.5-939.9c-1034.9-136.5-2050,199.8-2778.2,920.1c-504.6,498.7-805.4,1072.5-939.9,1790.8c-57.4,300.8-51.5,910.3,7.9,1213c95,472.9,292.9,941.9,554.1,1310c170.2,241.4,534.3,605.5,775.7,775.7c441.3,312.6,1042.8,538.2,1592.9,597.6C4848.6,2963.5,5450.2,2935.8,5640.1,2898.2z"/><path d="M4367.8,2005.7v-633.2h158.3h158.3v411.6v409.6l273.1-409.6l271.1-409.6l203.8-2h201.8v633.2v633.2h-158.3h-158.3v-409.6v-411.6l-271.1,405.7L4773.4,2629l-201.8,5.9l-203.8,5.9V2005.7z"/><path d="M6356.5,867.9C5602.5,691.8,5088.1,583,5020.8,583c-136.5-2-306.7-45.5-439.3-112.8c-120.7-61.3-296.8-221.6-374-340.3c-29.7-47.5-457.1-518.5-947.9-1046.8c-490.7-528.3-888.5-963.7-884.5-967.6c4-4,571.9,120.7,1260.5,279c744,170.2,1292.2,286.9,1353.5,286.9c128.6,0,298.8,43.5,431.4,110.8c120.7,61.3,296.8,221.6,374,340.3c29.7,47.5,439.3,500.7,912.2,1009.2c934,1005.2,941.9,1013.2,902.3,1011.2C7595.2,1152.8,7031.2,1024.2,6356.5,867.9z M6334.7,203l-391.8-419.5l-33.7,97c-53.4,160.3-114.8,267.1-221.6,377.9c-53.4,57.4-95,108.8-91,110.8c13.8,9.9,1054.7,247.4,1092.3,249.3C6712.7,620.6,6582.1,466.2,6334.7,203z M5287.9,205c122.7-59.4,227.6-164.2,288.9-288.9c39.6-81.1,47.5-124.7,47.5-285c0-215.7-43.6-330.5-168.2-455.1c-124.7-124.7-239.4-168.2-455.1-168.2c-160.3,0-203.8,7.9-284.9,47.5c-203.8,100.9-326.5,284.9-344.3,516.5c-21.8,316.6,126.7,560,401.7,658.9C4913.9,280.2,5155.3,268.3,5287.9,205z M4090.7-610.3c41.6-142.5,118.7-275,221.6-383.9c69.3-73.2,91-108.8,73.2-116.8c-57.4-19.8-1074.5-247.3-1086.4-243.4c-15.8,5.9,732.2,821.2,753.9,825.2C4059.1-527.2,4076.9-564.7,4090.7-610.3z"/><path d="M1959.6,260.4c-118.7-17.8-122.7-19.8-112.8-71.2C1858.6,116,2013-964.5,2013-986.3c0-7.9,97-15.8,215.7-15.8h213.7l47.5,286.9c23.7,158.3,51.4,286.9,57.4,286.9c5.9,0,33.6-128.6,57.4-286.9l47.5-286.9h213.7c118.7,0,215.7,7.9,215.7,15.8c0,21.8,154.3,1102.2,166.2,1173.4c9.9,51.4,7.9,53.4-140.5,75.2c-83.1,11.9-152.4,19.8-156.3,17.8c-2-4-21.8-128.6-43.5-279c-21.8-152.4-43.5-279-49.5-283c-4-5.9-27.7,116.7-53.4,269.1l-45.5,277h-211.7h-211.7l-45.5-277c-25.7-152.4-49.5-275-53.4-269.1c-7.9,7.9-83.1,490.7-85.1,542.2C2151.5,286.1,2133.7,288.1,1959.6,260.4z"/><path d="M6900.6-368.8v-633.2h554.1h554.1v158.3v158.3H7613h-395.8v79.2v79.2H7613h395.7v158.3v158.3H7613h-395.8v79.2v79.2H7613h395.7v158.3v158.3h-554.1h-554.1V-368.8z"/><path d="M4648.8-2132c-95-27.7-233.5-174.1-261.2-275.1c-43.5-164.2,31.7-338.4,191.9-437.3c69.3-43.5,100.9-47.5,401.7-57.4l326.5-9.9v-69.3v-69.2H5001h-306.7l-5.9,75.2l-5.9,73.2h-160.3h-160.3l11.9-102.9c15.8-124.7,85.1-233.5,195.9-306.7c79.2-53.4,93-55.4,377.9-61.3c358.2-9.9,445.2,9.9,558,122.7c188,190,150.4,463-83.1,607.5c-69.3,43.5-100.9,47.5-401.7,57.4l-326.5,9.9v69.3v69.3H5001h306.7l5.9-73.2l5.9-75.2h160.3h160.3l-11.9,102.9c-15.8,124.7-85.1,233.5-195.9,306.7c-81.1,53.4-89,55.4-399.7,59.4C4856.5-2114.2,4684.4-2120.1,4648.8-2132z"/></g></g>
</svg>