<?xml version="1.0" encoding="utf-8"?>
<!-- Svg Vector Icons : http://www.onlinewebfonts.com/icon -->
<!DOCTYPE svg PUBLIC "-//W3C//DTD SVG 1.1//EN" "http://www.w3.org/Graphics/SVG/1.1/DTD/svg11.dtd">
<svg version="1.1" xmlns="http://www.w3.org/2000/svg" xmlns:xlink="http://www.w3.org/1999/xlink" x="0px" y="0px" viewBox="0 0 1000 1000" enable-background="new 0 0 1000 1000" xml:space="preserve">
<metadata> Svg Vector Icons : http://www.onlinewebfonts.com/icon </metadata>
<g><g transform="translate(0.000000,511.000000) scale(0.100000,-0.100000)"><path d="M7832.4,3944.6c-87.4-43.7-138.1-165.7-138.1-340.6v-149.6l-117.3-50.6l-119.7-48.3l-135.8,124.2c-124.2,115-145,126.6-239.3,126.6c-147.3,0-239.3-92-239.3-239.3c0-94.3,11.5-115,126.6-239.3l124.3-135.8l-48.3-117.3l-48.3-115l-179.5-9.2c-211.7-9.2-296.8-57.5-329.1-188.7c-16.1-64.4-13.8-101.2,16.1-165.7c50.6-103.5,151.9-147.3,345.1-147.3h145l50.6-117.3l48.3-119.6L6969.5,1876c-115-124.2-126.6-145-126.6-239.3c0-140.4,92-239.3,223.2-239.3c98.9,0,156.5,32.2,294.5,165.7l94.3,87.4l119.7-50.6l119.6-50.6v-388.9V771.6l-62.1,50.6c-202.5,154.2-260,195.6-375,253.1c-218.6,110.4-411.9,163.4-646.6,177.2l-220.9,13.8l-78.2-71.3c-78.2-69-78.2-71.3-73.6-257.7c6.9-237,73.6-485.5,197.9-722.5c71.3-140.4,145-237,303.7-395.8c174.9-177.2,241.6-225.5,425.7-315.2c119.7-59.8,287.6-126.6,375-147.3l154.2-36.8v-451v-453.3l-154.2-66.7c-207.1-89.7-388.8-271.5-478.6-478.6c-55.2-126.5-78.2-154.2-121.9-154.2c-66.7,0-209.4,71.3-264.6,133.4c-41.4,46-41.4,48.3,23,80.5c92,48.3,223.2,193.3,285.3,315.2c80.5,149.6,78.2,469.4,0,628.2c-39.1,78.2-310.6,379.7-904.3,1000.9c-467.1,487.8-895.1,920.4-948,959.5c-142.7,110.4-365.8,216.3-561.4,266.9c-165.7,41.4-271.5,43.7-2229.6,43.7c-1470.3,0-2073.2-6.9-2107.7-25.3c-87.4-43.7-131.2-117.3-131.2-223.2c0-80.5,13.8-112.8,66.7-168l66.7-66.7h2034.1c2225,0,2153.7,4.6,2432.1-138.1c115-57.5,257.7-193.3,929.6-890.5c434.9-453.3,821.4-860.5,858.3-902c128.9-154.1,64.4-372.7-119.6-407.2c-41.4-6.9-99-6.9-128.9,2.3c-27.6,9.2-239.3,202.5-467.1,428c-243.9,239.3-439.5,414.2-474,423.4c-87.4,20.7-218.6-41.4-260-124.3c-46-85.1-46-147.2-4.6-227.8c57.5-105.9,1419.7-1445,1525.6-1497.9c225.5-112.7,285.3-117.3,1518.6-117.3c1240.2,0,1247.1,0,1309.2-117.3c55.2-110.5,41.4-200.2-46-287.6l-78.2-78.2H7574.6c-1486.4,0-1705,4.6-1815.5,36.8c-296.8,89.7-335.9,119.7-1214.9,1007.8c-879,883.6-922.7,920.4-1237.9,1028.5c-278.4,94.4-340.5,89.7-1767.1-149.6L227.7-1568.5l-62.1-71.3c-115-126.6-73.6-315.2,85.1-379.7c66.7-29.9,195.6-11.5,1371.4,184.1l1300,216.3l156.5-32.2c87.4-18.4,200.2-57.5,253.1-89.7c52.9-29.9,469.4-434.9,922.7-895.1l828.4-839.8l218.6-105.9c382-181.8,299.1-177.2,2307.9-170.3l1776.3,6.9l115,62.1c243.9,128.8,382,342.8,398.1,616.7c11.5,223.2-48.3,391.2-193.3,540.7c-154.2,158.8-315.2,223.2-584.5,237l-223.2,11.5l-64.4,149.6c-89.7,204.8-273.8,386.6-478.6,476.3l-154.2,66.7v453.3v451l156.5,36.8c85.1,20.7,253.1,87.4,370.5,145c179.5,89.7,253.1,142.7,418.8,306c301.4,301.4,448.7,595.9,503.9,1021.6c23,161.1,20.7,207.1-6.9,276.1c-57.5,138.1-122,163.4-368.2,147.3c-331.3-20.7-632.8-138.1-922.7-361.3l-151.9-117.3v388.9v386.6l119.7,50.6l119.7,50.6l105.8-101.2c128.8-124.3,181.8-151.9,287.6-151.9c126.6,0,218.6,101.2,218.6,239.3c0,94.3-11.5,115-126.6,239.3l-124.3,135.8l48.3,119.6l50.6,117.3h145c181.8,0,292.2,43.7,338.2,135.8c46,87.4,46,147.3,2.3,232.4c-50.6,98.9-145,138.1-329,138.1H8900l-50.6,119.7l-50.6,119.6l101.3,105.8c124.2,128.9,151.9,181.8,151.9,287.6c0,126.6-101.3,218.6-239.3,218.6c-94.3,0-115-11.5-239.3-126.6l-135.8-124.2l-119.7,48.3l-117.3,50.6v149.6c0,237-92,370.5-253.1,370.5C7915.2,3974.5,7864.6,3960.7,7832.4,3944.6z M8225.8,2904.6c147.3-103.5,209.4-239.3,200.2-428c-9.2-191-82.8-308.3-250.8-400.4c-220.9-119.7-497-48.3-642,165.7c-48.3,71.3-57.5,110.4-57.5,262.3c0,161.1,6.9,186.4,69,276.1c103.5,147.3,239.3,209.4,430.3,200.2C8101.6,2973.6,8147.6,2959.8,8225.8,2904.6z M7010.9,647.3c310.6-154.2,547.6-434.9,639.7-750.1c18.4-66.7,16.1-69-43.7-55.2C7478-125.8,7252.5,0.8,7128.3,115.8c-154.2,140.4-271.5,312.9-333.6,492.4l-43.7,126.6l71.3-13.8C6861.3,714.1,6946.5,679.5,7010.9,647.3z M9093.3,599c-66.7-181.8-181.8-352-331.3-487.8C8640-1.5,8416.8-128.1,8283.3-158c-59.8-13.8-64.4-11.5-48.3,39.1c6.9,29.9,50.6,128.9,92,216.3c122,250.8,365.9,480.9,623.6,584.4C9141.6,760.1,9150.8,753.2,9093.3,599z M8214.3-2127.6c50.6-34.5,103.5-85.1,119.7-110.4c27.6-46,25.3-46-386.6-46c-409.6,0-416.5,0-384.3,46c92,131.2,216.3,186.4,409.6,177.2C8094.7-2065.5,8143-2079.3,8214.3-2127.6z"/></g></g>
</svg>