<?xml version="1.0" encoding="utf-8"?>
<!-- Svg Vector Icons : http://www.onlinewebfonts.com/icon -->
<!DOCTYPE svg PUBLIC "-//W3C//DTD SVG 1.1//EN" "http://www.w3.org/Graphics/SVG/1.1/DTD/svg11.dtd">
<svg version="1.1" xmlns="http://www.w3.org/2000/svg" xmlns:xlink="http://www.w3.org/1999/xlink" x="0px" y="0px" viewBox="0 0 1000 1000" enable-background="new 0 0 1000 1000" xml:space="preserve">
<metadata> Svg Vector Icons : http://www.onlinewebfonts.com/icon </metadata>
<g><path d="M500,71.3c236.4,0,428.8,192.3,428.8,428.8c0,236.4-192.4,428.8-428.8,428.8C263.6,928.8,71.3,736.4,71.3,500C71.3,263.6,263.6,71.3,500,71.3 M500,10C229.4,10,10,229.4,10,500s219.4,490,490,490s490-219.4,490-490S770.6,10,500,10L500,10z M438.8,438.8c-6.7-82.3-56.5-122.5-128-122.5c-0.2,0-0.3,0-0.5,0c-69.3,0-116.6,61.3-118.8,123.2l61.5,1c-0.9-46.7,21.3-71.5,63.5-71.5c41.2-0.1,62.8,34.4,60.9,69.8H438.8z M806.3,438.8c-6.7-82.3-56.5-122.5-128-122.5c-0.1,0-0.2,0-0.4,0c-69.3,0-116.6,61.3-118.8,123.2l61.5,1c-1-46.7,21.3-71.4,63.5-71.5c41.3-0.2,62.9,34.3,61,69.7H806.3z M807.4,561.3h-54.7C688.5,677.1,611,749.8,480.8,743.2c-106.2-5.5-197.4-80.5-225.8-181.9l-65.2,0.2c35.6,127.3,153.4,232,286.3,242.2c8,0.6,15.9,1.3,23.8,1.3C638.8,805,760.3,690.4,807.4,561.3z"/></g>
</svg>