<?xml version="1.0" encoding="utf-8"?>
<!-- Svg Vector Icons : http://www.onlinewebfonts.com/icon -->
<!DOCTYPE svg PUBLIC "-//W3C//DTD SVG 1.1//EN" "http://www.w3.org/Graphics/SVG/1.1/DTD/svg11.dtd">
<svg version="1.1" xmlns="http://www.w3.org/2000/svg" xmlns:xlink="http://www.w3.org/1999/xlink" x="0px" y="0px" viewBox="0 0 1000 1000" enable-background="new 0 0 1000 1000" xml:space="preserve">
<metadata> Svg Vector Icons : http://www.onlinewebfonts.com/icon </metadata>
<g><g transform="translate(0.000000,512.000000) scale(0.100000,-0.100000)"><path d="M4561.9,5102.6c-1138.8-119.4-2154.2-596.8-2966.2-1399C887.3,3003.1,398.2,2110.9,202.5,1160c-135-647.6-137-1410.7-3.9-2050.5c381.5-1858.8,1800.1-3363.4,3610-3829.1c739.6-189.8,1432.3-203.5,2191.4-45c1473.3,307.2,2780.4,1355.9,3433.9,2753c340.5,729.8,487.2,1442,463.7,2279.5c-15.6,588.9-97.8,1037-279.8,1543.8C8983.8,3560.8,7489,4799.3,5677.1,5073.2C5432.5,5110.4,4796.6,5126.1,4561.9,5102.6z M4933.6,3288.8V1731.3l-258.3,11.7c-459.8,23.5-1003.7,121.3-1447.9,260.2c-262.2,82.2-618.3,219.1-632,242.6c-23.5,37.2,272,647.6,455.9,947c356.1,575.2,884.4,1136.8,1414.6,1498.8c207.4,142.8,234.8,154.6,365.9,154.6l101.8,2V3288.8z M5326.9,4738.7c275.9-185.9,485.2-358.1,733.7-604.6c383.5-381.5,690.7-800.3,947-1287.5c127.2-240.7,315-679,301.3-700.5c-11.7-21.5-473.5-170.2-722-232.8c-428.5-107.6-937.2-176.1-1312.9-176.1h-203.5v1555.5v1555.5h45C5141,4848.2,5236.9,4799.3,5326.9,4738.7z M5802.3,4777.8c909.9-152.6,1798.2-614.4,2461.5-1283.5c174.1-176.1,465.7-516.6,465.7-545.9c0-17.6-338.5-252.4-547.9-377.6c-242.6-146.7-700.5-369.8-733.7-356.1c-13.7,3.9-37.2,43.1-50.9,84.1c-11.7,41.1-70.4,180-129.2,309.2c-369.8,825.7-956.8,1569.2-1637.7,2079.9l-195.7,144.8l97.8-13.7C5585.2,4811.1,5706.5,4793.5,5802.3,4777.8z M4346.6,4773.9c-303.3-207.4-741.6-622.2-1007.7-952.9c-309.1-383.5-659.4-974.4-814-1369.6c-23.5-64.6-50.9-125.2-58.7-135c-43-50.9-1132.9,622.2-1132.9,698.5c0,33.3,221.1,293.5,410.9,483.3c663.3,667.2,1510.5,1109.4,2447.7,1279.6C4385.8,4813,4405.3,4813,4346.6,4773.9z M1407.8,2774.2c219.1-164.4,522.4-354.2,774.8-481.3c119.4-60.7,219.1-113.5,223.1-115.4c2-2-31.3-123.3-74.3-266.1c-137-455.9-254.4-1127-254.4-1467.5c0-72.4-5.9-158.5-11.7-191.7l-11.7-60.7h-849.2H355.1l9.8,162.4c50.9,753.3,209.4,1354,516.5,1956.6c113.5,223.1,332.6,581.1,358.1,581.1C1247.3,2891.6,1321.7,2838.8,1407.8,2774.2z M8921.2,2670.5c377.6-600.7,645.7-1397,696.6-2077.9c7.8-86.1,17.6-211.3,23.5-277.8l11.7-123.3h-929.4h-927.5l-11.7,279.8c-19.6,455.9-135,1101.6-264.1,1481.2l-37.2,105.7l344.4,170.2c303.3,150.7,913.7,526.3,950.9,585C8801.9,2850.5,8817.5,2832.9,8921.2,2670.5z M2830.2,2001.3c571.3-221.1,1238.5-362,1864.7-395.2l238.7-11.7V891.9V191.5H3564H2194.3v45c0,23.5,9.8,166.3,19.6,317c35.2,467.6,121.3,933.3,256.3,1367.7c48.9,156.5,64.6,189.8,92,182C2579.8,2097.2,2701.1,2052.2,2830.2,2001.3z M7381.3,1958.3c41.1-107.6,154.6-567.4,191.8-788.5c39.1-223.1,66.5-473.5,90-806.1l11.7-172.2H6373.7H5070.6v704.4v704.4h193.7c532.2,0,1279.6,133,1841.2,328.7c123.3,43,230.9,80.2,240.7,80.2C7354,2011.1,7369.6,1987.7,7381.3,1958.3z M2065.2-6.2c5.9-33.3,11.7-119.4,11.7-191.7c0-514.6,185.9-1352,432.4-1954.7c142.8-350.2,146.7-356.1,115.4-356.1c-48.9,0-620.3-295.4-831.6-430.5l-215.2-135l-66.5,72.4c-309.2,342.4-637.9,890.3-823.7,1365.7C539-1250.6,415.8-726.2,386.4-360.3c-5.9,76.3-17.6,203.5-23.5,277.9l-9.8,137h849.2h851.1L2065.2-6.2z M4933.6-980.5v-1035.1l-189.8-11.7c-637.9-43-1177.9-146.7-1710.1-326.8c-125.2-41.1-236.8-76.3-248.5-76.3c-27.4,0-183.9,362-277.8,647.7c-131.1,391.3-232.8,866.8-281.7,1305.1l-7.8,82.2h725.9c401.1,0,739.6,7.8,753.3,17.6c15.7,7.8,23.5,37.2,19.6,62.6l-5.9,47l-745.5,5.9l-745.5,3.9l-13.7,92c-5.9,48.9-11.7,119.3-11.7,154.6v66.5H3564h1369.6V-980.5z M7663.1-115.7c-56.8-827.6-187.8-1428.3-452-2056.4c-64.6-154.6-82.2-180-115.4-174.1c-21.5,5.9-144.8,41.1-275.9,78.3c-446.1,131.1-962.7,215.2-1469.4,240.7l-279.8,13.7v1033.1v1035h1303.1h1301.2L7663.1-115.7z M9641.2-35.5c-5.9-50.9-11.7-129.2-11.7-176.1v-86.1h-485.2c-512.6,0-563.5-7.8-547.9-90c5.9-35.2,29.3-37.2,510.7-43c418.7-3.9,502.9-9.8,502.9-33.3c0-76.3-105.7-579.2-164.4-784.6c-170.2-589-506.7-1220.9-905.9-1698.4l-60.7-74.3l-176.1,107.6c-207.4,129.1-606.6,330.7-859,434.4c-99.8,41.1-182,80.2-182,88c0,9.8,27.4,76.3,60.6,150.7c92,203.5,262.2,731.8,320.9,994c76.3,346.3,127.2,708.3,140.9,1023.3l11.7,277.9h929.4H9655L9641.2-35.5z M4933.6-3381.3v-1226.8l-123.3,9.8c-101.7,7.8-146.7,25.4-240.7,84.1c-362,230.9-866.8,690.7-1150.5,1046.8c-158.5,199.6-385.5,540-498.9,747.4c-97.8,176.1-115.4,154.6,211.3,258.3c532.2,172.2,1195.5,291.5,1690.5,303.3l111.5,2V-3381.3z M5657.6-2185.8c309.1-29.3,561.6-68.5,821.8-129.1c172.2-41.1,571.3-152.6,585-164.4c13.7-15.7-182-360-340.5-596.8c-385.5-579.2-821.8-1023.3-1365.7-1393.1c-109.6-72.4-217.2-133-242.6-133h-45v1222.9v1222.9h152.6C5305.4-2156.5,5501-2170.2,5657.6-2185.8z M7424.4-2618.2c244.6-99.8,620.3-291.5,819.8-416.8c129.1-80.2,131.1-84.1,101.7-129.1c-37.2-56.7-408.9-389.4-579.2-518.5c-598.7-450-1361.8-765-2109.2-870.7c-101.7-13.7-187.9-23.5-191.7-19.6c-2,2,82.2,68.5,185.9,148.7c246.5,185.9,630,557.6,841.3,815.9c201.5,242.6,446.1,606.6,592.9,878.5c58.7,111.5,109.6,201.5,113.5,201.5S7305-2569.3,7424.4-2618.2z M2793.1-2757.2c369.8-667.2,874.6-1260,1416.6-1663.1c195.7-146.7,193.7-142.8,105.7-131.1c-430.5,64.6-952.9,228.9-1355.9,430.5c-428.5,213.3-770.9,450-1154.4,806.1l-144.8,133l174.1,113.5c178.1,113.5,815.9,442.2,860.9,442.2C2708.9-2626.1,2752-2684.8,2793.1-2757.2z"/></g></g>
</svg>