<?xml version="1.0" encoding="utf-8"?>
<!-- Svg Vector Icons : http://www.onlinewebfonts.com/icon -->
<!DOCTYPE svg PUBLIC "-//W3C//DTD SVG 1.1//EN" "http://www.w3.org/Graphics/SVG/1.1/DTD/svg11.dtd">
<svg version="1.1" xmlns="http://www.w3.org/2000/svg" xmlns:xlink="http://www.w3.org/1999/xlink" x="0px" y="0px" viewBox="0 0 1000 1000" enable-background="new 0 0 1000 1000" xml:space="preserve">
<metadata> Svg Vector Icons : http://www.onlinewebfonts.com/icon </metadata>
<g><g><g><path d="M414,435.6h12.7v90.3c0,9.2,7.5,16.7,16.7,16.7h113.3c9.2,0,16.7-7.5,16.7-16.7v-90.3H586c5.4,0,10.5-2.6,13.6-7c3.1-4.4,3.9-10.1,2.1-15.2L586,368.9c-2.4-6.7-8.7-11.1-15.7-11.1H429.7c-7.1,0-13.4,4.5-15.7,11.1l-15.7,44.4c-1.8,5.1-1,10.8,2.1,15.2C403.5,433,408.6,435.6,414,435.6z M460,435.6h23.3v73.6H460V435.6z M540,509.2h-23.3v-73.6H540V509.2z M441.5,391.1h117l3.9,11.1H437.6L441.5,391.1z"/><path d="M249.9,426.1h-69.2c-9.2,0-16.7,7.5-16.7,16.7v107c0,9.2,7.5,16.7,16.7,16.7h69.2c9.2,0,16.7-7.5,16.7-16.7v-107C266.5,433.6,259.1,426.1,249.9,426.1z M233.2,533.1h-35.9v-73.6h35.9V533.1z"/><path d="M249.9,637.5h-69.2c-9.2,0-16.7,7.5-16.7,16.7v107c0,9.2,7.5,16.7,16.7,16.7h69.2c9.2,0,16.7-7.5,16.7-16.7v-107C266.5,645,259.1,637.5,249.9,637.5z M233.2,744.5h-35.9v-73.6h35.9V744.5z"/><path d="M819.3,426.1h-69.2c-9.2,0-16.7,7.5-16.7,16.7v107c0,9.2,7.5,16.7,16.7,16.7h69.2c9.2,0,16.7-7.5,16.7-16.7v-107C836,433.6,828.5,426.1,819.3,426.1z M802.7,533.1h-35.9v-73.6h35.9V533.1z"/><path d="M819.3,637.5h-69.2c-9.2,0-16.7,7.5-16.7,16.7v107c0,9.2,7.5,16.7,16.7,16.7h69.2c9.2,0,16.7-7.5,16.7-16.7v-107C836,645,828.5,637.5,819.3,637.5z M802.7,744.5h-35.9v-73.6h35.9V744.5z"/><path d="M972.6,809.9h-39.1V393.4h20c13.4,0,19.6-16.7,9.4-25.4L844.2,266.8c-8.1-6.9-18.3-10.6-28.9-10.6H623.9l-106-92.7c-10.3-9-25.6-9-35.9,0l-106,92.7H184.6c-10.6,0-20.8,3.8-28.9,10.6L37.1,367.9c-10.2,8.7-4.1,25.4,9.4,25.4h20v416.6H27.4c-9.1,0-17.1,7-17.4,16.2c-0.3,9.4,7.3,17.2,16.7,17.2h946.7c9.4,0,16.9-7.7,16.7-17.2C989.7,817,981.8,809.9,972.6,809.9z M819.5,289.5l82.7,70.5H669.3v-20h25.8c8.6,0,12.6-10.6,6.1-16.3L662,289.5H819.5z M635.9,340v469.9h-52.2V657.6h17.7c5.3,0,10.3-2.5,13.5-6.9c3.1-4.3,4-9.9,2.4-14.9l-18.5-57.6c-2.2-6.9-8.6-11.6-15.9-11.6H417.1c-7.2,0-13.6,4.7-15.9,11.6l-18.5,57.6c-1.6,5.1-0.7,10.6,2.4,14.9c3.1,4.3,8.1,6.9,13.5,6.9h17.7v152.3h-52.2l0-469.9H635.9L635.9,340z M421.4,624.3l7.8-24.3h141.5l7.8,24.3H421.4z M449.6,657.6h33.7v152.3h-33.7V657.6z M516.7,657.6h33.7v152.3h-33.7V657.6z M631,306.7H369l131-114.6L631,306.7z M180.5,289.5H338l-39.1,34.2c-6.4,5.6-2.5,16.3,6.1,16.3h25.8v20H97.8L180.5,289.5z M99.8,393.4h230.9v416.6H99.8V393.4z M669.3,809.9V393.4h230.9v416.6H669.3z"/></g></g><g></g><g></g><g></g><g></g><g></g><g></g><g></g><g></g><g></g><g></g><g></g><g></g><g></g><g></g><g></g></g>
</svg>