<?xml version="1.0" encoding="utf-8"?>
<!-- Svg Vector Icons : http://www.onlinewebfonts.com/icon -->
<!DOCTYPE svg PUBLIC "-//W3C//DTD SVG 1.1//EN" "http://www.w3.org/Graphics/SVG/1.1/DTD/svg11.dtd">
<svg version="1.1" xmlns="http://www.w3.org/2000/svg" xmlns:xlink="http://www.w3.org/1999/xlink" x="0px" y="0px" viewBox="0 0 1000 1000" enable-background="new 0 0 1000 1000" xml:space="preserve">
<metadata> Svg Vector Icons : http://www.onlinewebfonts.com/icon </metadata>
<g><path d="M500,163.1c-118.3,0-214.3,96-214.3,214.4c0,118.4,95.9,214.4,214.3,214.4c118.3,0,214.3-96,214.3-214.4C714.3,259.1,618.3,163.1,500,163.1z M500,530.6c-84.5,0-153-68.6-153-153.1c0-84.6,68.5-153.1,153-153.1c84.5,0,153,68.6,153,153.1C653,462.1,584.5,530.6,500,530.6z M837.3,544c24.6-49.3,38.8-104.5,38.8-163.2C876.1,176,707.7,10,500,10c-207.7,0-376.1,166-376.1,370.8c0,58.6,14.2,113.9,38.8,163.2L10,804.6c0,0,96.8,19.4,195,39.6C270.5,917.2,335.7,990,335.7,990l140.4-239.7c7.9,0.5,15.8,1.2,23.9,1.2c8.1,0,16-0.7,23.9-1.2L664.3,990c0,0,65.2-72.8,130.7-145.7c98.2-20.2,195-39.6,195-39.6L837.3,544z M328.4,878.8c0,0-47-44.6-91.2-87.6c-62.7-17.8-125.9-36-125.9-36L200,603.8c51.2,66.8,124.6,115.8,209.6,136.5L328.4,878.8z M500,684c-168.9,0-305.8-137.3-305.8-306.6c0-169.3,136.9-306.6,305.8-306.6c168.9,0,305.8,137.3,305.8,306.6C805.8,546.7,668.9,684,500,684z M762.8,791.2c-44.2,43-91.2,87.6-91.2,87.6l-81.1-138.5c85-20.7,158.4-69.7,209.6-136.5l88.7,151.5C888.7,755.2,825.4,773.4,762.8,791.2z"/></g>
</svg>