<?xml version="1.0" encoding="utf-8"?>
<!-- Svg Vector Icons : http://www.onlinewebfonts.com/icon -->
<!DOCTYPE svg PUBLIC "-//W3C//DTD SVG 1.1//EN" "http://www.w3.org/Graphics/SVG/1.1/DTD/svg11.dtd">
<svg version="1.1" xmlns="http://www.w3.org/2000/svg" xmlns:xlink="http://www.w3.org/1999/xlink" x="0px" y="0px" viewBox="0 0 1000 1000" enable-background="new 0 0 1000 1000" xml:space="preserve">
<metadata> Svg Vector Icons : http://www.onlinewebfonts.com/icon </metadata>
<g><g transform="translate(0.000000,511.000000) scale(0.100000,-0.100000)"><path d="M5020.9,4989.2c-215-79.6-371.6-260.1-408.8-475.1c-29.2-153.9,31.9-358.3,140.7-477.8l95.6-103.5L3011.7,2096.1L1177.6,262l-74.3,69C973.2,450.5,856.5,495.6,678.6,495.6c-212.3-2.7-382.2-98.2-499-286.7C110.6,97.5,100,52.4,100-96.3c2.7-116.8,18.6-207,50.4-268.1c63.7-122.1,4188.4-4257.4,4331.7-4342.3c403.4-238.9,897.1,39.8,897.1,506.9c0,172.5-47.8,292-164.6,419.4l-69,74.3l1165.2,1165.2l1167.9,1167.9l21.2-98.2c10.6-55.7,53.1-230.9,92.9-392.8c84.9-347.7,92.9-645,23.9-854.7c-31.9-92.9-114.1-215-260.1-384.9c-289.3-339.7-326.5-419.4-337.1-764.4c-10.6-254.8-5.3-284,47.8-350.4c69-90.2,201.7-100.9,294.6-23.9c58.4,47.8,63.7,66.4,55.8,265.4c-10.6,268.1,34.5,374.2,244.2,605.2c416.7,456.5,504.3,905.1,321.2,1613.8c-98.2,368.9-98.2,589.2-2.6,798.9c58.4,130.1,146,233.6,453.9,541.5l382.2,379.6l106.2-95.5c222.9-201.7,568-193.8,793.6,15.9c151.3,140.7,220.3,390.1,164.6,597.2c-31.9,116.8-172.5,265.4-2187.1,2280C6510,3946.1,5504,4936.1,5456.2,4957.3C5331.5,5018.4,5132.4,5031.7,5020.9,4989.2z M7391.2,2507.5C9384.5,516.8,9482.7,413.3,9482.7,323.1c0-148.7-135.4-238.9-260.1-172.5c-39.8,21.2-1000.6,968.8-2134,2104.8c-1927,1927-2065,2072.9-2065,2155.2c0,122.1,63.7,188.4,183.1,188.4C5297,4599,5400.5,4500.8,7391.2,2507.5z M5851.7,2916.3l84.9-103.5l-212.3,18.6c-491,42.5-1024.6,138-1125.4,201.7c-31.9,21.2,18.6,82.3,252.2,318.5l292,292l313.2-310.5C5628.7,3160.4,5806.6,2974.6,5851.7,2916.3z M5063.4,2499.5c212.3-37.2,483.1-61,812.2-69l496.3-15.9l257.5-257.5l260.1-260.1l-130-23.9c-71.7-10.6-392.8-21.2-714-21.2c-629.1,2.7-952.9,37.2-1473.1,164.6c-241.5,58.4-729.9,225.6-767.1,262.8c-8,5.3,84.9,111.5,207,233.6l217.7,220.3l257.5-87.6C4630.8,2595.1,4888.2,2531.4,5063.4,2499.5z M3699.1,1881.1c156.6-71.7,493.7-188.5,783-268.1c26.5-8,79.6-403.4,58.4-427.3c-15.9-13.3-504.3,90.2-700.7,151.3c-156.6,47.8-666.2,252.1-698.1,281.3c-15.9,10.6,318.5,353,345.1,353C3494.8,1971.3,3590.3,1931.5,3699.1,1881.1z M7882.2,904.3l645-642.3L8275,7.2l-254.8-252.1L7858.3-72.4c-207,222.9-440.6,575.9-618.4,929c-153.9,307.9-268.1,602.5-244.2,626.4c13.3,15.9,153.9,53.1,215,61C7224,1546.7,7526.5,1257.4,7882.2,904.3z M5312.9,1472.3l169.9-18.6l74.3-302.6c223-878.6,605.2-1635,1154.6-2269.4l201.7-233.6l-207-209.7l-207.1-207l-159.2,175.2C5599.6-786.4,5124.4,185.1,4970.5,1201.6c-15.9,108.8-34.5,225.6-42.5,260.1c-10.6,58.4-8,61.1,100.9,45.1C5092.6,1498.9,5220,1483,5312.9,1472.3z M6640,1212.2c180.5-517.6,530.8-1117.4,899.8-1539.4l185.8-215L7462.8-805l-260.1-260.1l-95.5,103.5c-533.5,597.2-931.6,1343-1128,2110.1c-82.3,318.5-103.5,294.6,265.4,286.7l321.2-8L6640,1212.2z M2979.8,1241.4c384.9-196.4,982.1-384.9,1401.4-448.6c135.4-18.6,249.5-39.8,254.8-45.1c5.3-5.3,34.5-98.2,61.1-201.7l53.1-193.8h-164.6c-374.2,0-1021.9,161.9-1435.9,355.7c-238.9,114.1-568,318.5-568,353c0,26.5,220.3,246.8,244.2,246.8C2839.2,1307.8,2908.2,1278.6,2979.8,1241.4z M2844.5,402.7l222.9-114.1l-289.3-61.1l-289.3-61l-159.3,79.6c-87.6,45.1-201.7,116.8-252.2,159.2l-92.9,77l143.3,143.3l140.7,146l177.8-127.4C2541.9,572.6,2722.4,466.4,2844.5,402.7z M1918.1,7.2c0-15.9-292-132.7-331.8-132.7c-10.6,0-45.1,21.2-71.7,45.1c-47.8,42.5-45.1,47.8,61.1,156.6l111.5,114.1l114.1-84.9C1865.1,57.7,1915.5,15.2,1918.1,7.2z M2865.7-2015.3C4747.6-3897.1,4970.5-4128,4970.5-4202.4c0-135.4-124.8-212.3-254.8-156.6c-42.5,18.6-1005.9,966.1-2141.9,2102.2C729.1-409.5,508.7-178.6,506.1-104.2c-2.6,111.5,69,191.1,175.2,191.1C755.6,86.8,986.5-136.1,2865.7-2015.3z M4859-61.8c31.9-10.6,58.4-29.2,58.4-45.1c0-13.3,53.1-140.7,119.4-278.7c66.4-138,116.8-254.8,114.1-257.5c-5.3-2.7-98.2,2.6-207,15.9c-875.9,87.6-1648.3,42.5-2428.6-146l-249.5-61l-191.1,193.8l-191.1,191.1l302.6,98.2c453.9,146,881.2,230.9,1483.7,286.7C3839.8-45.8,4798-45.8,4859-61.8z M4957.2-1041.2c204.4-21.2,392.8-39.8,416.7-39.8c26.5,0,92.9-69,151.3-156.6c58.4-84.9,191.1-257.5,294.6-384.9c103.5-124.8,183.1-228.3,177.8-228.3s-77,23.9-161.9,53.1c-215,71.7-703.4,177.8-998,212.3c-334.4,39.8-1088.2,39.8-1473.1-2.7l-307.9-31.8l-225.6,222.9c-183.1,180.5-215,225.6-175.2,238.9c45.1,15.9,629.1,119.4,788.3,138C3662-993.4,4625.5-1006.7,4957.2-1041.2z M4744.9-1983.4c345.1-39.8,623.7-98.2,952.9-204.4l289.3-92.9L5796-2471.8l-191.1-193.8l-265.4,74.3c-366.3,103.5-753.8,156.6-1144,156.6H3869L3646-2211.7l-223,225.6l116.8,10.6C3792-1954.2,4519.3-1959.6,4744.9-1983.4z M4922.7-2912.4c143.3-29.2,276-61,299.9-71.7c31.9-18.6-5.3-66.4-167.2-228.3l-204.4-204.4l-292,294.6l-292,292l199.1-15.9C4575-2856.7,4782.1-2885.9,4922.7-2912.4z" fill="#371313"/></g></g>
</svg>