<?xml version="1.0" encoding="utf-8"?>
<!-- Svg Vector Icons : http://www.onlinewebfonts.com/icon -->
<!DOCTYPE svg PUBLIC "-//W3C//DTD SVG 1.1//EN" "http://www.w3.org/Graphics/SVG/1.1/DTD/svg11.dtd">
<svg version="1.1" xmlns="http://www.w3.org/2000/svg" xmlns:xlink="http://www.w3.org/1999/xlink" x="0px" y="0px" viewBox="0 0 1000 1000" enable-background="new 0 0 1000 1000" xml:space="preserve">
<metadata> Svg Vector Icons : http://www.onlinewebfonts.com/icon </metadata>
<g><path d="M657.4,149.4c-58,0-113.5,20.5-157.4,56.6c-43.9-36.6-99.9-56.6-157.4-56.6C207.4,149.4,97,259.1,97,393.3c0,64.1,18.7,126.7,55.5,186.8c29.3,47.6,69.6,93.6,121.1,136.7c56.5,48.1,127.6,92.6,199.2,126.7l2,1c8.1,4,16.6,6,25.2,6c8.6,0,17.7-2,25.2-6c0.5,0,1-0.5,2-1c71.6-33.6,142.2-78.6,199.2-126.7c50.9-43.1,91.8-89.1,121.1-136.7C884.4,520,903,457.4,903,393.3C903,259.1,793.1,149.4,657.4,149.4L657.4,149.4L657.4,149.4L657.4,149.4z M990,393.3c0,80.5-23.3,158.7-68.4,232.4c-34.3,55.8-81.2,108.7-139.1,157.6c-63.2,53.3-140.3,102.4-216.6,138.1c6.1-3.3-25,7.6-44.4,3.7l3.7-80.6l40.7,76.9c-5.4,2.8-10.9,5.3-16.6,7.4c-15.8,5.8-32.7,8.7-49.4,8.7c-22.1,0-43.9-5.2-63.9-15.1c-80.5-38.3-157.6-87.1-218.4-138.9c-57.8-48.4-104.6-101.4-139.4-158C33.3,552.1,10,473.8,10,393.3C10,210.9,159.5,62.5,342.6,62.5c77.9,0,153.6,27.2,213,76.7L500,206l-55.2-67.2c59.8-49.2,134.9-76.4,212.6-76.4C840.8,62.5,990,210.8,990,393.3L990,393.3z"/><path d="M302.3,421.2c26.3,0,47.7-21.4,47.7-47.8c0-26.4-21.4-47.8-47.7-47.8c-26.3,0-47.7,21.4-47.7,47.8C254.6,399.8,275.9,421.2,302.3,421.2z"/><path d="M711.1,421.2c26.3,0,47.7-21.4,47.7-47.8c0-26.4-21.4-47.8-47.7-47.8c-26.3,0-47.7,21.4-47.7,47.8C663.4,399.8,684.8,421.2,711.1,421.2z"/><path d="M281.8,542.7c7.4,20.3,23,49.1,49.1,77.9c43.9,48.4,102.6,77.8,176.4,77.8c73.4,0,133.9-29,181.6-76.8c28.3-28.4,46.4-56.8,55.4-76.8l-52.8-24c-1.4,3.1-4.7,9.4-10.1,17.8c-9.1,14.3-20.3,28.7-33.6,42c-37.5,37.6-83.8,59.8-140.6,59.8c-56.3,0-99.9-21.8-133.4-58.8c-11.9-13.1-21.6-27.2-29.3-41.3c-4.5-8.2-7.2-14.4-8.3-17.4L281.8,542.7L281.8,542.7z"/></g>
</svg>