<?xml version="1.0" encoding="utf-8"?>
<!-- Svg Vector Icons : http://www.onlinewebfonts.com/icon -->
<!DOCTYPE svg PUBLIC "-//W3C//DTD SVG 1.1//EN" "http://www.w3.org/Graphics/SVG/1.1/DTD/svg11.dtd">
<svg version="1.1" xmlns="http://www.w3.org/2000/svg" xmlns:xlink="http://www.w3.org/1999/xlink" x="0px" y="0px" viewBox="0 0 1000 1000" enable-background="new 0 0 1000 1000" xml:space="preserve">
<metadata> Svg Vector Icons : http://www.onlinewebfonts.com/icon </metadata>
<g><path d="M928.6,430.9c-0.5,0-1.1-0.1-1.6,0c-0.3,0-0.6,0-1,0v0.1c-2.2,0.3-4.2,1.1-5.9,2.6L745,587.2V523c0-38.2-20.6-70.9-49.9-84.9c54.7-41.3,90.7-111.7,90.7-191.5c0-127.2-91.4-230.4-204.2-230.4c-112.8,0-204.2,103.1-204.2,230.4c0,75.4,32.1,142.3,81.7,184.3H309.2c41.6-38,68.3-96.1,68.3-161.2c0-114.5-82.3-207.3-183.7-207.3S10,155.1,10,269.6c0,65.7,27.1,124.3,69.4,162.3C40.1,438.6,10,476.8,10,523v368.6c0,50.9,36.6,92.1,81.7,92.1h571.7c45.1,0,81.7-41.3,81.7-92.1v-71.8l173.9,161c2,1.8,4.4,2.8,7.1,2.9v0c0.2,0,0.3,0,0.5,0c0.2,0,0.5,0,0.7,0C971.4,983,990,942,990,891.6V523C990,473.1,971.8,432.5,928.6,430.9z M418.3,246.6c0-101.8,73.1-184.3,163.3-184.3c90.2,0,163.3,82.5,163.3,184.3c0,101.8-73.1,184.3-163.3,184.3C491.5,430.9,418.3,348.4,418.3,246.6z M51,269.6c0-89,63.9-161.1,142.8-161.1s142.8,72.1,142.8,161.1c0,89-63.9,161.1-142.8,161.1S51,358.6,51,269.6z M704.2,891.6c0,25.4-18.3,46.1-40.8,46.1H91.7c-22.6,0-40.8-20.6-40.8-46.1V523c0-25.4,18.3-46.1,40.8-46.1h571.7c22.6,0,40.8,20.6,40.8,46.1V891.6z M949.2,891.6c0,21.4-0.5,39.5-14.1,44.6L745,760.2V645.5l190.4-167c13.4,5.3,13.8,23.2,13.8,44.5L949.2,891.6L949.2,891.6z"/></g>
</svg>