<?xml version="1.0" encoding="utf-8"?>
<!-- Svg Vector Icons : http://www.onlinewebfonts.com/icon -->
<!DOCTYPE svg PUBLIC "-//W3C//DTD SVG 1.1//EN" "http://www.w3.org/Graphics/SVG/1.1/DTD/svg11.dtd">
<svg version="1.1" xmlns="http://www.w3.org/2000/svg" xmlns:xlink="http://www.w3.org/1999/xlink" x="0px" y="0px" viewBox="0 0 1000 1000" enable-background="new 0 0 1000 1000" xml:space="preserve">
<metadata> Svg Vector Icons : http://www.onlinewebfonts.com/icon </metadata>
<g><g transform="translate(0.000000,512.000000) scale(0.100000,-0.100000)"><path d="M4869.8,4983.9C4574.7,4855.5,405,2851.1,336,2803.2c-111.1-74.7-191.6-176.3-218.5-275.9c-15.3-51.7-21.1-180.1-15.3-356.4c5.7-254.9,11.5-283.6,57.5-373.7c74.7-139.9,187.8-231.9,350.7-277.9c72.8-21.1,145.6-42.2,159-47.9c15.3-3.8,23-57.5,23-176.3c0-93.9,9.6-199.3,23-235.7c46-139.9,189.7-285.5,308.5-314.3l51.7-13.4v-2075.3v-2075.3l-350.7-7.7c-346.8-5.7-352.6-5.7-431.2-59.4c-44.1-28.7-103.5-88.2-132.2-132.2c-53.7-78.6-53.7-84.3-59.4-419.6c-7.7-421.6,11.5-509.7,138-626.6c46-42.2,118.8-88.2,161-97.7c53.7-15.3,1439.1-19.2,4633.5-17.2l4558.8,5.7l90.1,53.7c59.4,34.5,109.2,84.3,143.7,143.7c51.7,88.2,53.7,99.6,59.4,423.5c7.7,373.7-5.7,458-95.8,565.3c-109.2,134.1-176.3,153.3-536.6,160.9l-321.9,7.7v2075.3V731.7l53.6,13.4c55.6,13.4,166.7,90.1,218.5,153.3c76.7,90.1,99.6,172.5,111.1,373.7l9.6,201.2l95.8,11.5c193.5,24.9,337.3,122.6,427.3,293.2c49.8,93.9,51.7,107.3,51.7,413.9c0,302.8-1.9,321.9-47.9,412c-30.6,57.5-82.4,118.8-134.1,155.2c-105.4,74.7-4604.8,2245.8-4685.2,2259.3C4996.3,5024.2,4938.8,5012.7,4869.8,4983.9z M7240.2,3537.2c1211.1-584.5,2217.1-1073.1,2238.2-1088.4c34.5-24.9,38.3-51.7,38.3-256.8c0-206.9-3.8-231.9-40.2-270.2l-40.3-40.3H5034.6c-3612.1,1.9-4409.3,5.8-4451.5,26.8c-76.7,36.4-105.4,141.8-97.7,348.8c5.7,159,9.6,172.5,59.4,210.8c78.6,59.4,4424.6,2136.6,4463,2132.8C5025,4598.8,6031.1,4119.7,7240.2,3537.2z M3039.8,1323.9c0-241.4,76.7-224.2-981.1-224.2h-889.1l-46,47.9c-42.2,40.2-47.9,63.2-47.9,191.6v143.7l983-3.8l981.1-5.7V1323.9z M3628.1,1293.2c13.4-291.3,105.4-448.4,318.1-542.3l80.5-36.4v-2067.7v-2069.6H3538h-488.6v2075.3V727.9l69,24.9c92,32.6,210.8,143.7,262.5,239.5c30.7,61.3,42.2,122.6,47.9,285.5l7.7,205h92h90.1L3628.1,1293.2z M5981.3,1329.6c0-251,86.2-230-977.3-230c-1063.5,0-977.3-21.1-977.3,230v153.3H5004h977.3V1329.6z M6579.1,1277.9c5.8-162.9,17.2-224.2,47.9-285.5c51.7-95.8,170.5-207,262.5-239.5l69-24.9v-2075.3v-2075.3h-488.7h-488.6v2069.6V714.5l82.4,36.4c210.8,93.9,302.8,251,316.2,542.3l9.6,189.7h90.1h92L6579.1,1277.9z M8932.3,1339.2c0-128.4-5.8-151.4-47.9-191.6l-46-47.9h-889.1c-1042.5,0-973.5-13.4-986.9,197.4c-3.8,70.9-3.8,139.9,3.8,157.1c9.6,24.9,130.3,28.7,988.8,28.7h977.3V1339.2z M2647-1343.6v-2060h-584.5h-584.5v2060v2060h584.5H2647V-1343.6z M5594.2-1347.4l3.8-2056.1h-594h-594V-1357c0,1126.8,5.7,2054.2,13.4,2060c7.7,7.7,272.1,11.5,588.3,9.6l576.8-5.7L5594.2-1347.4z M8529.9-1343.6v-2060h-584.5H7361v2060v2060h584.5h584.5V-1343.6z M9488-4101.1c0-233.8-3.8-277.9-30.7-287.4c-17.3-5.7-2029.3-11.5-4472.5-11.5c-4012.6,0-4445.7,3.8-4472.5,30.7c-24.9,23-30.7,76.7-30.7,274c0,134.1,5.7,251,13.4,256.8c5.7,7.7,2033.1,13.4,4503.2,13.4H9488V-4101.1z"/></g></g>
</svg>