<?xml version="1.0" encoding="utf-8"?>
<!-- Svg Vector Icons : http://www.onlinewebfonts.com/icon -->
<!DOCTYPE svg PUBLIC "-//W3C//DTD SVG 1.1//EN" "http://www.w3.org/Graphics/SVG/1.1/DTD/svg11.dtd">
<svg version="1.1" xmlns="http://www.w3.org/2000/svg" xmlns:xlink="http://www.w3.org/1999/xlink" x="0px" y="0px" viewBox="0 0 1000 1000" enable-background="new 0 0 1000 1000" xml:space="preserve">
<metadata> Svg Vector Icons : http://www.onlinewebfonts.com/icon </metadata>
<g><path d="M990,551.1c0,77,0,155,0,232c-1,1-2,3-2,4c-8,25-21,47-37,68c-42,54-98,90-161,114c-23,9-47,16-70,23c-3,0-5,0-8,0c-13-5-17-15-17-29c0-2,0-3,0-5c0-27-11-49-34-64c-11-7-22-12-34-18c-19-9-39-17-57-27c-22-12-36-31-35-57c0-10-1-21,0-31c0-6,2-12,6-16c10-12,16-26,19-41c2-9,5-16,14-21c7-4,10-17,6-23c-8-10-7-20-4-31c7-23,10-47,7-71c-1-11-4-23-14-29c-16-9-32-18-48-25c-19-9-41-4-61,2c-23,7-36,23-42,46c-6,28-2,55,5,82c2,9,2,17-4,24c-5,7-3,20,5,24c8,5,11,12,14,21c4,12,7,25,15,34c10,12,12,23,11,37c0,8-1,17-1,25c0,13-4,25-13,33c-11,10-23,19-36,26c-19,10-39,17-58,26c-35,16-54,42-52,82c1,20-11,28-30,23c-46-12-90-28-130-52c-44-26-82-58-108-101c-10-17-18-36-26-54c0-77,0-155,0-232c1-2,1-3,2-5c2-17,8-32,17-46c13-20,32-32,53-43c13-7,26-13,39-21c5-3,11-9,13-15c8-31-15-53-24-80c0,0-1,0-1-1c-16-18-21-38-14-61c1-4,1-9,1-13c-2-21-6-42-6-63c0-29,11-54,38-69c10-6,21-11,32-17c21-11,43-12,66-9c49,5,82,34,92,80c5,25,2,49-2,73c-1,5-2,10,0,14c9,25,4,46-14,65c-2,2-3,5-5,8c-4,10-7,20-13,29c-8,11-9,23-8,35c1,13,4,17,17,21c2-5,5-10,8-15c16-30,43-47,72-61c15-7,29-14,44-22c13-8,18-34,10-47c-7-12-12-26-18-39c-1-2-3-5-5-7c-16-16-22-43-13-65c1-2,2-6,1-8c-2-13-4-26-5-40c-5-60,22-109,88-118c30-4,59-5,84,17c1,1,3,2,5,2c27,9,43,28,50,56c6,27,3,53-3,80c-1,4-1,10,0,14c6,20,4,39-8,55c-7,9-11,19-15,29c-4,8-7,16-12,23c-9,15-5,41,11,49c14,8,28,14,43,22c24,12,46,25,62,47c7,9,12,19,19,31c5-6,12-11,13-17c8-31-16-53-25-79c0,0,0,0-1-1c-15-15-21-42-13-62c1-4,2-8,2-12c-1-12-4-23-5-35c-5-61,21-111,88-121c30-5,59-4,84,17c2,1,4,2,6,3c25,8,41,25,48,51c8,29,4,58-2,87c-1,3-1,6,0,8c9,25,4,47-14,67c-2,2-2,4-3,7c-5,12-10,23-16,35c-9,20-8,46,14,55c12,5,23,12,35,17c27,14,50,32,62,61C985,529.1,987,540.1,990,551.1z M734,946.1c5-1,11-2,15-4c30-13,60-24,89-40c42-23,77-56,100-99c6-11,12-23,12-35c1-67,1-135,1-202c0-31-13-54-41-68c-8-4-16-7-23-12c-14-8-28-15-41-25c-11-8-18-19-19-33c-1-13-1-27-1-40c0-5,2-12,5-16c9-12,15-25,19-39c2-7,7-13,12-18c6-6,9-15,4-21c-6-8-5-16-3-26c3-19,6-38,8-58c1-13-1-27-13-35c-14-10-30-18-46-24c-9-3-20-3-30-2c-38,2-60,22-61,60c-1,21,4,42,6,63c0,7-1,14-4,21c-3,8-3,18,4,22c8,5,10,12,13,20c4,10,6,22,13,30c8,10,11,20,10,33c0,7-1,15,0,22c1,17-7,31-20,41c-11,8-23,14-36,20c-17,8-28,2-33-16c-6-27-22-47-46-60c-21-11-43-22-64-33c-14-8-27-19-30-36c-3-18-2-36-2-53c0-3,2-6,4-8c10-11,15-25,19-39c2-6,7-13,12-18c5-5,10-15,6-20c-8-10-5-19-4-30c3-19,7-39,7-59c-1-28-14-36-31-40c-5-1-9-5-13-8c-5-3-10-7-15-8c-10-2-21-2-31-2c-40,3-61,25-61,66c0,18,4,37,7,55c1,8,1,16-4,23c-5,6-3,17,4,21c8,5,11,13,13,21c4,11,8,23,15,32c6,8,9,16,9,25c0,8-1,16-1,24c1,26-12,42-33,54c-14,8-29,15-44,22c-33,15-59,36-66,75c-2,13-16,18-29,13c-11-5-22-10-31-16c-13-8-24-19-26-34c-2-17-1-34-1-51c0-4,4-7,6-11c6-12,12-24,17-36c3-8,5-15,13-20c6-4,9-14,5-20c-7-9-5-18-4-28c2-21,6-42,5-63c-1-22-12-39-33-47c-17-7-35-9-53-6c-7,1-13,5-19,8c-6,3-10,8-16,9c-18,4-26,15-28,32c-4,24,0,47,7,70c2,8,2,16-3,24c-5,6-3,17,3,21c9,5,11,14,14,23c4,11,10,21,14,32c3,7,7,13,8,20c1,10,0,20,0,30c1,24-12,40-31,52c-14,9-29,17-45,24c-34,16-50,42-50,80c1,62,0,124,0,186c0,13,2,24,8,35c7,13,14,25,22,37c36,48,86,79,141,101c15,6,30,11,46,16c3-22,9-41,21-57c17-23,41-36,66-47c17-8,34-16,52-22c24-9,25-40,15-59c-6-12-12-25-18-38c-2-3-3-7-6-10c-16-17-23-37-16-59c4-13,3-25,1-37c-1-5-2-11-2-16c-2-27-1-53,10-78c18-40,52-56,94-60c29-3,58-2,81,20c1,1,3,2,4,2c34,10,51,34,56,67c4,27,1,54-5,81c-1,4-1,8,0,12c9,22,5,43-8,60c-9,11-13,23-19,36c-2,4-3,9-6,12c-10,12-10,25-10,39c0,12,5,19,15,25c4,2,8,5,13,7c15,6,30,12,44,19c16,8,33,17,48,28C718,889.1,731,915.1,734,946.1z"/></g>
</svg>