<?xml version="1.0" encoding="utf-8"?>
<!-- Svg Vector Icons : http://www.onlinewebfonts.com/icon -->
<!DOCTYPE svg PUBLIC "-//W3C//DTD SVG 1.1//EN" "http://www.w3.org/Graphics/SVG/1.1/DTD/svg11.dtd">
<svg version="1.1" xmlns="http://www.w3.org/2000/svg" xmlns:xlink="http://www.w3.org/1999/xlink" x="0px" y="0px" viewBox="0 0 1000 1000" enable-background="new 0 0 1000 1000" xml:space="preserve">
<metadata> Svg Vector Icons : http://www.onlinewebfonts.com/icon </metadata>
<g><g transform="translate(0.000000,511.000000) scale(0.100000,-0.100000)"><path d="M1271.9,4909.4c-217.6-60.7-366.1-219.7-424.7-451.9c-79.5-318,50.2-633.9,313.8-763.7c140.2-69,357.8-90,493.8-46l94.2,29.3l690.4-686.3c684.2-682.1,692.5-688.3,778.3-688.3c159,0,267.8,144.3,215.5,284.5c-12.6,33.5-318,355.7-690.4,730.2l-667.4,669.5l31.4,115.1c56.5,207.1,2.1,468.6-129.7,623.5C1828.4,4901.1,1520.9,4980.6,1271.9,4909.4z M1654.8,4424c92.1-106.7,87.9-198.8-18.8-303.4c-64.9-64.8-96.2-81.6-159-81.6s-94.2,16.7-159,81.6c-102.5,102.5-110.9,194.6-25.1,297.1C1410,4555.9,1535.5,4560,1654.8,4424z"/><path d="M8293.4,4901.1c-211.3-75.3-334.8-211.3-393.3-433.1c-39.8-154.8-39.8-221.8-2.1-366.1l31.4-115.1l-667.4-669.5c-372.4-374.5-677.9-696.7-690.4-730.2c-52.3-140.2,56.5-284.5,215.5-284.5c85.8,0,92.1,6.3,769.9,682.1l682.1,682.1l123.4-25.1c251.1-52.3,525.2,27.2,665.3,192.5c198.8,230.1,198.8,661.1,0,891.3C8870.9,4909.4,8540.3,4988.9,8293.4,4901.1z M8705.6,4424c92.1-106.7,87.9-198.8-18.8-303.4c-113-113-205-113-318,0c-102.5,102.5-110.9,194.6-25.1,297.1C8460.8,4555.9,8586.3,4560,8705.6,4424z"/><path d="M4521.1,2294.1c-326.4-69-613-221.8-797.1-428.9c-133.9-148.5-278.3-443.6-322.2-656.9c-29.3-150.6-29.3-169.5,4.2-238.5c39.7-85.8,146.5-140.2,236.4-121.3c96.2,20.9,148.5,98.3,190.4,284.5c52.3,217.6,121.3,347.3,259.4,477c228,215.5,456.1,282.5,910.1,267.8c259.4-6.3,324.3-16.8,447.7-62.8c278.3-104.6,500-305.5,556.5-504.2c33.5-123.4,18.8-355.7-31.4-451.9c-56.5-108.8-242.7-295-539.8-537.7c-378.7-309.6-464.5-456.1-489.6-834.8c-14.6-223.8,8.4-307.5,100.4-353.6c92.1-48.1,177.8-39.8,251.1,27.2c62.8,56.5,66.9,71.1,83.7,257.3c25.1,307.6,31.4,318,391.2,610.9c533.5,435.2,694.6,688.3,694.6,1092.1c0,303.4-102.5,531.4-345.2,776.2c-186.2,186.2-357.8,284.6-638.1,364.1C5282.7,2319.3,4732.4,2338.1,4521.1,2294.1z"/><path d="M514.5,714.5C232.1,580.6,58.4,279.3,108.6,7.4c58.6-309.6,357.8-571.2,657-571.2c169.5,0,343.1,83.7,477,228L1343-229.1h972.9c675.8,0,987.5,6.3,1018.9,23c79.5,39.8,119.3,106.7,119.3,202.9c0,73.2-12.6,102.5-60.7,152.7l-60.7,60.7h-949.9h-947.8l-37.7,102.5c-52.3,146.5-223.9,328.5-380.8,403.8C843,798.2,686.1,798.2,514.5,714.5z M916.2,304.4c104.6-73.2,104.6-324.3,0-397.5c-92.1-64.9-324.3-23-357.8,62.8c-20.9,56.5-14.6,240.6,10.5,284.5c12.6,23,41.8,50.2,66.9,60.7C711.2,344.2,868.1,337.9,916.2,304.4z"/><path d="M8988,716.6c-156.9-75.3-328.5-257.4-380.8-403.8l-37.7-102.5h-947.8h-949.9l-60.7-60.7c-104.6-106.7-75.3-286.6,58.6-355.7c31.4-16.7,343.1-23,1018.9-23h972.9l100.4-106.7c133.9-144.4,307.6-228,477-228c244.8,0,493.8,173.7,608.8,424.7c142.3,311.7-16.7,690.4-357.8,853.6C9318.6,798.2,9161.7,798.2,8988,716.6z M9373,304.4c73.2-35.6,85.8-67,85.8-198.8c0-56.5-6.3-117.2-12.5-136c-31.4-81.6-234.3-121.3-343.1-67c-110.9,56.5-127.6,286.6-29.3,385C9130.3,344.2,9278.8,354.7,9373,304.4z"/><path d="M5155.1-1185.2c-25.1-4.2-71.1-37.7-100.4-71.1c-50.2-62.8-52.3-71.1-52.3-395.4s2.1-332.7,52.3-393.3c67-81.6,150.6-100.4,249-58.6c115.1,48.1,138.1,123.4,138.1,454c0,202.9-8.4,290.8-31.4,343.1C5366.4-1216.6,5259.7-1166.4,5155.1-1185.2z"/><path d="M2447.7-2773.2l-682.1-682.1l-123.4,25.1c-253.2,52.3-523.1-25.1-665.3-192.5c-98.3-113-146.5-263.6-146.5-445.6c0-278.3,115.1-479.1,338.9-590c104.6-50.2,144.4-58.6,307.6-58.6s202.9,8.4,307.6,58.6c66.9,33.5,152.7,96.3,192.5,144.4c131.8,154.8,186.2,416.3,129.7,623.5l-31.4,115.1l667.4,669.5c372.4,374.5,677.9,696.7,690.4,730.2c52.3,140.2-56.5,284.6-215.5,284.6C3131.9-2091.1,3125.6-2097.4,2447.7-2773.2z M1635.9-3909.3c106.7-104.6,110.9-196.7,18.8-303.4c-119.3-136-244.8-131.8-361.9,6.3c-85.8,102.5-77.4,194.6,25.1,297.1c64.9,64.9,96.2,81.6,159,81.6S1571.1-3844.4,1635.9-3909.3z"/><path d="M6638.5-2143.4c-75.3-62.8-98.3-146.5-67-232.3c12.5-33.5,318-355.7,690.4-730.2l667.4-669.5l-31.4-115.1c-56.5-207.1-2.1-468.7,129.7-623.5c39.8-48.1,125.5-110.9,192.5-144.4c104.6-50.2,144.4-58.6,307.6-58.6c163.2,0,202.9,8.4,307.6,58.6c223.9,110.9,338.9,311.7,338.9,590c0,182-48.1,332.7-146.5,445.6c-142.3,167.4-412.2,244.8-665.3,192.5l-123.4-25.1l-682.1,682.1c-677.9,675.8-684.2,682.1-769.9,682.1C6724.2-2091.1,6682.4-2105.8,6638.5-2143.4z M8686.7-3909.3c106.7-104.6,110.9-196.7,18.8-303.4c-119.3-136-244.8-131.8-362,6.3c-85.8,102.5-77.4,194.6,25.1,297.1c64.8,64.9,96.2,81.6,159,81.6C8590.5-3827.7,8621.9-3844.4,8686.7-3909.3z"/></g></g>
</svg>