<?xml version="1.0" encoding="utf-8"?>
<!-- Svg Vector Icons : http://www.onlinewebfonts.com/icon -->
<!DOCTYPE svg PUBLIC "-//W3C//DTD SVG 1.1//EN" "http://www.w3.org/Graphics/SVG/1.1/DTD/svg11.dtd">
<svg version="1.1" xmlns="http://www.w3.org/2000/svg" xmlns:xlink="http://www.w3.org/1999/xlink" x="0px" y="0px" viewBox="0 0 1000 1000" enable-background="new 0 0 1000 1000" xml:space="preserve">
<metadata> Svg Vector Icons : http://www.onlinewebfonts.com/icon </metadata>
<g><path d="M951.5,309.3c-24.7-58.4-60-110.8-105-155.7c-45-45-97.4-80.3-155.7-105C630.3,23,566.1,10,500,10S369.7,23,309.3,48.5c-58.4,24.7-110.8,60-155.7,105c-45,45-80.3,97.4-105,155.7C23,369.7,10,433.9,10,500c0,66.1,13,130.3,38.5,190.7c24.7,58.4,60,110.8,105,155.7c45,45,97.4,80.3,155.7,105C369.7,977,433.9,990,500,990s130.3-13,190.7-38.5c58.4-24.7,110.8-60,155.7-105c45-45,80.3-97.4,105-155.7C977,630.3,990,566.1,990,500C990,433.9,977,369.7,951.5,309.3L951.5,309.3z M500,942.4C256.1,942.4,57.6,743.9,57.6,500C57.6,256.1,256.1,57.6,500,57.6c243.9,0,442.4,198.5,442.4,442.4C942.4,743.9,743.9,942.4,500,942.4z M698.1,437.3c32.7,0,59.2-26.5,59.2-59.2c0-32.7-26.5-59.2-59.2-59.2c-32.7,0-59.2,26.5-59.2,59.2S665.4,437.3,698.1,437.3z M301.9,435.8c32.7,0,59.2-26.5,59.2-59.2c0-32.7-26.5-59.2-59.2-59.2c-32.7,0-59.2,26.5-59.2,59.2C242.7,409.3,269.2,435.8,301.9,435.8z M749.2,616.7c-10.5-7.8-25.5-5.6-33.3,4.9C666.3,688.4,585.6,728.2,500,728.2c-85.6,0-166.3-39.8-215.9-106.6c-7.8-10.5-22.8-12.7-33.3-4.9c-10.5,7.8-12.7,22.8-4.9,33.3c28.3,38.1,66.1,69.8,109.1,91.5c44.4,22.4,94.5,34.3,145,34.3c50.5,0,100.6-11.9,145-34.3c43-21.7,80.8-53.4,109.1-91.5C762,639.5,759.8,624.5,749.2,616.7L749.2,616.7z"/></g>
</svg>