<?xml version="1.0" encoding="utf-8"?>
<!-- Svg Vector Icons : http://www.onlinewebfonts.com/icon -->
<!DOCTYPE svg PUBLIC "-//W3C//DTD SVG 1.1//EN" "http://www.w3.org/Graphics/SVG/1.1/DTD/svg11.dtd">
<svg version="1.1" xmlns="http://www.w3.org/2000/svg" xmlns:xlink="http://www.w3.org/1999/xlink" x="0px" y="0px" viewBox="0 0 1000 1000" enable-background="new 0 0 1000 1000" xml:space="preserve">
<metadata> Svg Vector Icons : http://www.onlinewebfonts.com/icon </metadata>
<g><g transform="translate(0.000000,511.000000) scale(0.100000,-0.100000)"><path d="M4918.5,4999c-35.6-14.3-420.1-363.1-858-776.1L3263,3471.6h-968.4c-907.9,0-972-3.5-1064.5-67.6c-67.7-49.8-235-356-551.8-993.3c-252.8-509.1-466.4-971.9-477.1-1032.5c-24.9-153.1,92.6-267,274.1-267h142.4V-1737v-2848.2H389.9c-256.3,0-348.9-57-252.8-156.7c53.4-53.4,498.4-57,4859.7-57c4261.6,0,4806.3,7.1,4856.2,53.4c106.8,106.8,32,160.2-231.4,160.2H9376l7.1,2837.5l10.7,2841.1l156.7,21.4c174.4,21.4,252.8,103.2,249.2,242.1c-3.6,146-925.7,1965.3-1032.5,2043.6c-81.9,57-178,64.1-1046.7,67.7l-957.7,3.5l-160.2,146c-89,81.9-445,413-786.8,737C5103.7,5031,5068.1,5055.9,4918.5,4999z M5790.8,4094.7c416.6-391.6,818.9-776.1,897.2-854.5l142.4-135.3l-131.7-131.7l-131.7-131.7l-544.7,512.7c-299.1,281.3-637.3,598.1-747.7,701.4c-110.4,103.2-235,188.7-274.1,188.7c-64.1,0-480.6-370.3-1420.5-1260.3l-149.5-142.4l-131.7,128.2l-128.2,128.2l316.9,299.1c174.4,167.3,580.3,551.8,904.3,858c324,306.2,601.7,555.4,615.9,559C5021.8,4813.9,5374.3,4489.9,5790.8,4094.7z M5758.7,3325.7l733.4-687.1V-975.1v-3610.1h-213.6H6065v242.1c0,295.5-57,388.1-252.8,420.1l-138.8,24.9v968.4c0,1192.7,53.4,1100.1-612.4,1114.3c-509.1,14.3-633.7-14.2-701.4-156.7c-24.9-60.5-39.2-402.3-39.2-1011.1c0-911.4,0-925.6-74.8-925.6c-81.9,0-213.6-64.1-252.8-121.1c-14.2-21.3-28.5-156.6-28.5-295.5v-259.9h-213.6h-213.6v3627.9V2667l722.7,680c395.2,373.8,729.8,676.4,744.1,672.9C5018.2,4016.4,5356.5,3703.1,5758.7,3325.7z M3010.3,3240.2c-92.6-92.6-46.3-224.3,135.3-402.3l178-174.4v-687.1v-687.1H1881.7c-1150,0-1449,10.7-1463.3,46.3c-24.9,64.1,854.5,1862,936.4,1908.3C1450.9,3300.7,3067.2,3297.2,3010.3,3240.2z M8635.5,3243.8c85.4-46.3,968.4-1833.5,939.9-1908.3c-14.2-39.1-281.2-46.3-1445.4-46.3H6705.8v704.9v704.9l160.2,156.6c163.8,160.2,206.5,295.5,117.5,384.5C6926.5,3297.2,8525.1,3300.7,8635.5,3243.8z M3323.6-1737v-2848.2l-1253.2,7.1l-1256.8,10.7l-10.7,2841.1l-7.1,2837.5h1263.9h1263.9V-1737z M9190.8-1744.1l7.1-2841.1H7951.9H6705.8V-1737v2848.2l1239-7.1l1235.4-10.7L9190.8-1744.1z M5488.2-2972.4l7.1-936.3h-480.6h-480.6v918.5c0,505.6,10.7,932.8,24.9,947c14.2,10.7,224.3,17.8,469.9,14.3l448.6-10.7L5488.2-2972.4z M5851.3-4353.7v-231.4l-843.8,7.1l-847.3,10.7l-10.7,174.4c-7.1,96.1-3.6,195.8,7.1,220.7c14.2,39.2,178,49.8,858,49.8h836.7V-4353.7z"/><path d="M4818.9,2752.5c-370.3-121-569.6-381-569.6-740.5c3.6-640.8,754.8-989.7,1231.8-573.2c67.7,60.5,156.7,170.9,195.8,245.7c124.6,249.2,71.2,640.8-121,843.8C5388.5,2709.7,5025.4,2820.1,4818.9,2752.5z M5246.1,2506.8c142.4-71.2,274.2-249.2,306.2-420.1c17.8-89,0-163.8-60.5-288.4c-220.7-448.6-765.4-448.6-986.2-3.5c-64.1,124.6-78.3,195.8-57,291.9C4519.8,2467.7,4911.4,2677.7,5246.1,2506.8z"/><path d="M4448.6,502.4l-92.6-71.2v-658.7c0-847.3-42.7-797.5,655.1-797.5c712,0,676.4-39.2,690.7,729.8c14.2,648-14.3,783.2-160.2,840.2c-46.3,17.8-291.9,32-541.1,32C4591,577.2,4534.1,570,4448.6,502.4z M5477.5-241.7v-587.4l-423.7-10.7c-277.7-7.1-437.9,3.5-470,32c-39.2,32.1-49.8,163.8-49.8,583.9c0,295.5,10.7,551.8,24.9,566c14.2,10.7,224.3,17.8,469.9,14.2l448.6-10.7V-241.7z"/><path d="M1554.1,356.4c-135.3-64.1-160.2-192.2-146-822.4c14.2-783.3-32.1-737,722.7-737c772.6,0,729.8-49.9,729.8,797.5c0,623,0,630.2-89,715.6c-81.9,85.4-99.7,89-612.4,85.4C1867.4,395.6,1596.9,377.8,1554.1,356.4z M2640-409l-10.7-598.1h-498.4h-498.4l-10.7,551.8c-3.6,302.6,0,569.6,7.1,594.6c14.2,35.6,142.4,46.3,519.8,46.3h498.4L2640-409z"/><path d="M1486.5-2025.4c-60.5-67.6-67.6-146-78.3-662.2c-7.1-388.1,3.5-623,28.5-687.1c64.1-160.2,181.6-185.1,765.5-170.9c697.8,14.2,658.6-32.1,658.6,808.1c0,833.1,42.7,786.8-737,786.8C1589.7-1950.6,1550.6-1954.2,1486.5-2025.4z M2640-2744.5l7.1-598.1l-505.6,10.7l-509.1,10.7l-10.7,551.8c-3.6,302.6,0,569.6,10.7,594.6c10.7,39.2,124.6,46.3,505.6,39.2l491.3-10.7L2640-2744.5z"/><path d="M7357.3,363.5c-135.3-53.4-153.1-146-153.1-776.1c0-555.4,7.1-608.8,74.7-697.8l71.2-92.5h583.9H8518l71.2,92.5c67.6,89,74.8,142.4,74.8,676.4c0,619.5-21.3,729.9-167.3,793.9C8393.4,406.3,7471.2,409.8,7357.3,363.5z M8432.5-419.7v-587.4h-498.4h-498.4L7425-409l-7.1,598.1l505.6-10.7l509.1-10.7V-419.7z"/><path d="M7279-2043.2c-67.6-89-74.7-142.4-74.7-708.5c0-822.4-35.6-779.7,658.6-793.9c573.2-14.3,694.3,10.7,761.9,156.6c24.9,53.4,39.2,313.3,39.2,669.3c0,534-7.1,587.4-74.8,676.4l-71.2,92.6h-583.9h-583.9L7279-2043.2z M8443.2-2741l7.1-598.1h-516.2h-516.2v580.3c0,320.4,10.7,594.6,24.9,608.8c14.2,10.7,242.1,17.8,505.6,14.3l484.2-10.7L8443.2-2741z"/></g></g>
</svg>