<?xml version="1.0" encoding="utf-8"?>
<!-- Svg Vector Icons : http://www.onlinewebfonts.com/icon -->
<!DOCTYPE svg PUBLIC "-//W3C//DTD SVG 1.1//EN" "http://www.w3.org/Graphics/SVG/1.1/DTD/svg11.dtd">
<svg version="1.1" xmlns="http://www.w3.org/2000/svg" xmlns:xlink="http://www.w3.org/1999/xlink" x="0px" y="0px" viewBox="0 0 1000 1000" enable-background="new 0 0 1000 1000" xml:space="preserve">
<metadata> Svg Vector Icons : http://www.onlinewebfonts.com/icon </metadata>
<g><path d="M714.2,947.4H444.9c-25.4,0-49.3-9.9-67.2-27.9c-18.8-18.8-28.6-43.8-27.7-70.3c0.9-26.2,12.7-51.2,32.4-68.4c3.3-2.9,6.8-5.5,10.3-7.8c4.6-39.6,31.9-73.3,69.5-85.8c4.9-6.8,10.7-12.9,17.3-18.2c19.5-15.8,45.2-23.6,69.9-20.3c1,0.1,2,0.3,3.1,0.4c1,0,1.9,0.1,2.8,0.2c7.2,0.5,30.1,2,30.1,2c7,0.6,9,0.8,10.4,0.8c26-0.7,52.6,7.4,73.7,23.9c0.7,0.4,1.3,0.9,1.9,1.4c7.8,6.4,14.9,14.1,20.8,22.6c22.4,3.6,43.2,14.1,59.4,30.4c14.9,14.9,25.1,33.9,29.4,54.2c4.7,4.7,8.9,9.8,12.6,15.3c10.3,15.4,15.8,33.6,15.8,52.2c0,25.5-9.9,49.4-27.9,67.4C763.5,937.5,739.6,947.4,714.2,947.4z M539,697.4c-10.3,0-20.4,3.6-28.5,10.1c-4.6,3.7-8.4,8.2-11.2,13.2c-3.5,6.2-9.4,10.6-16.4,12.1c-24.1,5.2-41.6,26.9-41.6,51.6l0.1,3c0.2,10-5.6,19.1-14.7,23.1c-4.1,1.9-8.2,4.4-12,7.7c-9.5,8.3-15,19.9-15.4,32.7c-0.4,12.7,4.3,24.6,13.2,33.6c8.6,8.6,20,13.3,32.2,13.3h269.3c12.2,0,23.6-4.7,32.2-13.3c8.7-8.7,13.4-20.2,13.4-32.4c0-8.8-2.6-17.4-7.6-24.9c-2.7-4.1-5.9-7.7-9.8-10.8c-5.1-4.1-8.3-10-9-16.4c-1.5-13.2-7.3-25.1-16.8-34.7c-10.6-10.7-24.7-16.8-39.7-17.2c-8.9-0.3-16.9-5.3-21.1-13.1c-3.7-6.9-8.6-13.1-14.3-18.1c-0.7-0.5-1.5-1.1-2.2-1.7c-11.2-8.9-25.1-13.7-39.3-13.7l-4.2,0.1c-2,0-4.9-0.1-14.2-0.9l-15.8-1c-4.2-0.3-8.5-0.6-12.6-1.1c-0.5,0-0.9-0.1-1.4,0c-0.5,0-0.9,0-1.4,0v0c0,0,0,0,0,0l0,0c-2.5-0.1-5-0.4-7.5-0.8C541.6,697.6,540.3,697.4,539,697.4z"/><path d="M286.1,590.6C286.1,590.6,286.1,590.6,286.1,590.6C96,590.6,14,246.8,10.6,232.2c-3-12.9,4.7-25.8,17.4-29.4c93.4-26.3,174.2-39.6,240.1-39.6c95.8,0,163.4,27.7,201,82.4c63.4,92.2,13.9,224.3,11.7,229.9c-1.1,2.9-2.7,5.5-4.8,7.8C411.1,554.5,347.2,590.6,286.1,590.6z M64.8,244.1c27.7,100.4,105.7,297,221.3,297c0,0,0,0,0,0c45.6,0,96.1-29.5,150-87.6c7-21,35.5-117.1-7.9-180.1c-27.8-40.4-81.7-60.8-160.1-60.8C212.2,212.6,143.9,223.2,64.8,244.1z"/><path d="M801.9,428.3C801.9,428.3,801.9,428.3,801.9,428.3c-72.1,0-137.2-36.6-140-38.2c-4.4-2.5-7.9-6.2-10.1-10.8c-45-93.4-49.8-169.5-14.3-226.1C689.8,70.1,812.9,52.6,906.8,52.6c34.3,0,57.8,2.5,58.8,2.6c11.9,1.3,21.2,11,22,22.9c9.9,143.1-11.5,243.9-63.7,299.7C892.8,411.3,851.7,428.3,801.9,428.3z M693,350.5c16.5,8.2,61.9,28.3,108.9,28.3c0,0,0,0,0,0c36,0,64.1-11.4,85.9-34.8c40-42.8,57.3-123.8,51.7-241.1c-8.8-0.5-19.9-0.8-32.7-0.8c-66.7,0-185,10.1-227.3,77.5C654.5,219.5,659,276.9,693,350.5z"/><path d="M576.6,690.3c-12.5,0-23.2-9.4-24.6-22c-14.6-131.5-107.5-179.4-108.5-179.9c-12.2-6.1-17.2-21-11.1-33.2c6.1-12.2,21-17.2,33.2-11.1c4.8,2.4,118,60.7,135.5,218.7c1.5,13.6-8.3,25.8-21.9,27.3C578.4,690.2,577.5,690.3,576.6,690.3z"/><path d="M547.3,590.6c-13.1,0-24.1-10.3-24.7-23.6c-4.5-96.5,121.3-205.2,135.7-217.3c10.4-8.8,26.1-7.5,34.9,3c8.8,10.5,7.5,26.1-3,34.9c-33.8,28.5-121,116-118.1,177.2c0.6,13.7-9.9,25.2-23.6,25.9C548,590.6,547.6,590.6,547.3,590.6z"/><path d="M436.3,480c-5.2,0-10.2-3-12.5-8.1c-75.1-165.5-281.2-181-283.3-181.1c-7.6-0.5-13.3-7-12.8-14.6c0.5-7.6,7-13.4,14.6-12.8c9.1,0.6,224.7,16.9,306.5,197.2c3.1,6.9,0.1,15.1-6.8,18.2C440.1,479.6,438.2,480,436.3,480z"/><path d="M686.4,382.3c-0.2,0-0.5,0-0.7,0c-7.6-0.4-13.4-6.8-13-14.4C683.3,158.9,874.1,141.5,876,141.4c7.5-0.6,14.2,5.1,14.8,12.6c0.6,7.6-5,14.2-12.6,14.8l0,0c-6.9,0.6-168.7,16.1-178.1,200.5C699.8,376.6,693.7,382.3,686.4,382.3z"/><path d="M791.6,306.2c-41.7,0-79.6-15.4-82-16.4c-7-2.9-10.3-10.9-7.4-18c2.9-7,10.9-10.3,18-7.5c0.8,0.3,77.2,31.3,121.2,1.3c6.3-4.3,14.8-2.6,19.1,3.6c4.3,6.3,2.6,14.8-3.6,19.1C837.2,301.8,813.8,306.2,791.6,306.2z"/><path d="M193.9,417.3c-2.6,0-5.3,0-8-0.1c-7.6-0.1-13.6-6.4-13.5-14c0.1-7.6,6.5-13.6,14-13.5c119.6,2.7,136.4-45.9,136.6-46.4c2.3-7.1,9.9-11.3,17-9.1c7.2,2.1,11.4,9.4,9.4,16.6C348.7,353.6,329.9,417.3,193.9,417.3z"/></g>
</svg>