<?xml version="1.0" encoding="utf-8"?>
<!-- Svg Vector Icons : http://www.onlinewebfonts.com/icon -->
<!DOCTYPE svg PUBLIC "-//W3C//DTD SVG 1.1//EN" "http://www.w3.org/Graphics/SVG/1.1/DTD/svg11.dtd">
<svg version="1.1" xmlns="http://www.w3.org/2000/svg" xmlns:xlink="http://www.w3.org/1999/xlink" x="0px" y="0px" viewBox="0 0 1000 1000" enable-background="new 0 0 1000 1000" xml:space="preserve">
<metadata> Svg Vector Icons : http://www.onlinewebfonts.com/icon </metadata>
<g><g><g><path d="M165.6,355.1c-3.6-16.4-28.7-9.4-25.1,6.9c12.2,54.9,52.6,92.6,101,115.4c4.2,25.2,12.2,49.5,28.1,70.1c27.8,35.7,66,62.2,102.9,87.7c34.6,23.9,69.6,47.3,104.5,70.7c2.2,9.3,4.2,18.6,5.9,28c7.8,43.6,5.2,193.2,3.7,237.2c0,1.2,0.1,2.3,0.3,3.4c-3,7.7,0.8,18.3,11.6,18.3h45.1c1.2,0,2.3-0.2,3.4-0.4c6.5,0,13.1-4.1,13.1-12.6V681.8c19.3-25.2,40.9-48.3,64.8-69.6c27.7-24.6,61-43.7,83.5-73.8c12.3-16.4,21.4-34.6,27.4-53.7c0.5-0.2,1.1-0.3,1.6-0.5c21.3-6.8,65.9-17.4,71.2-44.1c7.1-35.9-3.4-78.4-9.7-114c-2.9-16.5-28-9.5-25.1,6.9c3.8,21.4,6.8,42.8,8.9,64.4c0.9,8.7,1.5,17.4,1.8,26.2c0.9,19.3-24.8,24.7-37.5,29.7c-1.5,0.6-3,1.1-4.6,1.7c4.1-29.8,0.6-60.7-10.9-89.6c-6.1-15.4-31.3-8.7-25.1,6.9c12.3,30.9,14.3,62.3,7.5,91.7c-13,3.5-26.1,6.5-39.3,9.4c3.5-4.2,7.1-8.4,10.7-12.5c11-12.6-7.3-31-18.4-18.4c-11.1,12.7-21.9,26-32.4,39.7c-25.7,6.1-53,17.6-74.6,34.4v-72.8c0-3.9-1.4-6.8-3.6-8.9c3.5-2.5,7.2-4.9,10.6-7.3c20.8-14.2,40.8-29.4,58.7-47.3c31.6-31.5,48.7-74,42.3-118.4c-2.4-16.5-27.4-9.5-25.1,6.9c9.4,65.2-49.2,109.1-96.5,141.4c-21.4,14.7-32.7,30.9-37.6,49.9c-5.6-5.5-12-10.6-19.5-15.6c-42.7-28.4-69-75.8-77.1-125.7c-2.7-16.5-27.7-9.5-25.1,6.9c6.2,38.6,22.4,72.5,46.7,103c11.9,15,26.8,27.2,42.3,38.2c9.9,7.1,17.1,13.8,22.2,21.3l-0.1,21.2c-2.9-2.1-5.8-4.1-8.7-6.1c-13.1-8.8-28.5-13.4-43.8-16.7c-19.6-4.3-40-5.5-60.4-6.5c-25-26.4-51.6-51.5-76.3-77.1c-11.7-12.1-30,6.3-18.4,18.4c18.2,18.8,37.3,37.3,55.9,56.2c-2-0.2-4-0.3-6.1-0.6c-25-2.8-51.1-8.5-75.3-17.9c-1.5-11.5-2.3-23.4-3-35.4c-2.5-46,0-92.2,5.7-137.9c2.1-16.6-24-16.4-26,0c-6.1,49.1-7.8,98.3-5.1,147.7c0.2,4.2,0.5,8.4,0.8,12.6C202.8,427.1,175,397.6,165.6,355.1z M650,504.7c18.6-4.7,37.4-8.4,54.3-12c-9.3,20.4-23,39.2-41,55.3c-24.8,22.4-52.5,40.9-76.6,64.2c-4.4,4.2-8.5,8.6-12.7,13C595.4,583.7,621.5,542.4,650,504.7z M560.1,550c11.7-14.3,29.1-24.6,48.9-32.5c-17.6,25.6-34.1,52.2-48.9,79.2V550z M531.9,468c0.4-2.9,1.2-5.6,2.1-8.1v48.9c-0.4-2.7-1-5.4-1.6-8C531.1,489.9,530.4,479.1,531.9,468z M476.7,526.1c7.6,4.5,14.6,9.4,21.6,14.1l-0.8,140.9c-7.7-27.7-17.6-54.9-28.6-81.5c-13.9-33.6-34.4-63.2-57.7-90.8C434.4,510.5,456.2,514.1,476.7,526.1z M281.6,492.5c29.9,8.7,61.3,12,92.5,14.1c29.8,32.6,56.3,67.6,73.4,108.7c7.2,17.4,13.7,35.2,19.3,53.2c-56.4-36.2-113.9-73.1-161.3-119.2c-18.2-17.7-28.3-38.1-34.3-60.1C274.7,490.4,278.2,491.5,281.6,492.5z"/><path d="M891.2,302.1c5.9-12.4,9.9-27.5,12.2-45.8c6.8-53.4-4.7-96.2-35-130.7C842.7,96.5,799,78.4,754.1,78.4c-30.7,0-58.4,8.5-79.4,24.3c-26.1-69.6-99.8-95-157-95.4h-0.8c-37.6,0-77.1,16.2-103,42.3c-17.9,18-28.6,39.6-31.4,62.9c-26.9-16.6-62.1-25.9-98.8-25.9c-12.8,0-25,1.2-36.5,3.4c-24.3,4.9-45,19.4-59.7,42c-17.3,26.4-24.3,60.6-19.4,93.1C111.7,226,39.7,253.4,18.6,328.3c-9.5,33.8-16,81,7.5,113.6c17.9,24.9,43.5,38.6,78.2,41.6c-11.5,39.6-8.9,97.1,16.3,129.5c34,43.8,85.5,67.9,145.1,67.9c3.8,0,7.6-0.1,11.4-0.3c12.8-0.6,19.4-12.1,19.2-22.6c-0.3-11.6-8.2-20-18.8-20l-1.1,0c-5.9,0.3-12.9,0.6-19.7,0.6c-15.4,0-27.4-1.5-38.8-5c-14.7-4.4-30-15.9-43.4-25.9l-6-4.4c-31.7-23.4-41-90.5-17.6-126.1c3.3-5,4.4-10.7,3-16c-1.2-4.8-4.4-9-8.7-11.9c-3.4-5.1-8.8-8-15.2-8l-1,0c-3.5,0.2-7,0.3-10.4,0.3c-23.9,0-40.5-5.2-53.9-17c-22.8-19.9-14-57.7-7.5-85.3c11.6-49.9,65.3-72.2,113.3-72.2c7,0,13.8,0.5,20.2,1.5c9.6,1.5,18-3.8,22.1-12.8c3.4-7.6,2.9-15.8-1.3-21.6c-8.6-26.1-5.9-52.9,7.4-73.7c11.6-18.1,30-29.2,51.8-31.3c37.2-3.6,91.8,9.1,116.2,42.5c3.7,5,8.6,7.8,14,7.8c6.2,0,12.1-3.6,16-9.6c6.7-4.2,11.5-12.6,8.4-23.3c-6.9-23.2-4.1-43.3,8.2-59.8c16.7-22.3,50.9-36.2,89.2-36.2c56,0,117.8,30.6,121.2,97.8c0.7,13.4,10.9,20.4,20.6,20.4c8.6,0,17.6-5.7,19.1-16.7c17.3-27,49.2-31,66.9-31c30.5,0,64.2,11.7,84,29c20.8,18.3,31.3,45,31.1,79.6c-0.1,18-2.7,60.7-24.8,69.3c-9.3,3.6-14.6,13.3-13.1,24c1.3,9.2,7.1,16,14.7,17.6c3.1,1.7,6.6,2.4,10.7,1.9c28.9-3.5,56.2,8.2,75.1,32.1c19.8,25,27,59.7,19.2,92.7c-7.1,30.2-52.6,48-74.5,56.6c-23.3,9.1-49.7,13.8-78.3,13.8c-4.4,0-8.9-0.1-13.3-0.3l-1,0c-10.6,0-18.6,8.4-18.8,20.1c-0.2,10.4,6.4,21.9,19.2,22.5c4.2,0.2,8.5,0.3,12.7,0.3c41.3,0,80.7-9.3,120.4-28.3c25.9-12.5,70.2-40.5,75.2-88.3C997.1,386.9,953.8,316.9,891.2,302.1z"/></g></g><g></g><g></g><g></g><g></g><g></g><g></g><g></g><g></g><g></g><g></g><g></g><g></g><g></g><g></g><g></g></g>
</svg>