<?xml version="1.0" encoding="utf-8"?>
<!-- Svg Vector Icons : http://www.onlinewebfonts.com/icon -->
<!DOCTYPE svg PUBLIC "-//W3C//DTD SVG 1.1//EN" "http://www.w3.org/Graphics/SVG/1.1/DTD/svg11.dtd">
<svg version="1.1" xmlns="http://www.w3.org/2000/svg" xmlns:xlink="http://www.w3.org/1999/xlink" x="0px" y="0px" viewBox="0 0 1000 1000" enable-background="new 0 0 1000 1000" xml:space="preserve">
<metadata> Svg Vector Icons : http://www.onlinewebfonts.com/icon </metadata>
<g><path d="M591.1,891.9c16.8,4.9,34.6,10.4,53.2,16.6c18.6,6.2,35.2,12.4,49.9,18.6c14.6,6.2,25.7,12,33.2,17.3c7.5,5.3,8.6,9.5,3.3,12.6c-14.2,7.5-32.9,13.7-56.2,18.6c-23.3,4.9-48.8,8.5-76.5,11c-27.7,2.4-56.3,3.5-85.8,3.3c-29.5-0.2-57.2-1.5-83.1-4c-25.9-2.4-49-6.1-69.1-11c-20.2-4.9-34.7-10.9-43.5-18c-4.9-4-3.5-8.8,4-14.3c7.5-5.5,18.5-11.3,32.9-17.3c14.4-6,30.8-11.9,49.2-17.6c18.4-5.8,36-11.1,52.9-16c8-2.2,14.1-2,18.3,0.7c4.2,2.7,8.2,6,12,10c3.8,4,8.4,7.8,14,11.3c5.5,3.5,13.6,5.3,24.3,5.3c10.6,0,18.6-1.8,23.9-5.3c5.3-3.5,10-7.3,14-11.3c4-4,8-7.3,12-10C577.8,889.9,583.5,889.7,591.1,891.9L591.1,891.9z M400.9,420.5c-1.3-3.1-0.9-6,1.3-8.6c2.2-2.7,5.1-5.1,8.6-7.3c4-2.2,8.9-4.4,14.6-6.6l-4-8c-1.8-3.1-4-7.1-6.6-12c-2.7-4.9-5.8-11.1-9.3-18.6c-4-7.5-5.4-14.2-4.3-19.9c1.1-5.8,3.8-9.5,8-11.3c4.2-1.8,9.2-1.1,15,2c5.8,3.1,11.3,9.5,16.6,19.3c5.3,10.2,12.7,22.8,22.3,37.9c9.5,15.1,19.2,29.7,28.9,43.9c11.5,16.8,23.5,34.1,35.9,51.9l42.5-33.9c-0.4-4.9-1.3-10-2.7-15.3c-0.9-4.9-2.2-10.2-4-16c-1.8-5.8-4.4-12-8-18.6c-3.1-6.2-4.3-12.2-3.7-18c0.7-5.8,2.3-10.1,5-13c2.7-2.9,6.1-4.1,10.3-3.7c4.2,0.4,8.1,3.5,11.6,9.3c3.5,5.8,7.6,11.6,12.3,17.6c4.7,6,9,11.4,13,16.3l14.6,17.3l64.5-14l10.6,24.6l-35.9,23.9c-10.2,6.6-20.5,13.4-30.9,20.3c-10.4,6.9-19.2,12.5-26.3,17c-7.1,4.4-14.4,9.8-21.9,16c-7.5,6.2-14.4,13.5-20.6,21.9c-6.2,8.4-11.3,18.1-15.3,28.9c-4,10.9-6,22.9-6,36.2v51.2l-1.3,62.5v57.2l1.3,35.2c0.9,23.5,2.7,29.4,5.3,17.6c2.7-11.7,5.5-6.8,8.6,15c3.5,4.9,7.3,9.5,11.3,14c-3.1,4.4-6.9,8.6-11.3,12.6c-4,3.5-8.9,6.9-14.6,10c-5.8,3.1-12.6,5.1-20.6,6c-8,0.9-15.2,0.3-21.6-1.7c-6.4-2-12.1-4.1-17-6.3c-5.3-2.7-10.2-6-14.6-10c1.8-8,3.5-16.2,5.3-24.6c1.3-7.5,2.5-15.5,3.7-23.9c1.1-8.4,1.7-16.6,1.7-24.6V597.4c0-12,0.4-23.7,1.3-35.2c0.9-11.5,2-21.7,3.3-30.6c1.8-10.6,3.5-20.6,5.3-29.9c-7.5-13.7-14.4-25.9-20.6-36.6c-5.3-8.9-10.5-17.1-15.6-24.6c-5.1-7.5-8.5-10.9-10.3-10c-1.8,0.9-4.4,1.4-8,1.7c-3.5,0.2-7.1,0-10.6-0.7c-3.5-0.7-7-1.9-10.3-3.7C404.6,426.1,402.2,423.6,400.9,420.5L400.9,420.5z M356.4,544.2c-8.9,10.2-18.4,17.8-28.6,22.9c-10.2,5.1-19.7,8.8-28.6,11c-10.6,2.2-20.8,3.1-30.6,2.7c-4-6.2-6.7-13.3-8-21.3c-0.9-7.1-0.7-16,0.7-26.6c1.3-10.6,5.8-23.5,13.3-38.6c7.1-14.6,17-25.8,29.6-33.6c12.6-7.8,24.9-13.4,36.9-17c14.2-4,29-6,44.5-6c-4.4,8-6.8,16.1-7,24.3c-0.2,8.2-0.6,16.6-1,25.3c-0.4,8.6-1.9,17.7-4.3,27.3C370.9,524.1,365.2,534,356.4,544.2L356.4,544.2z M761.9,482.4c8.9,8.9,15.4,16.8,19.6,23.9c4.2,7.1,7,13.3,8.3,18.6c1.8,6.2,2,12,0.7,17.3c-7.1,3.1-14.6,5.3-22.6,6.6c-6.6,0.9-14.4,1-23.3,0.3c-8.9-0.7-17.7-3.4-26.6-8.3c-8.9-4.4-15.5-9.6-19.9-15.6c-4.4-6-8.1-12-11-18c-2.9-6-5.5-11.9-8-17.6c-2.4-5.8-6.3-10.9-11.6-15.3c10.6-4.4,21.7-7.3,33.2-8.6c9.3-0.9,19.5-0.4,30.6,1.3C742.4,468.9,752.6,474,761.9,482.4L761.9,482.4z M270.6,346.1c-14.2-4.9-27.3-11.7-39.2-20.6c-12-8.9-22.4-17.5-31.2-25.9c-10.2-9.8-19.5-20.2-27.9-31.2c10.6-11.5,21.9-19.7,33.9-24.6c10.2-4.4,22.2-6.1,35.9-5c13.7,1.1,28.4,8.8,43.9,22.9c15.5,14.6,27.5,27,35.9,37.2c8.4,10.2,15.1,18.4,19.9,24.6c4.9,7.5,8.4,13.7,10.6,18.6c-4.9,4.4-11.3,7.5-19.3,9.3c-6.6,1.8-15.2,2.6-25.6,2.3C297.1,353.5,284.8,351,270.6,346.1L270.6,346.1z M747.3,243c22.6-5.8,40.3-7.8,53.2-6c12.9,1.8,22.8,5.1,29.9,10c8,5.3,13.5,12.6,16.6,21.9c-5.8,8.9-12.6,17.7-20.6,26.6c-6.6,7.5-14.8,15.6-24.6,24.3c-9.7,8.6-20.8,16.1-33.2,22.3c-12.4,6.6-23.9,11-34.6,13c-10.6,2-20.3,3.7-28.9,5c-8.6,1.3-16,3.5-21.9,6.6c-6,3.1-10.5,8.9-13.6,17.3c-0.9-22.2,1.1-42.8,6-61.8c2.2-8,5.1-16.1,8.6-24.3c3.5-8.2,8.1-15.8,13.6-22.9c5.5-7.1,12.4-13.4,20.6-18.9C726.6,250.5,736.2,246.1,747.3,243L747.3,243z" fill="#371313"/><path d="M354.9,181.6c0,0,2.8,131.1,91.1,125.6C446,307.2,455.7,151.3,354.9,181.6z" fill="#371313"/><path d="M524.6,366.5c0,0-41.4-212.5,100.7-179.4c0,0,22.1,64.8-29,138C596.4,325.1,544,341.7,524.6,366.5z" fill="#371313"/><path d="M680.6,254.4" fill="#371313"/><path d="M505.3,211.1c0,0,13.2-215.4-110.7-167.9c0,0-12.5,66.7,41.6,134.1C436.2,177.3,485.2,188.4,505.3,211.1z"/><path d="M149.8,416.2c0,0,33.1-71.7,138-19.3C287.7,396.9,291.9,441,149.8,416.2z" fill="#371313"/><path d="M105.6,459"/><path d="M667.3,230c0,0,14.2-77.7,128.8-53.1C796.1,176.9,811.1,218.7,667.3,230z" fill="#371313"/><path d="M733.4,414.3c0,0,26-74.6,135.5-32.6C868.9,381.7,877.3,425.3,733.4,414.3z" fill="#371313"/><path d="M318.1,198.9c0,0-29.4-88.1-177.1-57.5c0,0,45.3,59.9,107.3,74.9C310.4,231.2,285,202.1,318.1,198.9z" fill="#371313"/><path d="M533.4,125.9c0,0,16.2-110.8,193.5-115.9c0,0-40.3,82.3-109.2,116.8C548.9,161.4,572.4,120.5,533.4,125.9z"/><path d="M708,132.7c0,0,10.9-151.6,185.2-87.7C893.2,45,921.1,129.4,708,132.7z" fill="#371313"/></g>
</svg>